<svg width="72" height="72" viewBox="0 0 72 72" fill="none" xmlns="http://www.w3.org/2000/svg">
<path d="M35.9775 71.955C55.8473 71.955 71.955 55.8473 71.955 35.9775C71.955 16.1077 55.8473 0 35.9775 0C16.1077 0 0 16.1077 0 35.9775C0 55.8473 16.1077 71.955 35.9775 71.955Z" fill="white"/>
<circle cx="35.979" cy="35.9775" r="17.9888" fill="#FFA427"/>
<path d="M44.9739 44.972H26.9851C26.6164 44.972 26.3105 44.6662 26.3105 44.2974C26.3105 43.9286 26.6164 43.6228 26.9851 43.6228H44.9739C45.3427 43.6228 45.6485 43.9286 45.6485 44.2974C45.6485 44.6662 45.3427 44.972 44.9739 44.972Z" fill="white"/>
<path d="M33.9551 28.782V44.9719H38.0025V28.782C38.0025 27.7926 37.5978 26.9832 36.3836 26.9832H35.5741C34.3598 26.9832 33.9551 27.7926 33.9551 28.782Z" fill="white"/>
<path d="M27.8848 34.1788V44.972H31.4825V34.1788C31.4825 33.1894 31.1227 32.3799 30.0434 32.3799H29.3239C28.2445 32.3799 27.8848 33.1894 27.8848 34.1788Z" fill="white"/>
<path d="M40.4766 38.676V44.972H44.0743V38.676C44.0743 37.6866 43.7145 36.8771 42.6352 36.8771H41.9157C40.8363 36.8771 40.4766 37.6866 40.4766 38.676Z" fill="white"/>
</svg>
