<svg width="30" height="31" viewBox="0 0 30 31" fill="none" xmlns="http://www.w3.org/2000/svg">
<path fill-rule="evenodd" clip-rule="evenodd" d="M24.8108 26.66C27.9892 23.8769 30 19.7651 30 15.1781C30 6.79546 23.2842 0 15 0C6.71576 0 0 6.79546 0 15.1781C0 19.8759 2.10913 24.0751 5.42148 26.8593C10.3801 26.093 14.191 21.7484 14.191 16.5201C14.191 16.0387 14.5767 15.6485 15.0524 15.6485C15.5281 15.6485 15.9138 16.0387 15.9138 16.5201C15.9138 19.7819 14.6601 22.8469 12.3836 25.1504C10.9472 26.6039 9.21111 27.6453 7.31557 28.216C7.98698 28.622 8.69237 28.9765 9.42639 29.274C14.258 27.1045 17.6365 22.2043 17.6365 16.5202C17.6365 15.0784 16.4772 13.9053 15.0524 13.9053C13.6275 13.9053 12.4683 15.0783 12.4683 16.5202C12.4683 18.85 11.5727 21.0393 9.9467 22.6847C8.34978 24.3005 6.23448 25.2028 3.97832 25.2347C3.89705 24.6852 3.85458 24.1231 3.85458 23.5511V23.493C7.6543 23.493 10.7455 20.365 10.7455 16.5202C10.7455 14.1171 12.6776 12.1622 15.0524 12.1622C17.4272 12.1622 19.3593 14.1171 19.3591 16.5202C19.3591 20.7141 17.7472 24.6547 14.8204 27.6163C13.899 28.5488 12.8816 29.3491 11.7907 30.0081C12.6237 30.1918 13.4825 30.3055 14.3609 30.3428C14.9467 29.8854 15.5071 29.387 16.0387 28.8491L16.8587 28.0132L17.4322 28.9583C17.6549 29.3254 17.9008 29.6793 18.1679 30.0172C18.7939 29.881 19.4054 29.7053 19.9996 29.4927C19.1388 28.5755 18.4976 27.5002 18.1018 26.3325C18.5862 25.6152 19.0147 24.8655 19.3848 24.0886C19.5406 25.9423 20.416 27.5916 21.7265 28.7483C22.2809 28.4664 22.8155 28.1508 23.3279 27.8041C21.9725 26.8604 21.0822 25.2799 21.0822 23.493V16.5202C21.0822 13.156 18.3773 10.419 15.0526 10.419C11.7278 10.419 9.02296 13.156 9.02296 16.5202C9.02296 19.4038 6.70454 21.7497 3.85476 21.7497V20.0065C5.75455 20.0065 7.30024 18.4426 7.30024 16.5202C7.30024 12.1948 10.778 8.67578 15.0526 8.67578C19.3271 8.67578 22.8048 12.1947 22.8048 16.5202V23.4929C22.8048 24.8956 23.6278 26.1073 24.8108 26.66ZM3.85469 16.5202C3.85469 10.2723 8.87804 5.18936 15.0525 5.18936C21.227 5.18936 26.2503 10.2723 26.2503 16.5202V23.5511C26.2503 24.122 26.208 24.6829 26.1271 25.2313C25.2345 25.167 24.5276 24.4122 24.5276 23.493V16.5202C24.5276 11.2336 20.2771 6.93259 15.0525 6.93259C9.82794 6.93259 5.57744 11.2336 5.57744 16.5202C5.57744 17.4814 4.80458 18.2634 3.85469 18.2634V16.5202Z" fill="#473AE9"/>
</svg>
