<svg width="56" height="56" viewBox="0 0 56 56" fill="none" xmlns="http://www.w3.org/2000/svg">
<circle r="28" transform="matrix(-1 0 0 1 28 28)" fill="#473AE9"/>
<path d="M40.1746 28.6079V27.3905C40.1746 27.0543 39.9021 26.7818 39.5659 26.7818H19.8807L25.2981 21.3766C25.4133 21.2623 25.4781 21.1067 25.4781 20.9444C25.4781 20.7821 25.4133 20.6265 25.2981 20.5122L24.4337 19.66C24.3194 19.5448 24.1638 19.48 24.0015 19.48C23.8392 19.48 23.6837 19.5448 23.5694 19.66L16.0946 27.1226C15.9233 27.2937 15.827 27.5258 15.8268 27.7679V28.2305C15.8296 28.472 15.9255 28.7032 16.0946 28.8757L23.5694 36.3383C23.6837 36.4535 23.8392 36.5183 24.0015 36.5183C24.1638 36.5183 24.3194 36.4535 24.4337 36.3383L25.2981 35.4739C25.4126 35.3617 25.4771 35.2082 25.4771 35.0479C25.4771 34.8875 25.4126 34.734 25.2981 34.6218L19.8807 29.2166H39.5659C39.9021 29.2166 40.1746 28.944 40.1746 28.6079Z" fill="white"/>
</svg>
