<svg width="521" height="391" viewBox="0 0 521 391" fill="none" xmlns="http://www.w3.org/2000/svg">
<rect y="1.52588e-05" width="520.775" height="390.356" fill="white"/>
<path opacity="0.5" d="M60.0688 309.579H58.6021L61.8977 300.422H63.4941L66.7897 309.579H65.323L62.7339 302.085H62.6624L60.0688 309.579ZM60.3148 305.993H65.0726V307.156H60.3148V305.993ZM68.0048 312.155V302.711H69.3106V303.824H69.4224C69.4999 303.681 69.6117 303.516 69.7577 303.328C69.9038 303.14 70.1065 302.976 70.3659 302.836C70.6252 302.693 70.9681 302.622 71.3943 302.622C71.9488 302.622 72.4437 302.762 72.8789 303.042C73.3142 303.322 73.6555 303.726 73.9029 304.254C74.1533 304.781 74.2786 305.416 74.2786 306.159C74.2786 306.901 74.1548 307.537 73.9074 308.068C73.66 308.596 73.3201 309.003 72.8879 309.289C72.4556 309.572 71.9622 309.714 71.4078 309.714C70.9904 309.714 70.6491 309.644 70.3838 309.503C70.1214 309.363 69.9157 309.199 69.7667 309.012C69.6176 308.824 69.5028 308.657 69.4224 308.511H69.3419V312.155H68.0048ZM69.315 306.145C69.315 306.628 69.3851 307.051 69.5252 307.415C69.6653 307.779 69.868 308.064 70.1333 308.269C70.3987 308.472 70.7236 308.573 71.1082 308.573C71.5076 308.573 71.8415 308.467 72.1098 308.256C72.3781 308.041 72.5808 307.751 72.718 307.384C72.8581 307.017 72.9281 306.604 72.9281 306.145C72.9281 305.692 72.8596 305.285 72.7224 304.924C72.5883 304.564 72.3856 304.279 72.1143 304.07C71.846 303.862 71.5106 303.757 71.1082 303.757C70.7206 303.757 70.3927 303.857 70.1244 304.057C69.8591 304.257 69.6579 304.535 69.5207 304.893C69.3836 305.251 69.315 305.668 69.315 306.145ZM75.7766 309.579V302.711H77.0689V303.802H77.1404C77.2656 303.432 77.4862 303.142 77.8022 302.93C78.1212 302.715 78.4819 302.608 78.8843 302.608C78.9678 302.608 79.0662 302.611 79.1795 302.617C79.2957 302.623 79.3867 302.63 79.4522 302.639V303.918C79.3986 303.903 79.3032 303.887 79.1661 303.869C79.0289 303.848 78.8918 303.838 78.7547 303.838C78.4387 303.838 78.157 303.905 77.9095 304.039C77.6651 304.17 77.4713 304.354 77.3282 304.589C77.1851 304.822 77.1136 305.087 77.1136 305.385V309.579H75.7766Z" fill="#292929"/>
<path opacity="0.5" d="M155.445 300.422H157.122L160.037 307.54H160.144L163.06 300.422H164.737V309.579H163.422V302.952H163.337L160.636 309.566H159.545L156.844 302.948H156.759V309.579H155.445V300.422ZM168.637 309.731C168.202 309.731 167.808 309.651 167.457 309.49C167.105 309.326 166.826 309.089 166.62 308.779C166.418 308.469 166.316 308.089 166.316 307.639C166.316 307.251 166.391 306.932 166.54 306.682C166.689 306.431 166.89 306.233 167.144 306.087C167.397 305.941 167.68 305.831 167.993 305.756C168.306 305.682 168.625 305.625 168.95 305.586C169.362 305.539 169.695 305.5 169.952 305.47C170.208 305.437 170.394 305.385 170.511 305.313C170.627 305.242 170.685 305.126 170.685 304.965V304.933C170.685 304.543 170.575 304.24 170.354 304.026C170.137 303.811 169.812 303.704 169.379 303.704C168.929 303.704 168.575 303.804 168.315 304.003C168.059 304.2 167.881 304.419 167.783 304.661L166.526 304.374C166.676 303.957 166.893 303.62 167.179 303.364C167.469 303.104 167.801 302.917 168.177 302.8C168.552 302.681 168.947 302.622 169.362 302.622C169.636 302.622 169.926 302.654 170.233 302.72C170.544 302.783 170.833 302.899 171.101 303.069C171.372 303.239 171.594 303.482 171.767 303.798C171.94 304.111 172.027 304.518 172.027 305.018V309.579H170.721V308.64H170.667C170.581 308.813 170.451 308.983 170.278 309.15C170.105 309.317 169.883 309.456 169.612 309.566C169.341 309.676 169.016 309.731 168.637 309.731ZM168.928 308.658C169.297 308.658 169.613 308.585 169.876 308.439C170.141 308.293 170.342 308.102 170.479 307.867C170.62 307.628 170.69 307.373 170.69 307.102V306.217C170.642 306.264 170.549 306.309 170.412 306.351C170.278 306.39 170.125 306.424 169.952 306.454C169.779 306.481 169.61 306.506 169.446 306.53C169.283 306.551 169.145 306.569 169.035 306.583C168.776 306.616 168.539 306.671 168.324 306.749C168.112 306.826 167.943 306.938 167.814 307.084C167.689 307.227 167.627 307.418 167.627 307.657C167.627 307.988 167.749 308.238 167.993 308.408C168.238 308.575 168.549 308.658 168.928 308.658ZM174.407 312.155C174.207 312.155 174.025 312.139 173.861 312.106C173.697 312.076 173.575 312.043 173.494 312.008L173.816 310.912C174.061 310.978 174.278 311.006 174.469 310.997C174.66 310.988 174.828 310.916 174.975 310.782C175.124 310.648 175.255 310.429 175.368 310.125L175.533 309.669L173.02 302.711H174.451L176.191 308.041H176.262L178.002 302.711H179.437L176.607 310.496C176.476 310.854 176.309 311.156 176.106 311.404C175.903 311.654 175.662 311.842 175.381 311.967C175.101 312.092 174.776 312.155 174.407 312.155Z" fill="#292929"/>
<path opacity="0.5" d="M259.495 300.422H260.872V306.914C260.872 307.502 260.756 308.004 260.523 308.421C260.294 308.839 259.97 309.158 259.553 309.378C259.135 309.596 258.647 309.705 258.086 309.705C257.57 309.705 257.107 309.611 256.695 309.423C256.287 309.235 255.964 308.962 255.725 308.605C255.49 308.244 255.372 307.806 255.372 307.29H256.745C256.745 307.543 256.803 307.762 256.919 307.947C257.038 308.132 257.201 308.277 257.406 308.381C257.615 308.482 257.854 308.533 258.122 308.533C258.414 308.533 258.661 308.472 258.864 308.35C259.07 308.225 259.226 308.041 259.334 307.8C259.441 307.558 259.495 307.263 259.495 306.914V300.422ZM267.127 306.731V302.711H268.468V309.579H267.153V308.39H267.082C266.924 308.757 266.671 309.062 266.322 309.307C265.976 309.548 265.545 309.669 265.029 309.669C264.588 309.669 264.198 309.572 263.858 309.378C263.521 309.181 263.256 308.891 263.062 308.506C262.871 308.122 262.776 307.646 262.776 307.08V302.711H264.113V306.919C264.113 307.387 264.242 307.759 264.502 308.037C264.761 308.314 265.098 308.453 265.512 308.453C265.763 308.453 266.012 308.39 266.259 308.265C266.51 308.14 266.717 307.95 266.881 307.697C267.048 307.443 267.13 307.122 267.127 306.731ZM271.602 305.501V309.579H270.265V302.711H271.548V303.829H271.633C271.791 303.465 272.038 303.173 272.375 302.952C272.715 302.732 273.143 302.622 273.659 302.622C274.127 302.622 274.537 302.72 274.888 302.917C275.24 303.11 275.513 303.4 275.707 303.784C275.9 304.169 275.997 304.644 275.997 305.211V309.579H274.66V305.372C274.66 304.874 274.531 304.485 274.271 304.205C274.012 303.921 273.656 303.78 273.202 303.78C272.892 303.78 272.617 303.847 272.375 303.981C272.137 304.115 271.947 304.312 271.807 304.571C271.67 304.828 271.602 305.138 271.602 305.501Z" fill="#292929"/>
<path d="M355.074 300.422H356.452V306.914C356.452 307.502 356.335 308.004 356.103 308.421C355.873 308.839 355.55 309.158 355.132 309.378C354.715 309.596 354.226 309.705 353.666 309.705C353.15 309.705 352.686 309.611 352.275 309.423C351.867 309.235 351.543 308.962 351.305 308.605C351.069 308.244 350.951 307.806 350.951 307.29H352.324C352.324 307.543 352.382 307.762 352.499 307.947C352.618 308.132 352.78 308.277 352.986 308.381C353.195 308.482 353.433 308.533 353.701 308.533C353.994 308.533 354.241 308.472 354.444 308.35C354.649 308.225 354.806 308.041 354.913 307.8C355.021 307.558 355.074 307.263 355.074 306.914V300.422ZM362.706 306.731V302.711H364.048V309.579H362.733V308.39H362.662C362.504 308.757 362.25 309.062 361.901 309.307C361.556 309.548 361.125 309.669 360.609 309.669C360.168 309.669 359.777 309.572 359.437 309.378C359.101 309.181 358.835 308.891 358.642 308.506C358.451 308.122 358.355 307.646 358.355 307.08V302.711H359.692V306.919C359.692 307.387 359.822 307.759 360.081 308.037C360.341 308.314 360.678 308.453 361.092 308.453C361.342 308.453 361.591 308.39 361.839 308.265C362.089 308.14 362.296 307.95 362.46 307.697C362.627 307.443 362.709 307.122 362.706 306.731ZM367.181 300.422V309.579H365.844V300.422H367.181Z" fill="#292929"/>
<path opacity="0.5" d="M443.771 309.579H442.305L445.6 300.422H447.197L450.492 309.579H449.026L446.436 302.085H446.365L443.771 309.579ZM444.017 305.993H448.775V307.156H444.017V305.993ZM456.058 306.731V302.711H457.4V309.579H456.085V308.39H456.014C455.856 308.757 455.602 309.062 455.253 309.307C454.908 309.548 454.477 309.669 453.961 309.669C453.52 309.669 453.129 309.572 452.79 309.378C452.453 309.181 452.187 308.891 451.994 308.506C451.803 308.122 451.707 307.646 451.707 307.08V302.711H453.044V306.919C453.044 307.387 453.174 307.759 453.433 308.037C453.693 308.314 454.03 308.453 454.444 308.453C454.694 308.453 454.943 308.39 455.191 308.265C455.441 308.14 455.648 307.95 455.812 307.697C455.979 307.443 456.061 307.122 456.058 306.731ZM462.076 312.298C461.53 312.298 461.061 312.227 460.667 312.084C460.277 311.94 459.958 311.751 459.71 311.516C459.463 311.28 459.278 311.022 459.156 310.742L460.305 310.268C460.386 310.399 460.493 310.538 460.627 310.684C460.764 310.833 460.949 310.96 461.182 311.064C461.417 311.168 461.72 311.221 462.089 311.221C462.596 311.221 463.015 311.097 463.346 310.849C463.677 310.605 463.842 310.214 463.842 309.678V308.327H463.757C463.677 308.473 463.561 308.636 463.409 308.815C463.259 308.994 463.054 309.149 462.791 309.28C462.529 309.411 462.188 309.477 461.767 309.477C461.225 309.477 460.736 309.35 460.301 309.096C459.868 308.84 459.526 308.463 459.272 307.965C459.022 307.464 458.897 306.849 458.897 306.118C458.897 305.388 459.02 304.762 459.268 304.24C459.518 303.719 459.861 303.319 460.296 303.042C460.732 302.762 461.225 302.622 461.776 302.622C462.203 302.622 462.547 302.693 462.809 302.836C463.072 302.976 463.276 303.14 463.422 303.328C463.571 303.516 463.686 303.681 463.766 303.824H463.865V302.711H465.175V309.731C465.175 310.322 465.038 310.806 464.763 311.185C464.489 311.563 464.118 311.844 463.65 312.025C463.185 312.207 462.66 312.298 462.076 312.298ZM462.063 308.368C462.447 308.368 462.772 308.278 463.037 308.099C463.306 307.917 463.508 307.658 463.646 307.321C463.786 306.981 463.856 306.574 463.856 306.1C463.856 305.638 463.787 305.232 463.65 304.88C463.513 304.528 463.312 304.254 463.046 304.057C462.781 303.857 462.453 303.757 462.063 303.757C461.66 303.757 461.325 303.862 461.056 304.07C460.788 304.276 460.585 304.556 460.448 304.911C460.314 305.266 460.247 305.662 460.247 306.1C460.247 306.551 460.316 306.946 460.453 307.285C460.59 307.625 460.793 307.891 461.061 308.081C461.332 308.272 461.666 308.368 462.063 308.368Z" fill="#292929"/>
<line opacity="0.5" x1="60.9263" y1="162.005" x2="60.9263" y2="244.753" stroke="#7C88B1" stroke-width="0.899438" stroke-dasharray="5.4 5.4"/>
<line opacity="0.5" x1="106.899" y1="162.005" x2="106.899" y2="244.753" stroke="#7C88B1" stroke-width="0.899438" stroke-dasharray="5.4 5.4"/>
<line opacity="0.5" x1="152.87" y1="162.005" x2="152.87" y2="244.753" stroke="#7C88B1" stroke-width="0.899438" stroke-dasharray="5.4 5.4"/>
<line opacity="0.5" x1="198.842" y1="162.005" x2="198.842" y2="244.753" stroke="#7C88B1" stroke-width="0.899438" stroke-dasharray="5.4 5.4"/>
<line opacity="0.5" x1="244.813" y1="162.005" x2="244.813" y2="244.753" stroke="#7C88B1" stroke-width="0.899438" stroke-dasharray="5.4 5.4"/>
<line opacity="0.5" x1="290.786" y1="162.005" x2="290.786" y2="244.753" stroke="#7C88B1" stroke-width="0.899438" stroke-dasharray="5.4 5.4"/>
<line opacity="0.5" x1="336.758" y1="162.005" x2="336.758" y2="244.753" stroke="#7C88B1" stroke-width="0.899438" stroke-dasharray="5.4 5.4"/>
<line opacity="0.5" x1="382.729" y1="162.005" x2="382.729" y2="244.753" stroke="#7C88B1" stroke-width="0.899438" stroke-dasharray="5.4 5.4"/>
<line opacity="0.5" x1="428.702" y1="162.005" x2="428.702" y2="244.753" stroke="#7C88B1" stroke-width="0.899438" stroke-dasharray="5.4 5.4"/>
<line opacity="0.5" x1="474.672" y1="162.005" x2="474.672" y2="244.753" stroke="#7C88B1" stroke-width="0.899438" stroke-dasharray="5.4 5.4"/>
<path opacity="0.2" d="M62.8672 275.448L101.389 260.59C101.802 260.431 102.241 260.349 102.684 260.349H127.131C127.606 260.349 128.077 260.255 128.515 260.072L174.455 240.931C174.893 240.748 175.364 240.654 175.838 240.654H193.51C194.095 240.654 194.671 240.797 195.188 241.07L216.794 252.464C216.961 252.552 217.134 252.627 217.312 252.687L236.4 259.187C238.283 259.829 240.329 258.82 240.967 256.936L248.497 234.712C249.561 231.571 253.947 231.421 255.224 234.482L260.454 247.016C260.775 247.784 261.352 248.417 262.087 248.808L270.262 253.149C271.697 253.911 273.465 253.617 274.576 252.43L296.965 228.509L320.867 199.213C322.15 197.641 324.478 197.44 326.011 198.769L334.928 206.498C335.229 206.759 335.57 206.968 335.94 207.117L359.675 216.681C360.154 216.874 360.586 217.168 360.941 217.542L371.051 228.2C371.245 228.406 371.464 228.587 371.701 228.741L400.757 247.623C401.341 248.002 402.022 248.204 402.717 248.204H415.81C416.429 248.204 417.037 248.044 417.577 247.74L448.31 230.416L461.834 222.273" stroke="#473AE9" stroke-width="2.69831" stroke-linecap="round"/>
<path d="M62.8672 275.448L101.389 260.59C101.802 260.431 102.241 260.349 102.684 260.349H126.746C127.466 260.349 128.169 260.133 128.765 259.73L172.895 229.819C174.07 229.023 175.604 228.992 176.81 229.74L193.529 240.114C194.099 240.467 194.756 240.655 195.426 240.655H220.218C221.228 240.655 222.191 241.079 222.873 241.825L235.702 255.856C237.549 257.876 240.886 257.175 241.765 254.582L248.497 234.713C249.561 231.572 253.947 231.421 255.224 234.482L260.454 247.016C260.775 247.784 261.352 248.418 262.087 248.808L270.262 253.149C271.697 253.911 273.465 253.617 274.576 252.43L296.442 229.068C296.787 228.7 297.05 228.263 297.215 227.787L317.34 169.669C318.331 166.808 322.199 166.376 323.796 168.948L340.253 195.446C340.616 196.031 341.139 196.499 341.76 196.795L362.191 206.542C363.039 206.947 363.696 207.668 364.019 208.55L370.478 226.151C370.998 227.568 372.347 228.51 373.856 228.51H403.678C404.983 228.51 406.187 229.217 406.822 230.358L413.225 241.863C414.672 244.464 418.471 244.283 419.664 241.556L437.169 201.572C438.231 199.147 441.46 198.66 443.189 200.664L461.834 222.273" stroke="#473AE9" stroke-width="2.69831" stroke-linecap="round"/>
<g filter="url(#filter0_d_1834_2343)">
<ellipse cx="318.132" cy="163.55" rx="8.70864" ry="8.70306" fill="#473AE9"/>
</g>
<ellipse cx="318.131" cy="163.549" rx="3.26573" ry="3.26365" fill="white"/>
<g filter="url(#filter1_d_1834_2343)">
<rect x="287.418" y="101.307" width="59.3629" height="39.5865" rx="10.7933" fill="white"/>
<path d="M306.568 116.943V126.1H304.909V118.557H304.856L302.714 119.925V118.405L304.99 116.943H306.568ZM312.247 126.226C311.809 126.223 311.381 126.147 310.964 125.998C310.547 125.846 310.171 125.6 309.837 125.26C309.503 124.917 309.238 124.462 309.041 123.896C308.844 123.327 308.747 122.622 308.75 121.781C308.75 120.997 308.834 120.298 309.001 119.684C309.168 119.07 309.408 118.551 309.721 118.128C310.034 117.701 310.411 117.376 310.852 117.153C311.296 116.929 311.793 116.817 312.341 116.817C312.917 116.817 313.426 116.931 313.87 117.157C314.318 117.384 314.678 117.694 314.953 118.087C315.227 118.478 315.397 118.919 315.462 119.411H313.83C313.747 119.059 313.575 118.779 313.316 118.57C313.06 118.359 312.735 118.253 312.341 118.253C311.706 118.253 311.217 118.528 310.874 119.08C310.535 119.631 310.363 120.389 310.36 121.352H310.423C310.569 121.089 310.758 120.864 310.991 120.676C311.223 120.489 311.486 120.344 311.778 120.243C312.073 120.138 312.384 120.086 312.712 120.086C313.249 120.086 313.73 120.214 314.157 120.471C314.586 120.727 314.926 121.08 315.176 121.53C315.427 121.978 315.55 122.49 315.547 123.069C315.55 123.671 315.413 124.212 315.136 124.692C314.859 125.169 314.473 125.544 313.978 125.819C313.483 126.093 312.906 126.229 312.247 126.226ZM312.238 124.884C312.563 124.884 312.854 124.805 313.11 124.647C313.367 124.489 313.569 124.276 313.718 124.008C313.867 123.739 313.941 123.438 313.938 123.104C313.941 122.777 313.869 122.48 313.723 122.215C313.58 121.949 313.382 121.739 313.128 121.584C312.875 121.429 312.586 121.352 312.261 121.352C312.019 121.352 311.794 121.398 311.585 121.49C311.377 121.583 311.195 121.711 311.04 121.875C310.885 122.036 310.763 122.224 310.673 122.438C310.587 122.65 310.542 122.876 310.539 123.118C310.542 123.437 310.617 123.73 310.763 123.999C310.909 124.267 311.11 124.482 311.366 124.643C311.623 124.804 311.913 124.884 312.238 124.884ZM317.059 126.1V124.902L320.238 121.785C320.542 121.478 320.796 121.205 320.998 120.967C321.201 120.729 321.353 120.497 321.454 120.274C321.556 120.05 321.606 119.812 321.606 119.558C321.606 119.269 321.541 119.022 321.41 118.816C321.278 118.607 321.098 118.446 320.869 118.333C320.639 118.22 320.378 118.163 320.086 118.163C319.785 118.163 319.521 118.226 319.295 118.351C319.068 118.473 318.892 118.648 318.767 118.874C318.645 119.101 318.584 119.371 318.584 119.684H317.005C317.005 119.102 317.138 118.597 317.403 118.168C317.668 117.738 318.034 117.406 318.499 117.171C318.967 116.935 319.503 116.817 320.108 116.817C320.723 116.817 321.262 116.932 321.727 117.162C322.192 117.391 322.553 117.706 322.809 118.105C323.069 118.505 323.198 118.961 323.198 119.473C323.198 119.816 323.133 120.153 323.002 120.484C322.87 120.815 322.639 121.182 322.308 121.584C321.981 121.987 321.52 122.474 320.927 123.046L319.348 124.652V124.714H323.337V126.1H317.059ZM324.969 126.1V116.943H326.628V121.15H326.74L330.313 116.943H332.338L328.797 121.052L332.37 126.1H330.375L327.643 122.174L326.628 123.373V126.1H324.969Z" fill="#022964"/>
</g>
<path d="M318.357 150.636C317.997 151.103 317.292 151.103 316.932 150.636L311.219 143.218C310.763 142.627 311.185 141.77 311.931 141.77L323.359 141.77C324.105 141.77 324.527 142.627 324.071 143.218L318.357 150.636Z" fill="white"/>
<path d="M71.9758 79.3605C71.9758 80.7871 71.7054 82.0009 71.1645 83.0017C70.6279 84.0025 69.8954 84.7669 68.967 85.295C68.0429 85.8188 67.0038 86.0807 65.8497 86.0807C64.687 86.0807 63.6436 85.8167 62.7195 85.2886C61.7954 84.7605 61.065 83.9961 60.5284 82.9953C59.9918 81.9945 59.7235 80.7829 59.7235 79.3605C59.7235 77.9338 59.9918 76.7201 60.5284 75.7193C61.065 74.7185 61.7954 73.9562 62.7195 73.4324C63.6436 72.9043 64.687 72.6402 65.8497 72.6402C67.0038 72.6402 68.0429 72.9043 68.967 73.4324C69.8954 73.9562 70.6279 74.7185 71.1645 75.7193C71.7054 76.7201 71.9758 77.9338 71.9758 79.3605ZM69.1714 79.3605C69.1714 78.4363 69.033 77.657 68.7562 77.0224C68.4837 76.3879 68.0982 75.9067 67.6 75.5787C67.1017 75.2508 66.5183 75.0869 65.8497 75.0869C65.181 75.0869 64.5976 75.2508 64.0993 75.5787C63.6011 75.9067 63.2135 76.3879 62.9367 77.0224C62.6641 77.657 62.5279 78.4363 62.5279 79.3605C62.5279 80.2846 62.6641 81.064 62.9367 81.6985C63.2135 82.333 63.6011 82.8143 64.0993 83.1422C64.5976 83.4701 65.181 83.6341 65.8497 83.6341C66.5183 83.6341 67.1017 83.4701 67.6 83.1422C68.0982 82.8143 68.4837 82.333 68.7562 81.6985C69.033 81.064 69.1714 80.2846 69.1714 79.3605ZM83.1214 76.0898L79.691 85.9018H76.6247L73.1943 76.0898H76.0689L78.1067 83.1103H78.2089L80.2403 76.0898H83.1214ZM88.6694 86.0935C87.6601 86.0935 86.7913 85.8891 86.063 85.4802C85.3391 85.0671 84.7812 84.4837 84.3894 83.7299C83.9976 82.9719 83.8017 82.0754 83.8017 81.0405C83.8017 80.0312 83.9976 79.1454 84.3894 78.3831C84.7812 77.6208 85.3327 77.0267 86.0439 76.6008C86.7593 76.175 87.5983 75.962 88.5608 75.962C89.2081 75.962 89.8107 76.0664 90.3686 76.275C90.9307 76.4795 91.4205 76.7882 91.8378 77.2013C92.2595 77.6144 92.5874 78.134 92.8216 78.76C93.0558 79.3818 93.173 80.11 93.173 80.9447V81.6921H84.8876V80.0057H90.6113C90.6113 79.6139 90.5262 79.2668 90.3558 78.9644C90.1855 78.662 89.9491 78.4257 89.6467 78.2553C89.3486 78.0807 89.0016 77.9934 88.6055 77.9934C88.1924 77.9934 87.8261 78.0893 87.5067 78.2809C87.1916 78.4683 86.9446 78.7217 86.7657 79.0411C86.5869 79.3562 86.4953 79.7076 86.491 80.0951V81.6985C86.491 82.184 86.5805 82.6035 86.7593 82.9569C86.9425 83.3104 87.2001 83.583 87.5323 83.7746C87.8645 83.9663 88.2584 84.0621 88.7141 84.0621C89.0165 84.0621 89.2933 84.0195 89.5445 83.9343C89.7958 83.8491 90.0109 83.7214 90.1897 83.551C90.3686 83.3807 90.5049 83.172 90.5986 82.925L93.1155 83.0911C92.9877 83.6958 92.7258 84.2239 92.3297 84.6753C91.9379 85.1225 91.4311 85.4717 90.8094 85.723C90.1919 85.97 89.4785 86.0935 88.6694 86.0935ZM94.9488 85.9018V76.0898H97.5871V77.8018H97.6893C97.8682 77.1928 98.1684 76.7329 98.59 76.422C99.0116 76.1068 99.4971 75.9493 100.046 75.9493C100.183 75.9493 100.33 75.9578 100.487 75.9748C100.645 75.9918 100.783 76.0153 100.902 76.0451V78.4598C100.775 78.4214 100.598 78.3874 100.372 78.3575C100.147 78.3277 99.94 78.3128 99.7526 78.3128C99.3523 78.3128 98.9946 78.4001 98.6795 78.5747C98.3686 78.7451 98.1216 78.9836 97.9384 79.2902C97.7596 79.5968 97.6701 79.9503 97.6701 80.3506V85.9018H94.9488ZM111.756 76.0898L108.325 85.9018H105.259L101.829 76.0898H104.703L106.741 83.1103H106.843L108.875 76.0898H111.756ZM113.148 85.9018V76.0898H115.87V85.9018H113.148ZM114.515 74.825C114.111 74.825 113.764 74.6908 113.474 74.4225C113.189 74.15 113.046 73.8242 113.046 73.4451C113.046 73.0704 113.189 72.7488 113.474 72.4805C113.764 72.208 114.111 72.0717 114.515 72.0717C114.92 72.0717 115.265 72.208 115.55 72.4805C115.84 72.7488 115.985 73.0704 115.985 73.4451C115.985 73.8242 115.84 74.15 115.55 74.4225C115.265 74.6908 114.92 74.825 114.515 74.825ZM122.521 86.0935C121.512 86.0935 120.643 85.8891 119.915 85.4802C119.191 85.0671 118.633 84.4837 118.241 83.7299C117.849 82.9719 117.654 82.0754 117.654 81.0405C117.654 80.0312 117.849 79.1454 118.241 78.3831C118.633 77.6208 119.185 77.0267 119.896 76.6008C120.611 76.175 121.45 75.962 122.413 75.962C123.06 75.962 123.663 76.0664 124.22 76.275C124.783 76.4795 125.272 76.7882 125.69 77.2013C126.111 77.6144 126.439 78.134 126.673 78.76C126.908 79.3818 127.025 80.11 127.025 80.9447V81.6921H118.74V80.0057H124.463C124.463 79.6139 124.378 79.2668 124.208 78.9644C124.037 78.662 123.801 78.4257 123.499 78.2553C123.201 78.0807 122.853 77.9934 122.457 77.9934C122.044 77.9934 121.678 78.0893 121.359 78.2809C121.043 78.4683 120.796 78.7217 120.618 79.0411C120.439 79.3562 120.347 79.7076 120.343 80.0951V81.6985C120.343 82.184 120.432 82.6035 120.611 82.9569C120.794 83.3104 121.052 83.583 121.384 83.7746C121.716 83.9663 122.11 84.0621 122.566 84.0621C122.868 84.0621 123.145 84.0195 123.396 83.9343C123.648 83.8491 123.863 83.7214 124.042 83.551C124.22 83.3807 124.357 83.172 124.45 82.925L126.967 83.0911C126.84 83.6958 126.578 84.2239 126.182 84.6753C125.79 85.1225 125.283 85.4717 124.661 85.723C124.044 85.97 123.33 86.0935 122.521 86.0935ZM130.666 85.9018L127.996 76.0898H130.749L132.269 82.6823H132.359L133.943 76.0898H136.645L138.255 82.6439H138.338L139.833 76.0898H142.58L139.916 85.9018H137.035L135.348 79.731H135.227L133.541 85.9018H130.666Z" fill="#292929"/>
<defs>
<filter id="filter0_d_1834_2343" x="300.429" y="149.45" width="35.4067" height="35.3949" filterUnits="userSpaceOnUse" color-interpolation-filters="sRGB">
<feFlood flood-opacity="0" result="BackgroundImageFix"/>
<feColorMatrix in="SourceAlpha" type="matrix" values="0 0 0 0 0 0 0 0 0 0 0 0 0 0 0 0 0 0 127 0" result="hardAlpha"/>
<feOffset dy="3.59775"/>
<feGaussianBlur stdDeviation="4.49719"/>
<feColorMatrix type="matrix" values="0 0 0 0 0.301961 0 0 0 0 0.392157 0 0 0 0 1 0 0 0 0.25 0"/>
<feBlend mode="normal" in2="BackgroundImageFix" result="effect1_dropShadow_1834_2343"/>
<feBlend mode="normal" in="SourceGraphic" in2="effect1_dropShadow_1834_2343" result="shape"/>
</filter>
<filter id="filter1_d_1834_2343" x="280.222" y="95.9106" width="73.7543" height="53.9775" filterUnits="userSpaceOnUse" color-interpolation-filters="sRGB">
<feFlood flood-opacity="0" result="BackgroundImageFix"/>
<feColorMatrix in="SourceAlpha" type="matrix" values="0 0 0 0 0 0 0 0 0 0 0 0 0 0 0 0 0 0 127 0" result="hardAlpha"/>
<feOffset dy="1.79888"/>
<feGaussianBlur stdDeviation="3.59775"/>
<feComposite in2="hardAlpha" operator="out"/>
<feColorMatrix type="matrix" values="0 0 0 0 0 0 0 0 0 0 0 0 0 0 0 0 0 0 0.11 0"/>
<feBlend mode="normal" in2="BackgroundImageFix" result="effect1_dropShadow_1834_2343"/>
<feBlend mode="normal" in="SourceGraphic" in2="effect1_dropShadow_1834_2343" result="shape"/>
</filter>
</defs>
</svg>
