<svg width="74" height="28" viewBox="0 0 74 28" fill="none" xmlns="http://www.w3.org/2000/svg">
<path d="M70.7562 0.369629L68.4891 13.0854H68.2645L65.9533 0.369629H62.707C63.2689 3.78908 66.6933 17.8596 66.7298 18.0686V27.6208H69.9767V18.1191C69.9767 17.9714 73.3935 4.22867 73.9995 0.420074L70.7562 0.369629Z" fill="#292929"/>
<path d="M12.2589 14.015V11.9359H6.0594V16.3967H8.95785C8.83086 19.4378 8.43182 21.5241 7.77161 22.6123C7.58298 22.9258 7.34356 23.178 7.07512 23.3437C6.78857 23.5059 6.4766 23.5743 6.16823 23.5419C5.31578 23.5419 3.3569 23.5419 3.3569 14.015C3.3569 4.4845 5.31578 4.47369 6.16823 4.47369C6.81033 4.47369 8.15979 4.47369 8.71477 9.04259H12.0413C11.9034 7.50762 11.5987 6.00866 11.1344 4.5962C10.7607 3.21977 10.0715 2.03791 9.16825 1.22359C8.27221 0.394849 7.20211 -0.033933 6.11384 0.00209863C5.03283 -0.0267271 3.96996 0.398452 3.07758 1.22359C2.18157 2.04152 1.49596 3.20896 1.11144 4.57097C0.269842 7.57968 -0.100169 10.7901 0.0231684 14.0006C-0.0965405 17.2075 0.27347 20.4143 1.11144 23.4194C1.49233 24.7778 2.18157 25.9452 3.07758 26.7524C3.96996 27.5775 5.03283 28.0063 6.11384 27.9739C7.19845 28.0063 8.26136 27.5811 9.15734 26.7524C10.057 25.9452 10.7426 24.7778 11.1235 23.4194C11.976 20.4215 12.3605 17.2183 12.2589 14.015Z" fill="#292929"/>
<path d="M53.7634 0.369629H50.5312V27.6208H53.7743V16.3967H58.5592V27.6208H61.8019V0.369629H58.5592V11.9252H53.7743L53.7634 0.369629Z" fill="#292929"/>
<path d="M48.3773 3.31341C47.913 2.39819 47.2891 1.64872 46.5636 1.12625C45.8163 0.618199 44.9892 0.365973 44.1549 0.394799H38.2891V27.6207H41.5357V18.7784H44.2528C45.0835 18.818 45.9069 18.5767 46.647 18.0686C47.3797 17.5533 48.0001 16.7967 48.4571 15.8706C49.2806 13.9934 49.6796 11.8314 49.6107 9.65146C49.6941 7.41746 49.2625 5.20509 48.3773 3.31341ZM45.711 13.3412C45.5514 13.6726 45.3302 13.9429 45.069 14.1231C44.8078 14.296 44.514 14.3681 44.2274 14.3321H41.5067V4.80514H44.0714C44.3834 4.7655 44.699 4.84477 44.9783 5.03574C45.2504 5.2159 45.4825 5.48975 45.6494 5.82845C46.1355 6.95988 46.3677 8.26062 46.3096 9.56861C46.3713 10.8766 46.1645 12.1809 45.711 13.3412Z" fill="#292929"/>
<path d="M23.6633 19.4377C23.54 18.7856 23.2716 18.2019 22.8943 17.7623C22.5206 17.3227 22.0563 17.0416 21.5629 16.9587V16.739C21.7625 16.739 23.3731 16.1985 24.0442 12.7934C24.2183 11.7305 24.2981 10.6423 24.2909 9.55414C24.3526 7.35254 23.9245 5.17261 23.0575 3.30254C22.5968 2.38011 21.9729 1.62344 21.2437 1.10097C20.4964 0.596523 19.6694 0.351504 18.835 0.38033H13.1797V27.6207H16.4336V18.7784H17.91C18.5448 18.7171 19.1797 18.8 19.7964 19.0198C19.9415 19.1206 20.2389 19.2792 20.4276 20.3169C20.7649 22.7383 21.0007 25.1849 21.1349 27.6459H24.436C24.2836 24.893 24.0261 22.1546 23.6633 19.4377ZM20.4203 13.3303C20.2607 13.6582 20.043 13.9284 19.7854 14.1122C19.5207 14.2816 19.2268 14.3536 18.933 14.3176H16.4517V4.77986H18.7444C19.0563 4.75103 19.3683 4.8303 19.6513 5.01046C19.9233 5.19783 20.1555 5.47528 20.3296 5.81758C20.8084 6.95261 21.037 8.24977 20.9898 9.55414C21.0551 10.8621 20.8556 12.1664 20.4094 13.3303H20.4203Z" fill="#292929"/>
<path d="M34.1587 27.6208H37.3872L34.2131 0.40564H28.5142L25.3438 27.6208H28.5976L29.3377 20.926H33.3098L34.1587 27.6208ZM29.9289 16.4796L31.3147 3.96202H31.5396L32.9289 16.4796H29.9289Z" fill="#292929"/>
</svg>
