<svg width="30" height="30" viewBox="0 0 30 30" fill="none" xmlns="http://www.w3.org/2000/svg">
<g clip-path="url(#clip0_1002_1181)">
<path d="M30 15C30 23.2842 23.2842 30 15 30C6.71576 30 0 23.2842 0 15C0 6.71576 6.71576 0 15 0C23.2842 0 30 6.71576 30 15Z" fill="#30CF83"/>
<path d="M15 17.7578C18.4949 17.7578 21.3281 14.9246 21.3281 11.4297C21.3281 7.93476 18.4949 5.10156 15 5.10156C11.5051 5.10156 8.67188 7.93476 8.67188 11.4297C8.67188 14.9246 11.5051 17.7578 15 17.7578Z" fill="white" fill-opacity="0.2"/>
<path d="M15 14.9453C16.9416 14.9453 18.5156 13.3713 18.5156 11.4297C18.5156 9.48806 16.9416 7.91406 15 7.91406C13.0584 7.91406 11.4844 9.48806 11.4844 11.4297C11.4844 13.3713 13.0584 14.9453 15 14.9453Z" fill="white" fill-opacity="0.2"/>
<path fill-rule="evenodd" clip-rule="evenodd" d="M10.6804 29.369C10.2746 28.8416 9.99049 28.5395 9.99049 28.5395C9.44729 27.965 9.01556 27.3731 8.73858 26.5673C8.6354 26.2493 8.46884 25.8864 8.30801 25.536C8.19127 25.2815 8.07753 25.0337 7.99321 24.8143C7.87516 24.5154 7.77342 24.2409 7.67755 23.982C7.33392 23.0545 7.06497 22.3285 6.38369 21.4047C5.99072 20.8883 6.08798 20.4879 6.6316 20.1255C6.90336 19.9444 7.41166 19.8364 7.75451 19.8895C8.52369 20.016 9.09851 20.4744 9.59782 20.9706C9.77025 21.1178 9.99303 21.5699 10.2411 22.0733C10.4603 22.5181 10.6991 23.0028 10.9404 23.3526C11.3829 23.9974 11.8546 23.5342 12.2381 22.8671C12.4273 22.5321 12.5045 22.1674 12.5794 21.7947C12.9306 18.9184 13.2227 16.033 13.5168 13.1274C13.5671 12.6296 13.6176 12.1313 13.6684 11.6323C13.7342 10.8796 14.2563 10.4113 14.9788 10.4043C15.676 10.4299 16.2364 10.974 16.2821 11.7094C16.3326 12.4978 16.3669 13.2731 16.4021 14.0688C16.4131 14.3175 16.4242 14.5682 16.4359 14.8219C16.4496 15.3016 16.4768 15.7788 16.5038 16.2559C16.5309 16.7331 16.5579 17.2103 16.5718 17.69L16.6344 18.8634C16.6344 18.8634 21.1222 20.0389 24.4557 23.8226C24.6302 24.0416 24.7344 24.3013 24.6688 24.5856C24.6124 25.0436 24.506 25.8272 24.3149 26.7578C21.7562 28.7878 18.5194 30.0002 14.9995 30.0002C13.4981 30.0002 12.0481 29.7795 10.6804 29.369Z" fill="white"/>
</g>
<defs>
<clipPath id="clip0_1002_1181">
<rect width="30" height="30" fill="white"/>
</clipPath>
</defs>
</svg>
