<svg width="73" height="72" viewBox="0 0 73 72" fill="none" xmlns="http://www.w3.org/2000/svg">
<path d="M36.9072 71.955C56.777 71.955 72.8847 55.8473 72.8847 35.9775C72.8847 16.1077 56.777 0 36.9072 0C17.0374 0 0.929688 16.1077 0.929688 35.9775C0.929688 55.8473 17.0374 71.955 36.9072 71.955Z" fill="white"/>
<circle cx="36.9067" cy="35.9775" r="17.9888" fill="#8E00C5"/>
<path d="M36.9065 26.9832C31.9416 26.9832 27.9121 31.0126 27.9121 35.9775C27.9121 40.9424 31.9416 44.9719 36.9065 44.9719C41.8714 44.9719 45.9009 40.9424 45.9009 35.9775C45.9009 31.0126 41.8714 26.9832 36.9065 26.9832ZM32.0495 35.285C32.2024 34.2146 32.6791 33.2522 33.4257 32.4967C35.2245 30.7068 38.0578 30.6079 39.9826 32.1729V31.3184C39.9826 30.9497 40.2884 30.6439 40.6571 30.6439C41.0259 30.6439 41.3317 30.9497 41.3317 31.3184V33.7199C41.3317 34.0887 41.0259 34.3945 40.6571 34.3945H38.2556C37.8869 34.3945 37.5811 34.0887 37.5811 33.7199C37.5811 33.3512 37.8869 33.0454 38.2556 33.0454H38.9302C37.5361 32.074 35.6113 32.2089 34.3701 33.4501C33.8304 33.9898 33.4886 34.6913 33.3717 35.4738C33.3267 35.8066 33.0389 36.0495 32.7061 36.0495C32.6701 36.0495 32.6432 36.0495 32.6072 36.0405C32.2564 35.9955 31.9956 35.6537 32.0495 35.285ZM40.3873 39.4584C39.4249 40.4208 38.1657 40.8975 36.9065 40.8975C35.8092 40.8975 34.7209 40.5107 33.8214 39.7822V40.6276C33.8214 40.9964 33.5156 41.3022 33.1468 41.3022C32.7781 41.3022 32.4723 40.9964 32.4723 40.6276V38.2261C32.4723 37.8574 32.7781 37.5515 33.1468 37.5515H35.5483C35.9171 37.5515 36.2229 37.8574 36.2229 38.2261C36.2229 38.5949 35.9171 38.9007 35.5483 38.9007H34.8738C36.2679 39.8721 38.1927 39.7372 39.4339 38.496C39.9736 37.9563 40.3154 37.2547 40.4323 36.4722C40.4862 36.1035 40.819 35.8426 41.1968 35.8966C41.5656 35.9505 41.8174 36.2923 41.7724 36.6611C41.6105 37.7494 41.1338 38.7118 40.3873 39.4584Z" fill="white"/>
</svg>
