<svg width="1083" height="513" viewBox="0 0 1083 513" fill="none" xmlns="http://www.w3.org/2000/svg">
<g clip-path="url(#clip0_1834_2268)">
<path opacity="0.2" d="M541.45 1082.35C540.559 1082.35 539.669 1082.35 538.78 1082.35L538.778 1082.73C536.998 1082.72 535.219 1082.7 533.443 1082.67L533.449 1082.29C531.674 1082.27 529.901 1082.23 528.13 1082.19L528.121 1082.57C526.349 1082.53 524.579 1082.48 522.811 1082.42L522.824 1082.04C521.057 1081.98 519.293 1081.91 517.531 1081.83L517.514 1082.21C515.746 1082.14 513.98 1082.05 512.216 1081.96L512.236 1081.58C510.459 1081.48 508.685 1081.38 506.913 1081.27L506.889 1081.65C505.116 1081.54 503.345 1081.42 501.576 1081.29L501.604 1080.91C499.837 1080.78 498.072 1080.64 496.309 1080.5L496.278 1080.88C494.514 1080.73 492.752 1080.58 490.993 1080.41L491.028 1080.03C489.27 1079.87 487.513 1079.7 485.759 1079.52L485.72 1079.9C483.95 1079.72 482.181 1079.53 480.415 1079.33L480.458 1078.95C478.693 1078.76 476.931 1078.55 475.172 1078.33L475.126 1078.71C473.365 1078.5 471.607 1078.27 469.852 1078.04L469.902 1077.66C468.148 1077.43 466.396 1077.19 464.648 1076.94L464.594 1077.32C462.844 1077.07 461.097 1076.81 459.352 1076.55L459.41 1076.17C457.652 1075.91 455.898 1075.63 454.147 1075.35L454.086 1075.72C452.332 1075.44 450.581 1075.14 448.833 1074.84L448.898 1074.47C447.151 1074.17 445.407 1073.86 443.666 1073.54L443.598 1073.91C441.855 1073.6 440.116 1073.27 438.38 1072.93L438.451 1072.56C436.716 1072.23 434.984 1071.88 433.255 1071.53L433.179 1071.91C431.438 1071.55 429.7 1071.19 427.965 1070.82L428.044 1070.45C426.308 1070.08 424.575 1069.7 422.845 1069.31L422.762 1069.68C421.031 1069.3 419.303 1068.9 417.578 1068.5L417.665 1068.13C415.941 1067.72 414.221 1067.31 412.504 1066.89L412.414 1067.26C410.695 1066.84 408.98 1066.41 407.268 1065.98L407.362 1065.61C405.643 1065.17 403.927 1064.72 402.214 1064.27L402.116 1064.64C400.4 1064.18 398.687 1063.72 396.977 1063.24L397.078 1062.88C395.37 1062.41 393.665 1061.93 391.963 1061.44L391.858 1061.8C390.155 1061.32 388.456 1060.82 386.76 1060.31L386.868 1059.95C385.174 1059.45 383.482 1058.93 381.795 1058.41L381.682 1058.78C379.986 1058.25 378.294 1057.72 376.605 1057.18L376.72 1056.82C375.03 1056.28 373.344 1055.73 371.661 1055.18L371.542 1055.54C369.857 1054.98 368.177 1054.42 366.5 1053.85L366.623 1053.49C364.948 1052.91 363.276 1052.33 361.608 1051.75L361.481 1052.11C359.812 1051.52 358.147 1050.92 356.485 1050.32L356.615 1049.96C354.948 1049.35 353.285 1048.74 351.626 1048.12L351.493 1048.48C349.831 1047.85 348.172 1047.22 346.518 1046.58L346.655 1046.23C345.002 1045.59 343.353 1044.94 341.707 1044.29L341.567 1044.64C339.921 1043.99 338.278 1043.33 336.64 1042.66L336.784 1042.31C335.146 1041.64 333.513 1040.96 331.884 1040.27L331.736 1040.62C330.101 1039.94 328.469 1039.24 326.842 1038.54L326.993 1038.19C325.365 1037.48 323.741 1036.77 322.122 1036.05L321.967 1036.4C320.347 1035.68 318.731 1034.96 317.118 1034.22L317.276 1033.87C315.665 1033.14 314.058 1032.4 312.456 1031.65L312.295 1031.99C310.691 1031.24 309.092 1030.49 307.497 1029.72L307.661 1029.38C306.063 1028.61 304.469 1027.84 302.879 1027.05L302.711 1027.39C301.119 1026.61 299.532 1025.82 297.949 1025.02L298.12 1024.68C296.538 1023.88 294.961 1023.08 293.388 1022.27L293.214 1022.6C291.64 1021.79 290.07 1020.97 288.505 1020.14L288.683 1019.81C287.119 1018.98 285.56 1018.14 284.005 1017.3L283.824 1017.63C282.264 1016.79 280.709 1015.94 279.159 1015.08L279.343 1014.74C277.793 1013.88 276.248 1013.02 274.708 1012.14L274.52 1012.47C272.978 1011.6 271.441 1010.72 269.909 1009.83L270.1 1009.5C268.569 1008.61 267.043 1007.71 265.522 1006.81L265.327 1007.13C263.805 1006.23 262.287 1005.32 260.774 1004.4L260.972 1004.07C259.457 1003.15 257.946 1002.23 256.441 1001.29L256.24 1001.62C254.734 1000.68 253.232 999.737 251.736 998.788L251.939 998.467C250.444 997.518 248.953 996.561 247.468 995.598L247.261 995.917C245.774 994.953 244.293 993.982 242.816 993.004L243.026 992.687C241.551 991.71 240.08 990.725 238.614 989.734L238.401 990.049C236.932 989.055 235.469 988.054 234.01 987.046L234.226 986.733C232.769 985.726 231.316 984.712 229.869 983.691L229.65 984.001C228.202 982.98 226.759 981.951 225.321 980.915L225.543 980.607C224.107 979.572 222.675 978.53 221.249 977.482L221.024 977.788C219.597 976.739 218.175 975.682 216.758 974.619L216.986 974.315C215.569 973.251 214.157 972.181 212.751 971.104L212.52 971.406C211.112 970.328 209.711 969.243 208.314 968.152L208.548 967.853C207.153 966.762 205.763 965.665 204.378 964.561L204.141 964.858C202.756 963.754 201.376 962.642 200.002 961.524L200.242 961.229C198.868 960.112 197.5 958.988 196.138 957.857L195.895 958.15C194.531 957.018 193.172 955.879 191.82 954.734L192.065 954.444C190.713 953.3 189.367 952.149 188.027 950.992L187.778 951.279C186.437 950.121 185.101 948.957 183.771 947.786L184.023 947.5C182.694 946.33 181.37 945.153 180.053 943.97L179.799 944.253C178.481 943.069 177.168 941.879 175.861 940.682L176.118 940.402C174.812 939.206 173.512 938.003 172.217 936.794L171.958 937.072C170.663 935.862 169.373 934.647 168.09 933.424L168.352 933.149C167.07 931.928 165.793 930.7 164.523 929.467L164.258 929.739C162.987 928.505 161.722 927.264 160.463 926.017L160.73 925.747C159.472 924.501 158.22 923.249 156.974 921.99L156.704 922.258C155.457 920.999 154.216 919.734 152.981 918.462L153.254 918.198C152.02 916.927 150.793 915.651 149.572 914.368L149.296 914.631C148.074 913.347 146.858 912.058 145.648 910.763L145.926 910.503C144.718 909.209 143.515 907.909 142.319 906.603L142.038 906.859C140.842 905.553 139.651 904.24 138.467 902.922L138.75 902.667C137.567 901.35 136.391 900.027 135.22 898.698L134.935 898.949C133.764 897.62 132.599 896.284 131.441 894.942L131.729 894.694C130.572 893.354 129.421 892.007 128.277 890.655L127.986 890.901C126.841 889.548 125.703 888.19 124.571 886.826L124.863 886.583C123.733 885.22 122.609 883.852 121.491 882.479L121.196 882.719C120.078 881.344 118.967 879.965 117.862 878.579L118.16 878.342C117.056 876.958 115.959 875.568 114.868 874.172L114.569 874.406C113.477 873.01 112.393 871.608 111.315 870.201L111.617 869.97C110.54 868.563 109.469 867.151 108.406 865.734L108.102 865.963C107.038 864.546 105.982 863.124 104.933 861.697L105.239 861.471C104.19 860.045 103.149 858.614 102.114 857.177L101.805 857.399C100.77 855.962 99.741 854.519 98.7193 853.071L99.03 852.852C98.0089 851.404 96.9948 849.952 95.9876 848.494L95.6748 848.711C94.6669 847.252 93.666 845.788 92.6722 844.319L92.9871 844.106C91.9956 842.641 91.0111 841.17 90.0336 839.695L89.7166 839.904C88.7385 838.428 87.7675 836.946 86.8036 835.46L87.1227 835.253C86.1594 833.767 85.2033 832.277 84.2543 830.781L83.9332 830.985C82.9835 829.488 82.041 827.987 81.1057 826.48L81.4287 826.28C80.4941 824.774 79.5666 823.264 78.6464 821.749L78.3214 821.946C77.4026 820.433 76.491 818.916 75.5866 817.393L75.9135 817.199C75.0098 815.678 74.1133 814.151 73.2242 812.62L72.8954 812.811C72.0056 811.279 71.1231 809.742 70.2479 808.201L70.5786 808.013C69.7041 806.473 68.8369 804.928 67.9771 803.378L67.6445 803.562C66.7844 802.012 65.9316 800.456 65.0863 798.897L65.4206 798.716C64.578 797.161 63.7428 795.602 62.9151 794.038L62.579 794.216C61.7507 792.651 60.9298 791.081 60.1164 789.507L60.4542 789.333C59.6414 787.76 58.8361 786.182 58.0383 784.601L57.6988 784.772C56.9005 783.189 56.1097 781.602 55.3265 780.01L55.6676 779.842C54.8854 778.252 54.1108 776.658 53.3438 775.06L53.001 775.224C52.2356 773.629 51.4778 772.03 50.7277 770.426L51.0721 770.265C50.3225 768.663 49.5806 767.056 48.8463 765.445L48.5003 765.603C47.7654 763.99 47.0383 762.374 46.3189 760.754L46.6664 760.599C45.9475 758.98 45.2363 757.356 44.5328 755.729L44.1838 755.879C43.4805 754.252 42.7849 752.62 42.0971 750.985L42.4477 750.837C41.7626 749.208 41.0853 747.575 40.4158 745.938L40.0639 746.081C39.3939 744.443 38.7317 742.801 38.0774 741.154L38.4307 741.014C37.7769 739.368 37.1308 737.719 36.4927 736.066L36.138 736.203C35.4994 734.549 34.8686 732.89 34.2459 731.228L34.6019 731.095C33.9803 729.436 33.3666 727.773 32.7609 726.106L32.4035 726.236C31.7996 724.575 31.2036 722.909 30.6155 721.24L30.9741 721.113C30.3865 719.445 29.8067 717.773 29.235 716.098L28.8751 716.221C28.303 714.544 27.7389 712.864 27.1828 711.18L27.5438 711.06C26.9881 709.377 26.4405 707.691 25.9009 706.001L25.5387 706.116C24.9994 704.427 24.4683 702.735 23.9452 701.039L24.3086 700.927C23.7882 699.239 23.2757 697.548 22.7714 695.853L22.407 695.961C21.9023 694.265 21.4057 692.566 20.9172 690.863L21.2827 690.758C20.7946 689.057 20.3146 687.351 19.8427 685.643L19.4762 685.744C19.004 684.035 18.54 682.321 18.0843 680.605L18.4518 680.507C17.997 678.795 17.5504 677.079 17.112 675.359L16.7435 675.453C16.3071 673.741 15.8788 672.026 15.4587 670.308L15.828 670.217C15.4082 668.5 14.9966 666.78 14.5932 665.056L14.223 665.143C13.8193 663.418 13.4239 661.69 13.0368 659.959L13.4079 659.876C13.021 658.146 12.6424 656.414 12.2722 654.677L11.9003 654.757C11.5303 653.022 11.1685 651.283 10.8151 649.542L11.1878 649.467C10.8369 647.737 10.4942 646.005 10.1597 644.27L9.78637 644.342C9.45173 642.605 9.12539 640.866 8.80738 639.124L9.18144 639.056C8.86366 637.315 8.55421 635.571 8.25313 633.824L7.87841 633.888C7.57712 632.14 7.28422 630.389 6.99973 628.636L7.37506 628.575C7.09094 626.823 6.81524 625.069 6.54798 623.312L6.17206 623.369C5.9067 621.625 5.64967 619.877 5.40101 618.127L5.77747 618.074C5.52899 616.325 5.28887 614.574 5.05714 612.82L4.68018 612.869C4.44829 611.114 4.22481 609.356 4.00978 607.596L4.38722 607.549C4.17235 605.79 3.96591 604.028 3.76797 602.264L3.3901 602.306C3.19201 600.54 3.00242 598.772 2.82136 597.001L3.19963 596.963C3.02029 595.209 2.84934 593.452 2.68679 591.693L2.30817 591.728C2.14562 589.969 1.99149 588.208 1.84581 586.444L2.22476 586.413C2.07918 584.65 1.94205 582.885 1.81341 581.118L1.43417 581.145C1.30544 579.377 1.18521 577.606 1.07351 575.833L1.453 575.809C1.34138 574.037 1.23828 572.262 1.14376 570.486L0.764054 570.506C0.670211 568.742 0.584809 566.976 0.507887 565.208L0.887768 565.191C0.811111 563.429 0.742882 561.665 0.683121 559.898L0.303098 559.911C0.243296 558.143 0.191968 556.373 0.149153 554.601L0.529283 554.592C0.486497 552.821 0.452219 551.048 0.426488 549.273L0.0462879 549.279C0.0205391 547.503 0.00334287 545.724 -0.00526134 543.944L0.374974 543.942C0.370674 543.052 0.368521 542.162 0.368521 541.271C0.368521 540.381 0.370673 539.491 0.374971 538.601L-0.00526489 538.599C0.00333701 536.819 0.020531 535.041 0.0462777 533.264L0.426477 533.27C0.452206 531.495 0.486482 529.722 0.529265 527.951L0.149137 527.942C0.191949 526.17 0.243275 524.4 0.303075 522.632L0.683097 522.645C0.742856 520.878 0.811083 519.114 0.887738 517.352L0.507858 517.335C0.584778 515.567 0.670179 513.801 0.764022 512.037L1.14372 512.057C1.23824 510.281 1.34134 508.506 1.45296 506.734L1.07347 506.71C1.18517 504.937 1.3054 503.166 1.43413 501.398L1.81337 501.425C1.942 499.658 2.07913 497.893 2.22471 496.13L1.84576 496.099C1.99144 494.335 2.14557 492.574 2.30811 490.815L2.68674 490.85C2.84928 489.091 3.02024 487.334 3.19957 485.58L2.82131 485.542C3.00236 483.771 3.19196 482.003 3.39004 480.237L3.76791 480.279C3.96585 478.515 4.17228 476.753 4.38716 474.993L4.00973 474.947C4.22475 473.187 4.44823 471.429 4.68011 469.673L5.05708 469.723C5.2888 467.969 5.52892 466.218 5.77741 464.469L5.40095 464.415C5.64961 462.665 5.90664 460.918 6.17199 459.174L6.54791 459.231C6.81517 457.474 7.09088 455.719 7.375 453.968L6.99966 453.907C7.28415 452.153 7.57706 450.402 7.87835 448.654L8.25306 448.719C8.55414 446.972 8.86359 445.228 9.18137 443.487L8.80732 443.419C9.12533 441.677 9.45167 439.937 9.78632 438.201L10.1597 438.273C10.4941 436.538 10.8368 434.805 11.1877 433.076L10.8151 433C11.1685 431.259 11.5302 429.521 11.9003 427.786L12.2721 427.865C12.6424 426.129 13.021 424.396 13.4078 422.666L13.0367 422.583C13.4239 420.852 13.8193 419.124 14.2229 417.4L14.5932 417.486C14.9965 415.763 15.4082 414.042 15.828 412.325L15.4586 412.235C15.8787 410.516 16.307 408.801 16.7435 407.089L17.1119 407.183C17.5503 405.464 17.9969 403.748 18.4517 402.035L18.0842 401.938C18.54 400.221 19.004 398.508 19.4762 396.798L19.8427 396.9C20.3145 395.191 20.7945 393.486 21.2826 391.784L20.9171 391.679C21.4056 389.977 21.9022 388.277 22.4069 386.581L22.7714 386.69C23.2757 384.995 23.7881 383.304 24.3086 381.616L23.9452 381.504C24.4683 379.808 24.9994 378.115 25.5386 376.426L25.9009 376.542C26.4404 374.852 26.9881 373.165 27.5438 371.482L27.1827 371.363C27.7388 369.679 28.303 367.998 28.8751 366.322L29.235 366.444C29.8067 364.769 30.3864 363.097 30.9741 361.429L30.6155 361.303C31.2035 359.633 31.7996 357.968 32.4035 356.306L32.7609 356.436C33.3666 354.769 33.9803 353.106 34.6019 351.447L34.2458 351.314C34.8686 349.652 35.4993 347.994 36.1379 346.339L36.4927 346.476C37.1308 344.823 37.7769 343.174 38.4307 341.529L38.0774 341.388C38.7317 339.742 39.3939 338.099 40.0639 336.461L40.4158 336.605C41.0853 334.968 41.7626 333.334 42.4477 331.705L42.0971 331.558C42.7849 329.922 43.4805 328.29 44.1838 326.663L44.5328 326.814C45.2363 325.186 45.9475 323.562 46.6664 321.943L46.3189 321.789C47.0383 320.168 47.7655 318.552 48.5003 316.94L48.8463 317.097C49.5806 315.486 50.3226 313.88 51.0722 312.277L50.7277 312.116C51.4779 310.512 52.2356 308.913 53.001 307.318L53.3438 307.483C54.1108 305.884 54.8855 304.29 55.6677 302.7L55.3265 302.532C56.1097 300.941 56.9005 299.353 57.6989 297.77L58.0384 297.941C58.8362 296.36 59.6415 294.782 60.4543 293.209L60.1165 293.035C60.9299 291.461 61.7508 289.891 62.5791 288.327L62.9152 288.504C63.7429 286.941 64.5781 285.381 65.4207 283.827L65.0864 283.645C65.9317 282.086 66.7845 280.53 67.6447 278.98L67.9772 279.164C68.837 277.615 69.7042 276.069 70.5787 274.529L70.248 274.341C71.1232 272.8 72.0057 271.263 72.8955 269.731L73.2243 269.922C74.1135 268.391 75.01 266.864 75.9137 265.343L75.5868 265.149C76.4911 263.626 77.4027 262.109 78.3215 260.596L78.6465 260.793C79.5668 259.278 80.4942 257.768 81.4289 256.262L81.1059 256.062C82.0412 254.555 82.9837 253.054 83.9334 251.557L84.2545 251.761C85.2035 250.265 86.1596 248.775 87.1229 247.289L86.8038 247.082C87.7678 245.596 88.7388 244.114 89.7168 242.637L90.0338 242.847C91.0113 241.372 91.9959 239.901 92.9874 238.436L92.6725 238.223C93.6663 236.754 94.6672 235.29 95.6751 233.831L95.9879 234.048C96.9951 232.59 98.0092 231.138 99.0303 229.69L98.7196 229.471C99.7414 228.023 100.77 226.58 101.806 225.142L102.114 225.365C103.149 223.928 104.191 222.497 105.239 221.071L104.933 220.845C105.982 219.418 107.039 217.996 108.102 216.579L108.406 216.808C109.47 215.39 110.54 213.979 111.617 212.572L111.315 212.341C112.393 210.934 113.478 209.532 114.569 208.135L114.868 208.37C115.959 206.974 117.056 205.584 118.16 204.2L117.863 203.963C118.967 202.577 120.079 201.198 121.197 199.823L121.492 200.063C122.609 198.69 123.733 197.322 124.864 195.959L124.571 195.716C125.703 194.352 126.842 192.994 127.987 191.641L128.277 191.887C129.421 190.535 130.572 189.188 131.73 187.848L131.442 187.599C132.6 186.258 133.764 184.922 134.935 183.593L135.221 183.844C136.391 182.515 137.568 181.192 138.751 179.874L138.468 179.62C139.652 178.302 140.842 176.989 142.039 175.683L142.319 175.939C143.515 174.633 144.718 173.333 145.927 172.039L145.649 171.779C146.859 170.484 148.074 169.195 149.297 167.911L149.572 168.174C150.793 166.891 152.021 165.615 153.255 164.344L152.982 164.079C154.216 162.808 155.457 161.543 156.704 160.284L156.974 160.551C158.22 159.293 159.472 158.041 160.731 156.795L160.463 156.525C161.722 155.278 162.987 154.037 164.259 152.803L164.524 153.075C165.794 151.842 167.07 150.614 168.353 149.393L168.09 149.117C169.374 147.895 170.663 146.679 171.958 145.47L172.218 145.748C173.512 144.539 174.812 143.336 176.119 142.14L175.862 141.86C177.168 140.663 178.481 139.473 179.799 138.289L180.054 138.572C181.371 137.389 182.694 136.212 184.023 135.042L183.772 134.756C185.102 133.585 186.437 132.421 187.779 131.263L188.027 131.55C189.368 130.393 190.714 129.242 192.066 128.098L191.82 127.808C193.173 126.663 194.531 125.524 195.896 124.392L196.138 124.685C197.501 123.554 198.869 122.43 200.242 121.313L200.002 121.018C201.377 119.9 202.757 118.788 204.142 117.684L204.379 117.981C205.763 116.877 207.153 115.78 208.549 114.689L208.315 114.39C209.711 113.299 211.113 112.214 212.52 111.136L212.751 111.438C214.158 110.361 215.57 109.291 216.987 108.227L216.759 107.923C218.175 106.86 219.597 105.803 221.025 104.754L221.25 105.06C222.676 104.012 224.107 102.97 225.544 101.935L225.322 101.627C226.759 100.591 228.202 99.5623 229.65 98.5406L229.87 98.8513C231.317 97.8302 232.769 96.8161 234.227 95.8089L234.01 95.4961C235.469 94.4882 236.933 93.4873 238.402 92.4935L238.615 92.8084C240.08 91.8169 241.551 90.8324 243.027 89.8549L242.817 89.5379C244.293 88.5598 245.775 87.5888 247.261 86.6249L247.468 86.9439C248.954 85.9807 250.444 85.0246 251.94 84.0756L251.736 83.7545C253.233 82.8048 254.734 81.8623 256.241 80.927L256.441 81.25C257.947 80.3154 259.457 79.3879 260.972 78.4677L260.775 78.1427C262.288 77.2239 263.805 76.3123 265.328 75.4079L265.522 75.7348C267.043 74.8311 268.57 73.9346 270.101 73.0455L269.91 72.7167C271.442 71.8269 272.979 70.9444 274.52 70.0692L274.708 70.3999C276.248 69.5254 277.793 68.6581 279.343 67.7983L279.159 67.4658C280.709 66.6057 282.265 65.7529 283.824 64.9076L284.005 65.2419C285.56 64.3993 287.119 63.5641 288.683 62.7364L288.505 62.4003C290.07 61.572 291.64 60.7511 293.214 59.9377L293.388 60.2755C294.961 59.4627 296.539 58.6574 298.12 57.8596L297.949 57.5201C299.532 56.7218 301.119 55.931 302.711 55.1478L302.879 55.4889C304.469 54.7067 306.063 53.9321 307.661 53.1651L307.497 52.8223C309.092 52.0569 310.691 51.2991 312.295 50.549L312.456 50.8934C314.058 50.1438 315.665 49.4018 317.276 48.6675L317.118 48.3216C318.731 47.5867 320.347 46.8596 321.967 46.1402L322.122 46.4877C323.741 45.7688 325.365 45.0575 326.993 44.3541L326.842 44.0051C328.469 43.3018 330.101 42.6062 331.736 41.9184L331.884 42.269C333.513 41.5839 335.146 40.9066 336.784 40.2371L336.64 39.8852C338.278 39.2152 339.921 38.553 341.567 37.8987L341.707 38.252C343.353 37.5982 345.002 36.9521 346.655 36.314L346.518 35.9593C348.172 35.3206 349.831 34.6899 351.493 34.0672L351.626 34.4232C353.285 33.8016 354.948 33.1879 356.615 32.5822L356.485 32.2248C358.146 31.6209 359.812 31.0248 361.481 30.4368L361.608 30.7954C363.276 30.2077 364.948 29.628 366.623 29.0563L366.5 28.6964C368.177 28.1243 369.857 27.5602 371.541 27.0041L371.661 27.3651C373.344 26.8094 375.03 26.2618 376.72 25.7222L376.605 25.36C378.294 24.8207 379.986 24.2896 381.682 23.7665L381.794 24.1299C383.482 23.6094 385.173 23.097 386.868 22.5927L386.76 22.2282C388.456 21.7236 390.155 21.227 391.858 20.7385L391.963 21.104C393.664 20.6158 395.37 20.1358 397.078 19.664L396.977 19.2975C398.687 18.8253 400.4 18.3613 402.116 17.9056L402.214 18.2731C403.926 17.8183 405.642 17.3716 407.362 16.9333L407.268 16.5648C408.98 16.1284 410.695 15.7001 412.413 15.28L412.504 15.6493C414.221 15.2295 415.941 14.8179 417.665 14.4145L417.578 14.0443C419.303 13.6406 421.031 13.2452 422.762 12.8581L422.845 13.2292C424.575 12.8423 426.307 12.4637 428.044 12.0935L427.964 11.7216C429.699 11.3516 431.438 10.9898 433.179 10.6364L433.254 11.0091C434.984 10.6581 436.716 10.3154 438.451 9.98103L438.379 9.60767C440.116 9.27303 441.855 8.94668 443.597 8.62867L443.665 9.00273C445.406 8.68495 447.15 8.3755 448.897 8.07442L448.833 7.69971C450.581 7.39842 452.332 7.1055 454.085 6.82102L454.146 7.19635C455.898 6.91223 457.652 6.63652 459.409 6.36927L459.352 5.99335C461.096 5.728 462.844 5.47097 464.594 5.22231L464.647 5.59876C466.396 5.35028 468.147 5.11015 469.901 4.87843L469.852 4.50147C471.607 4.26958 473.365 4.0461 475.125 3.83108L475.172 4.20851C476.931 3.99363 478.693 3.7872 480.457 3.58926L480.415 3.21139C482.181 3.01331 483.949 2.82371 485.72 2.64265L485.758 3.02092C487.512 2.84158 489.269 2.67062 491.028 2.50808L490.993 2.12946C492.752 1.96691 494.513 1.81278 496.277 1.6671L496.308 2.04605C498.071 1.90047 499.836 1.76334 501.603 1.6347L501.576 1.25546C503.344 1.12674 505.115 1.0065 506.888 0.894801L506.912 1.27429C508.684 1.16266 510.459 1.05957 512.235 0.965048L512.215 0.585346C513.979 0.491502 515.745 0.406099 517.513 0.329177L517.53 0.709057C519.292 0.6324 521.057 0.564171 522.823 0.50441L522.81 0.124388C524.578 0.0645862 526.348 0.0132583 528.12 -0.0295564L528.129 0.350572C529.9 0.307786 531.673 0.273508 533.448 0.247777L533.442 -0.132422C535.219 -0.158171 536.997 -0.175368 538.777 -0.183972L538.779 0.196263C539.669 0.191963 540.559 0.18981 541.45 0.18981C542.34 0.18981 543.23 0.191962 544.12 0.19626L544.122 -0.183976C545.902 -0.175374 547.681 -0.15818 549.457 -0.132434L549.451 0.247766C551.226 0.273495 552.999 0.307771 554.77 0.350554L554.779 -0.0295755C556.551 0.0132371 558.321 0.0645632 560.089 0.124363L560.076 0.504386C561.843 0.564145 563.607 0.632372 565.369 0.709027L565.386 0.329146C567.154 0.406065 568.92 0.491466 570.684 0.585308L570.664 0.965012C572.44 1.05953 574.215 1.16262 575.987 1.27425L576.011 0.894757C577.784 1.00646 579.555 1.12669 581.323 1.25542L581.296 1.63466C583.063 1.76329 584.828 1.90042 586.591 2.046L586.622 1.66705C588.386 1.81272 590.147 1.96686 591.906 2.1294L591.871 2.50803C593.63 2.67057 595.387 2.84153 597.141 3.02086L597.179 2.64259C598.95 2.82365 600.719 3.01324 602.484 3.21133L602.442 3.5892C604.206 3.78714 605.968 3.99357 607.728 4.20845L607.774 3.83101C609.534 4.04604 611.292 4.26951 613.048 4.5014L612.998 4.87837C614.752 5.11009 616.503 5.35021 618.252 5.5987L618.306 5.22224C620.056 5.4709 621.803 5.72793 623.547 5.99328L623.49 6.3692C625.247 6.63646 627.002 6.91217 628.753 7.19629L628.814 6.82095C630.568 7.10543 632.319 7.39834 634.067 7.69963L634.002 8.07435C635.749 8.37543 637.493 8.68488 639.234 9.00266L639.302 8.6286C641.044 8.94661 642.784 9.27296 644.52 9.6076L644.448 9.98097C646.183 10.3154 647.916 10.6581 649.645 11.009L649.721 10.6364C651.462 10.9898 653.2 11.3515 654.935 11.7215L654.856 12.0934C656.592 12.4637 658.325 12.8422 660.055 13.2291L660.138 12.858C661.869 13.2451 663.597 13.6406 665.322 14.0442L665.235 14.4145C666.958 14.8178 668.679 15.2294 670.396 15.6493L670.486 15.2799C672.205 15.7 673.92 16.1283 675.632 16.5648L675.538 16.9332C677.257 17.3716 678.973 17.8182 680.686 18.273L680.784 17.9055C682.5 18.3613 684.213 18.8253 685.923 19.2974L685.822 19.664C687.53 20.1358 689.235 20.6158 690.937 21.1039L691.042 20.7384C692.745 21.2269 694.444 21.7235 696.14 22.2282L696.031 22.5927C697.726 23.097 699.417 23.6094 701.105 24.1299L701.217 23.7665C702.913 24.2895 704.606 24.8207 706.295 25.3599L706.179 25.7221C707.87 26.2617 709.556 26.8094 711.239 27.3651L711.358 27.004C713.042 27.5601 714.723 28.1243 716.399 28.6964L716.277 29.0563C717.952 29.628 719.624 30.2077 721.292 30.7954L721.418 30.4367C723.088 31.0248 724.753 31.6208 726.415 32.2248L726.285 32.5822C727.952 33.1879 729.615 33.8016 731.274 34.4232L731.407 34.0671C733.069 34.6899 734.727 35.3206 736.382 35.9592L736.245 36.314C737.898 36.9521 739.547 37.5981 741.192 38.252L741.333 37.8987C742.979 38.553 744.622 39.2152 746.26 39.8851L746.116 40.2371C747.754 40.9066 749.387 41.5839 751.016 42.269L751.163 41.9184C752.799 42.6062 754.431 43.3018 756.058 44.0051L755.907 44.3541C757.535 45.0576 759.159 45.7688 760.778 46.4877L760.932 46.1402C762.553 46.8596 764.169 47.5867 765.781 48.3216L765.624 48.6676C767.235 49.4019 768.841 50.1438 770.444 50.8935L770.605 50.549C772.209 51.2992 773.808 52.0569 775.403 52.8223L775.238 53.1651C776.837 53.9321 778.431 54.7068 780.021 55.489L780.189 55.1478C781.781 55.931 783.368 56.7218 784.951 57.5202L784.78 57.8597C786.361 58.6575 787.939 59.4628 789.512 60.2756L789.686 59.9378C791.26 60.7512 792.83 61.5721 794.395 62.4004L794.217 62.7364C795.78 63.5642 797.34 64.3994 798.894 65.242L799.076 64.9076C800.635 65.753 802.191 66.6058 803.741 67.4659L803.557 67.7985C805.106 68.6583 806.652 69.5255 808.192 70.4L808.38 70.0693C809.921 70.9445 811.458 71.827 812.99 72.7168L812.799 73.0456C814.33 73.9348 815.857 74.8313 817.378 75.735L817.572 75.408C819.095 76.3124 820.612 77.224 822.125 78.1428L821.928 78.4678C823.443 79.3881 824.953 80.3155 826.459 81.2502L826.659 80.9271C828.166 81.8625 829.667 82.805 831.164 83.7547L830.96 84.0758C832.456 85.0248 833.946 85.9809 835.432 86.9442L835.639 86.6251C837.125 87.589 838.607 88.5601 840.084 89.5381L839.874 89.8551C841.349 90.8326 842.82 91.8171 844.285 92.8087L844.498 92.4937C845.967 93.4876 847.431 94.4885 848.89 95.4964L848.674 95.8092C850.131 96.8164 851.583 97.8305 853.031 98.8516L853.25 98.5409C854.698 99.5626 856.141 100.591 857.579 101.627L857.356 101.935C858.793 102.97 860.224 104.012 861.65 105.061L861.876 104.754C863.303 105.804 864.725 106.86 866.142 107.923L865.913 108.227C867.331 109.291 868.742 110.361 870.149 111.438L870.38 111.136C871.787 112.214 873.189 113.299 874.586 114.39L874.352 114.69C875.747 115.78 877.137 116.878 878.521 117.981L878.758 117.684C880.144 118.789 881.523 119.9 882.898 121.018L882.658 121.313C884.031 122.43 885.399 123.554 886.762 124.685L887.005 124.392C888.369 125.524 889.727 126.663 891.08 127.808L890.835 128.098C892.186 129.243 893.533 130.393 894.873 131.551L895.122 131.263C896.463 132.421 897.799 133.586 899.129 134.757L898.877 135.042C900.206 136.212 901.529 137.389 902.847 138.572L903.101 138.289C904.419 139.473 905.732 140.663 907.038 141.86L906.782 142.141C908.088 143.337 909.388 144.539 910.682 145.748L910.942 145.47C912.237 146.68 913.526 147.896 914.81 149.118L914.547 149.393C915.83 150.615 917.106 151.842 918.377 153.076L918.642 152.803C919.913 154.038 921.178 155.278 922.437 156.525L922.17 156.795C923.428 158.041 924.68 159.294 925.926 160.552L926.196 160.284C927.443 161.543 928.684 162.809 929.918 164.08L929.646 164.345C930.879 165.615 932.107 166.892 933.328 168.174L933.604 167.912C934.826 169.195 936.042 170.484 937.251 171.78L936.973 172.039C938.182 173.333 939.385 174.634 940.581 175.94L940.861 175.683C942.058 176.99 943.248 178.302 944.432 179.621L944.15 179.875C945.333 181.192 946.509 182.515 947.679 183.844L947.965 183.593C949.136 184.923 950.3 186.258 951.458 187.6L951.171 187.848C952.328 189.189 953.479 190.535 954.623 191.887L954.913 191.641C956.058 192.994 957.197 194.353 958.329 195.717L958.036 195.96C959.167 197.322 960.291 198.69 961.408 200.064L961.703 199.824C962.821 201.198 963.933 202.578 965.037 203.963L964.74 204.2C965.844 205.585 966.941 206.975 968.032 208.37L968.331 208.136C969.423 209.532 970.507 210.934 971.585 212.342L971.283 212.573C972.36 213.979 973.43 215.391 974.494 216.808L974.798 216.58C975.861 217.996 976.918 219.418 977.967 220.846L977.661 221.071C978.709 222.497 979.751 223.928 980.786 225.365L981.094 225.143C982.13 226.581 983.159 228.023 984.18 229.472L983.87 229.691C984.891 231.138 985.905 232.59 986.912 234.048L987.225 233.832C988.233 235.29 989.234 236.754 990.228 238.223L989.913 238.436C990.904 239.902 991.889 241.372 992.866 242.848L993.183 242.638C994.161 244.114 995.132 245.596 996.096 247.083L995.777 247.289C996.74 248.775 997.696 250.266 998.645 251.761L998.967 251.557C999.916 253.054 1000.86 254.555 1001.79 256.062L1001.47 256.263C1002.41 257.768 1003.33 259.278 1004.25 260.793L1004.58 260.596C1005.5 262.109 1006.41 263.627 1007.31 265.149L1006.99 265.343C1007.89 266.865 1008.79 268.391 1009.68 269.922L1010 269.731C1010.89 271.263 1011.78 272.8 1012.65 274.341L1012.32 274.529C1013.2 276.07 1014.06 277.615 1014.92 279.165L1015.26 278.98C1016.12 280.531 1016.97 282.086 1017.81 283.646L1017.48 283.827C1018.32 285.381 1019.16 286.941 1019.98 288.505L1020.32 288.327C1021.15 289.892 1021.97 291.461 1022.78 293.035L1022.45 293.21C1023.26 294.782 1024.06 296.36 1024.86 297.942L1025.2 297.77C1026 299.353 1026.79 300.941 1027.57 302.532L1027.23 302.7C1028.01 304.29 1028.79 305.884 1029.56 307.483L1029.9 307.318C1030.66 308.913 1031.42 310.513 1032.17 312.116L1031.83 312.277C1032.58 313.88 1033.32 315.486 1034.05 317.097L1034.4 316.94C1035.13 318.552 1035.86 320.168 1036.58 321.789L1036.23 321.943C1036.95 323.562 1037.66 325.186 1038.37 326.814L1038.72 326.663C1039.42 328.29 1040.11 329.922 1040.8 331.558L1040.45 331.705C1041.14 333.334 1041.81 334.967 1042.48 336.605L1042.84 336.461C1043.51 338.099 1044.17 339.742 1044.82 341.388L1044.47 341.529C1045.12 343.174 1045.77 344.823 1046.41 346.476L1046.76 346.339C1047.4 347.994 1048.03 349.652 1048.65 351.314L1048.3 351.447C1048.92 353.106 1049.53 354.769 1050.14 356.436L1050.5 356.306C1051.1 357.968 1051.7 359.633 1052.28 361.303L1051.93 361.429C1052.51 363.097 1053.09 364.769 1053.66 366.444L1054.02 366.322C1054.6 367.998 1055.16 369.679 1055.72 371.363L1055.36 371.482C1055.91 373.165 1056.46 374.851 1057 376.542L1057.36 376.426C1057.9 378.115 1058.43 379.807 1058.95 381.504L1058.59 381.616C1059.11 383.303 1059.62 384.995 1060.13 386.689L1060.49 386.581C1061 388.277 1061.49 389.976 1061.98 391.679L1061.62 391.784C1062.11 393.486 1062.59 395.191 1063.06 396.899L1063.42 396.798C1063.9 398.508 1064.36 400.221 1064.82 401.937L1064.45 402.035C1064.9 403.748 1065.35 405.464 1065.79 407.183L1066.16 407.089C1066.59 408.801 1067.02 410.516 1067.44 412.235L1067.07 412.325C1067.49 414.042 1067.9 415.762 1068.31 417.486L1068.68 417.399C1069.08 419.124 1069.48 420.852 1069.86 422.583L1069.49 422.666C1069.88 424.396 1070.26 426.129 1070.63 427.865L1071 427.786C1071.37 429.521 1071.73 431.259 1072.08 433L1071.71 433.076C1072.06 434.805 1072.41 436.537 1072.74 438.272L1073.11 438.2C1073.45 439.937 1073.77 441.676 1074.09 443.418L1073.72 443.487C1074.04 445.228 1074.35 446.972 1074.65 448.719L1075.02 448.654C1075.32 450.402 1075.62 452.153 1075.9 453.907L1075.52 453.968C1075.81 455.719 1076.08 457.473 1076.35 459.23L1076.73 459.173C1076.99 460.918 1077.25 462.665 1077.5 464.415L1077.12 464.468C1077.37 466.217 1077.61 467.969 1077.84 469.723L1078.22 469.673C1078.45 471.428 1078.67 473.186 1078.89 474.947L1078.51 474.993C1078.73 476.752 1078.93 478.514 1079.13 480.279L1079.51 480.236C1079.71 482.002 1079.9 483.77 1080.08 485.541L1079.7 485.58C1079.88 487.334 1080.05 489.09 1080.21 490.849L1080.59 490.814C1080.75 492.573 1080.91 494.335 1081.05 496.098L1080.67 496.13C1080.82 497.892 1080.96 499.657 1081.09 501.425L1081.47 501.397C1081.59 503.166 1081.71 504.937 1081.83 506.71L1081.45 506.734C1081.56 508.506 1081.66 510.28 1081.76 512.057L1082.14 512.036C1082.23 513.8 1082.31 515.566 1082.39 517.335L1082.01 517.351C1082.09 519.113 1082.16 520.878 1082.22 522.644L1082.6 522.631C1082.66 524.399 1082.71 526.169 1082.75 527.941L1082.37 527.95C1082.41 529.721 1082.45 531.494 1082.47 533.269L1082.85 533.264C1082.88 535.04 1082.9 536.818 1082.91 538.598L1082.52 538.6C1082.53 539.49 1082.53 540.38 1082.53 541.271C1082.53 542.162 1082.53 543.052 1082.52 543.941L1082.91 543.943C1082.9 545.724 1082.88 547.502 1082.85 549.278L1082.47 549.272C1082.45 551.047 1082.41 552.82 1082.37 554.591L1082.75 554.6C1082.71 556.372 1082.66 558.142 1082.6 559.91L1082.22 559.897C1082.16 561.664 1082.09 563.428 1082.01 565.19L1082.39 565.207C1082.32 566.975 1082.23 568.741 1082.14 570.505L1081.76 570.485C1081.66 572.262 1081.56 574.036 1081.45 575.808L1081.83 575.832C1081.71 577.605 1081.59 579.376 1081.47 581.145L1081.09 581.117C1080.96 582.884 1080.82 584.649 1080.68 586.412L1081.05 586.443C1080.91 588.207 1080.75 589.969 1080.59 591.728L1080.21 591.693C1080.05 593.451 1079.88 595.208 1079.7 596.962L1080.08 597.001C1079.9 598.772 1079.71 600.54 1079.51 602.306L1079.13 602.263C1078.93 604.028 1078.73 605.79 1078.51 607.549L1078.89 607.595C1078.68 609.356 1078.45 611.114 1078.22 612.869L1077.84 612.819C1077.61 614.573 1077.37 616.325 1077.12 618.073L1077.5 618.127C1077.25 619.877 1076.99 621.624 1076.73 623.369L1076.35 623.312C1076.08 625.069 1075.81 626.823 1075.52 628.574L1075.9 628.635C1075.62 630.389 1075.32 632.14 1075.02 633.888L1074.65 633.823C1074.51 634.634 1074.37 635.444 1074.22 636.253C1074.06 637.188 1073.89 638.122 1073.72 639.055L1074.09 639.124C1073.77 640.866 1073.45 642.605 1073.11 644.342L1072.74 644.27C1072.41 646.005 1072.06 647.737 1071.71 649.466L1072.08 649.542C1071.73 651.283 1071.37 653.021 1071 654.757L1070.63 654.677C1070.26 656.413 1069.88 658.146 1069.49 659.876L1069.86 659.959C1069.48 661.69 1069.08 663.418 1068.68 665.143L1068.31 665.056C1067.9 666.78 1067.49 668.5 1067.07 670.217L1067.44 670.308C1067.02 672.026 1066.59 673.741 1066.16 675.453L1065.79 675.359C1065.35 677.078 1064.9 678.794 1064.45 680.507L1064.82 680.605C1064.36 682.321 1063.9 684.034 1063.42 685.744L1063.06 685.643C1062.59 687.351 1062.11 689.056 1061.62 690.758L1061.98 690.863C1061.49 692.566 1061 694.265 1060.49 695.961L1060.13 695.853C1059.62 697.547 1059.11 699.239 1058.59 700.927L1058.95 701.039C1058.43 702.735 1057.9 704.427 1057.36 706.116L1057 706.001C1056.46 707.691 1055.91 709.377 1055.36 711.06L1055.72 711.18C1055.16 712.864 1054.6 714.544 1054.02 716.221L1053.66 716.098C1053.09 717.773 1052.51 719.445 1051.93 721.113L1052.28 721.24C1051.7 722.909 1051.1 724.574 1050.5 726.236L1050.14 726.106C1049.53 727.773 1048.92 729.436 1048.3 731.095L1048.65 731.228C1048.03 732.89 1047.4 734.549 1046.76 736.203L1046.41 736.066C1045.77 737.719 1045.12 739.368 1044.47 741.014L1044.82 741.154C1044.17 742.801 1043.51 744.443 1042.84 746.081L1042.48 745.938C1041.81 747.575 1041.14 749.208 1040.45 750.837L1040.8 750.985C1040.11 752.62 1039.42 754.252 1038.72 755.879L1038.37 755.729C1037.66 757.356 1036.95 758.98 1036.23 760.599L1036.58 760.754C1035.86 762.374 1035.13 763.99 1034.4 765.603L1034.05 765.445C1033.32 767.056 1032.58 768.663 1031.83 770.265L1032.17 770.426C1031.42 772.03 1030.66 773.629 1029.9 775.224L1029.56 775.06C1028.79 776.658 1028.01 778.252 1027.23 779.842L1027.57 780.01C1026.79 781.602 1026 783.189 1025.2 784.772L1024.86 784.601C1024.06 786.183 1023.26 787.76 1022.45 789.333L1022.78 789.507C1021.97 791.081 1021.15 792.651 1020.32 794.216L1019.98 794.038C1019.16 795.602 1018.32 797.161 1017.48 798.716L1017.81 798.897C1016.97 800.457 1016.12 802.012 1015.26 803.562L1014.92 803.378C1014.06 804.928 1013.2 806.473 1012.32 808.013L1012.65 808.201C1011.78 809.743 1010.89 811.28 1010 812.812L1009.68 812.621C1008.79 814.152 1007.89 815.678 1006.99 817.199L1007.31 817.394C1006.41 818.916 1005.5 820.434 1004.58 821.947L1004.25 821.749C1003.33 823.264 1002.41 824.775 1001.47 826.28L1001.79 826.481C1000.86 827.987 999.916 829.489 998.966 830.985L998.645 830.782C997.696 832.277 996.74 833.768 995.777 835.253L996.096 835.46C995.132 836.947 994.161 838.428 993.183 839.905L992.866 839.695C991.888 841.171 990.904 842.641 989.912 844.107L990.227 844.32C989.233 845.789 988.233 847.252 987.225 848.711L986.912 848.495C985.905 849.952 984.891 851.405 983.869 852.852L984.18 853.071C983.158 854.519 982.13 855.962 981.094 857.4L980.786 857.178C979.751 858.614 978.709 860.046 977.66 861.472L977.967 861.697C976.917 863.124 975.861 864.546 974.798 865.963L974.494 865.735C973.43 867.152 972.36 868.564 971.283 869.97L971.585 870.201C970.507 871.609 969.422 873.01 968.331 874.407L968.031 874.173C967.559 874.777 967.086 875.38 966.611 875.982C965.99 876.771 965.366 877.557 964.74 878.343L965.037 878.58C963.932 879.965 962.821 881.345 961.703 882.719L961.408 882.479C960.291 883.853 959.167 885.221 958.036 886.583L958.329 886.826C957.197 888.19 956.058 889.549 954.913 890.901L954.623 890.656C953.478 892.008 952.328 893.354 951.17 894.694L951.458 894.943C950.3 896.284 949.135 897.62 947.964 898.95L947.679 898.698C946.509 900.027 945.332 901.351 944.149 902.668L944.432 902.922C943.248 904.24 942.058 905.553 940.861 906.86L940.581 906.603C939.384 907.909 938.182 909.209 936.973 910.504L937.251 910.763C936.041 912.058 934.825 913.348 933.603 914.631L933.328 914.369C932.107 915.651 930.879 916.928 929.645 918.198L929.918 918.463C928.683 919.734 927.443 920.999 926.196 922.258L925.926 921.991C924.68 923.249 923.427 924.501 922.169 925.747L922.437 926.017C921.178 927.264 919.912 928.505 918.641 929.74L918.376 929.467C917.106 930.701 915.829 931.928 914.547 933.15L914.809 933.425C913.526 934.647 912.237 935.863 910.942 937.073L910.682 936.795C909.388 938.003 908.087 939.206 906.781 940.402L907.038 940.683C905.731 941.879 904.419 943.07 903.1 944.254L902.846 943.971C901.529 945.154 900.206 946.33 898.877 947.501L899.128 947.786C897.798 948.957 896.463 950.122 895.121 951.28L894.873 950.992C893.532 952.149 892.186 953.3 890.834 954.444L891.08 954.735C889.727 955.88 888.368 957.018 887.004 958.15L886.761 957.858C885.399 958.988 884.031 960.112 882.657 961.23L882.897 961.525C881.523 962.643 880.143 963.754 878.758 964.859L878.521 964.561C877.136 965.665 875.746 966.762 874.351 967.853L874.585 968.153C873.189 969.244 871.787 970.328 870.38 971.406L870.148 971.104C868.742 972.181 867.33 973.252 865.913 974.315L866.141 974.619C864.725 975.683 863.303 976.739 861.875 977.788L861.65 977.482C861.181 977.827 860.712 978.17 860.243 978.513C859.283 979.214 858.321 979.912 857.356 980.607L857.578 980.916C856.141 981.951 854.698 982.98 853.249 984.002L853.03 983.691C851.583 984.712 850.131 985.726 848.673 986.733L848.889 987.046C847.431 988.054 845.967 989.055 844.498 990.049L844.285 989.734C842.819 990.725 841.349 991.71 839.873 992.687L840.083 993.004C838.607 993.982 837.125 994.953 835.639 995.917L835.432 995.598C833.946 996.562 832.456 997.518 830.96 998.467L831.164 998.788C829.667 999.737 828.166 1000.68 826.659 1001.62L826.458 1001.29C824.953 1002.23 823.443 1003.15 821.928 1004.07L822.125 1004.4C820.612 1005.32 819.095 1006.23 817.572 1007.13L817.378 1006.81C816.838 1007.13 816.297 1007.45 815.756 1007.77C814.772 1008.35 813.787 1008.92 812.799 1009.5L812.99 1009.83C811.458 1010.72 809.921 1011.6 808.38 1012.47L808.192 1012.14C806.651 1013.02 805.106 1013.88 803.556 1014.74L803.741 1015.08C802.19 1015.94 800.635 1016.79 799.075 1017.63L798.894 1017.3C797.34 1018.14 795.78 1018.98 794.216 1019.81L794.394 1020.14C792.829 1020.97 791.26 1021.79 789.686 1022.6L789.511 1022.27C787.939 1023.08 786.361 1023.88 784.779 1024.68L784.951 1025.02C783.368 1025.82 781.78 1026.61 780.189 1027.39L780.021 1027.05C778.431 1027.84 776.837 1028.61 775.238 1029.38L775.403 1029.72C773.808 1030.49 772.209 1031.24 770.605 1031.99L770.444 1031.65C768.841 1032.4 767.235 1033.14 765.624 1033.87L765.781 1034.22C764.169 1034.96 762.553 1035.68 760.932 1036.4L760.778 1036.05C759.159 1036.77 757.535 1037.48 755.907 1038.19L756.058 1038.54C754.431 1039.24 752.799 1039.94 751.163 1040.62L751.016 1040.27C749.387 1040.96 747.754 1041.64 746.116 1042.31L746.26 1042.66C744.622 1043.33 742.979 1043.99 741.333 1044.64L741.192 1044.29C739.547 1044.94 737.898 1045.59 736.245 1046.23L736.382 1046.58C734.727 1047.22 733.069 1047.85 731.407 1048.48L731.274 1048.12C729.615 1048.74 727.952 1049.35 726.285 1049.96L726.415 1050.32C724.753 1050.92 723.088 1051.52 721.418 1052.11L721.292 1051.75C719.624 1052.33 717.952 1052.91 716.277 1053.49L716.399 1053.85C714.723 1054.42 713.042 1054.98 711.358 1055.54L711.239 1055.18C709.556 1055.73 707.87 1056.28 706.18 1056.82L706.295 1057.18C704.606 1057.72 702.914 1058.25 701.217 1058.78L701.105 1058.41C699.418 1058.93 697.726 1059.45 696.032 1059.95L696.14 1060.31C694.444 1060.82 692.745 1061.32 691.042 1061.8L690.937 1061.44C689.235 1061.93 687.53 1062.41 685.822 1062.88L685.923 1063.24C684.213 1063.72 682.5 1064.18 680.784 1064.64L680.686 1064.27C678.973 1064.72 677.257 1065.17 675.538 1065.61L675.632 1065.98C673.92 1066.41 672.205 1066.84 670.487 1067.26L670.396 1066.89C668.679 1067.31 666.959 1067.72 665.235 1068.13L665.322 1068.5C663.597 1068.9 661.869 1069.3 660.138 1069.68L660.055 1069.31C658.325 1069.7 656.592 1070.08 654.856 1070.45L654.936 1070.82C653.2 1071.19 651.462 1071.55 649.721 1071.91L649.645 1071.53C647.916 1071.88 646.184 1072.23 644.449 1072.56L644.521 1072.93C642.784 1073.27 641.045 1073.6 639.303 1073.91L639.234 1073.54C637.493 1073.86 635.749 1074.17 634.003 1074.47L634.067 1074.84C632.319 1075.14 630.568 1075.44 628.814 1075.72L628.754 1075.35C627.002 1075.63 625.248 1075.91 623.491 1076.17L623.548 1076.55C621.803 1076.81 620.056 1077.07 618.306 1077.32L618.253 1076.94C616.504 1077.19 614.752 1077.43 612.998 1077.66L613.048 1078.04C611.293 1078.27 609.535 1078.5 607.774 1078.71L607.728 1078.33C605.969 1078.55 604.207 1078.76 602.442 1078.95L602.485 1079.33C600.719 1079.53 598.951 1079.72 597.18 1079.9L597.141 1079.52C595.387 1079.7 593.631 1079.87 591.872 1080.03L591.907 1080.41C590.148 1080.58 588.386 1080.73 586.623 1080.88L586.591 1080.5C584.829 1080.64 583.064 1080.78 581.296 1080.91L581.324 1081.29C579.555 1081.42 577.785 1081.54 576.011 1081.65L575.987 1081.27C574.215 1081.38 572.441 1081.48 570.664 1081.58L570.685 1081.96C568.921 1082.05 567.155 1082.14 565.386 1082.21L565.37 1081.83C563.608 1081.91 561.843 1081.98 560.077 1082.04L560.09 1082.42C558.322 1082.48 556.552 1082.53 554.78 1082.57L554.771 1082.19C553 1082.23 551.227 1082.27 549.452 1082.29L549.457 1082.67C547.681 1082.7 545.903 1082.72 544.123 1082.73L544.121 1082.35C543.231 1082.35 542.341 1082.35 541.45 1082.35Z" stroke="#292929" stroke-width="0.76048" stroke-dasharray="5.32"/>
<path opacity="0.8" d="M541.449 939.342C540.297 939.342 539.146 939.337 537.997 939.327L537.993 939.707C535.692 939.688 533.395 939.649 531.103 939.59L531.113 939.21C528.823 939.152 526.538 939.074 524.258 938.977L524.242 939.357C521.947 939.26 519.657 939.143 517.372 939.007L517.395 938.627C515.101 938.49 512.812 938.334 510.528 938.159L510.499 938.538C508.213 938.362 505.933 938.167 503.658 937.953L503.693 937.575C501.409 937.36 499.129 937.125 496.856 936.872L496.813 937.25C494.528 936.995 492.249 936.721 489.976 936.428L490.024 936.051C487.753 935.758 485.488 935.446 483.229 935.115L483.174 935.491C480.901 935.158 478.633 934.805 476.373 934.434L476.434 934.059C474.169 933.687 471.91 933.295 469.658 932.885L469.589 933.259C467.335 932.849 465.087 932.419 462.846 931.971L462.92 931.598C460.669 931.147 458.424 930.678 456.187 930.19L456.106 930.561C453.862 930.071 451.625 929.563 449.395 929.035L449.483 928.665C447.255 928.139 445.035 927.593 442.822 927.029L442.728 927.397C440.5 926.83 438.28 926.243 436.068 925.638L436.168 925.271C433.956 924.666 431.752 924.042 429.555 923.4L429.448 923.765C427.25 923.122 425.059 922.461 422.876 921.782L422.989 921.419C420.796 920.736 418.611 920.035 416.434 919.315L416.315 919.676C414.136 918.956 411.966 918.218 409.804 917.461L409.929 917.103C407.768 916.346 405.615 915.572 403.47 914.779L403.338 915.136C401.183 914.339 399.037 913.525 396.9 912.693L397.038 912.338C394.902 911.507 392.776 910.657 390.659 909.79L390.515 910.142C388.392 909.272 386.279 908.385 384.175 907.481L384.326 907.131C382.218 906.225 380.12 905.301 378.032 904.36L377.875 904.706C375.785 903.764 373.704 902.804 371.633 901.827L371.795 901.483C369.722 900.505 367.659 899.51 365.606 898.497L365.438 898.838C363.379 897.823 361.331 896.79 359.292 895.741L359.467 895.403C357.43 894.354 355.404 893.289 353.389 892.206L353.209 892.541C351.187 891.456 349.176 890.353 347.175 889.233L347.361 888.902C345.36 887.782 343.371 886.646 341.392 885.494L341.2 885.822C339.22 884.669 337.25 883.499 335.291 882.312L335.488 881.987C333.527 880.799 331.577 879.594 329.638 878.373L329.435 878.695C327.494 877.473 325.565 876.235 323.646 874.98L323.855 874.662C321.938 873.408 320.032 872.138 318.139 870.853L317.925 871.167C316.027 869.879 314.14 868.574 312.265 867.253L312.484 866.942C310.611 865.623 308.75 864.288 306.901 862.938L306.676 863.245C304.825 861.892 302.985 860.524 301.158 859.141L301.387 858.837C299.56 857.454 297.745 856.055 295.943 854.641L295.709 854.94C293.905 853.525 292.113 852.095 290.334 850.649L290.574 850.354C288.796 848.909 287.031 847.449 285.279 845.974L285.034 846.265C283.279 844.789 281.537 843.297 279.809 841.791L280.058 841.504C278.331 839.999 276.618 838.48 274.917 836.946L274.662 837.228C272.96 835.692 271.27 834.142 269.594 832.577L269.854 832.299C268.179 830.736 266.518 829.158 264.871 827.567L264.607 827.84C262.958 826.247 261.323 824.639 259.701 823.018L259.97 822.749C258.351 821.13 256.745 819.496 255.153 817.849L254.88 818.113C253.286 816.464 251.707 814.802 250.143 813.126L250.42 812.866C248.857 811.192 247.308 809.504 245.774 807.803L245.492 808.057C243.956 806.355 242.435 804.64 240.929 802.911L241.216 802.661C239.711 800.934 238.221 799.194 236.745 797.441L236.454 797.686C234.978 795.932 233.517 794.165 232.071 792.385L232.366 792.146C230.922 790.369 229.492 788.579 228.078 786.776L227.779 787.011C226.364 785.207 224.964 783.391 223.579 781.562L223.882 781.332C222.5 779.507 221.133 777.669 219.782 775.819L219.475 776.043C218.123 774.192 216.787 772.329 215.466 770.455L215.777 770.236C214.458 768.363 213.155 766.478 211.867 764.581L211.552 764.795C210.266 762.899 208.995 760.992 207.74 759.073L208.058 758.865C206.805 756.949 205.567 755.021 204.346 753.082L204.025 753.284C202.803 751.344 201.597 749.392 200.408 747.429L200.733 747.232C199.548 745.275 198.379 743.307 197.226 741.328L196.897 741.519C195.744 739.539 194.607 737.547 193.486 735.545L193.818 735.359C192.7 733.36 191.598 731.351 190.514 729.331L190.179 729.511C189.095 727.493 188.029 725.465 186.979 723.427L187.317 723.253C186.269 721.217 185.237 719.17 184.223 717.114L183.882 717.282C182.868 715.227 181.872 713.162 180.893 711.087L181.237 710.925C180.261 708.856 179.302 706.777 178.36 704.688L178.014 704.844C177.071 702.754 176.146 700.654 175.239 698.544L175.589 698.394C174.685 696.292 173.799 694.181 172.93 692.061L172.578 692.205C171.71 690.086 170.86 687.957 170.027 685.82L170.382 685.682C169.55 683.547 168.736 681.402 167.941 679.249L167.584 679.381C166.791 677.235 166.016 675.08 165.258 672.916L165.617 672.79C164.862 670.631 164.124 668.462 163.405 666.286L163.044 666.405C162.323 664.226 161.622 662.039 160.938 659.844L161.301 659.731C160.623 657.55 159.962 655.361 159.32 653.165L158.955 653.271C158.312 651.073 157.688 648.866 157.082 646.652L157.449 646.551C156.844 644.341 156.258 642.123 155.691 639.898L155.322 639.992C154.758 637.777 154.212 635.554 153.685 633.325L154.055 633.237C153.528 631.01 153.02 628.775 152.53 626.533L152.159 626.614C151.67 624.374 151.2 622.128 150.749 619.874L151.122 619.799C150.674 617.56 150.245 615.315 149.835 613.062L149.461 613.13C149.05 610.876 148.659 608.615 148.286 606.347L148.661 606.286C148.29 604.027 147.938 601.762 147.605 599.491L147.229 599.546C146.898 597.285 146.585 595.017 146.292 592.744L146.669 592.695C146.376 590.424 146.103 588.147 145.848 585.864L145.47 585.906C145.216 583.631 144.982 581.349 144.767 579.062L145.145 579.026C144.932 576.754 144.737 574.476 144.561 572.192L144.182 572.221C144.007 569.935 143.85 567.644 143.714 565.348L144.093 565.325C143.957 563.043 143.84 560.755 143.743 558.462L143.363 558.478C143.266 556.196 143.188 553.909 143.13 551.617L143.51 551.607C143.452 549.317 143.412 547.023 143.393 544.723L143.013 544.727C143.003 543.576 142.998 542.424 142.998 541.271H143.378C143.378 540.119 143.383 538.968 143.393 537.819L143.013 537.815C143.032 535.514 143.071 533.217 143.13 530.925L143.51 530.935C143.568 528.645 143.646 526.36 143.743 524.08L143.363 524.064C143.46 521.769 143.577 519.479 143.714 517.194L144.093 517.217C144.23 514.923 144.386 512.634 144.561 510.35L144.182 510.321C144.358 508.035 144.553 505.755 144.767 503.48L145.145 503.516C145.36 501.231 145.595 498.951 145.848 496.678L145.47 496.635C145.725 494.35 145.999 492.071 146.292 489.798L146.669 489.846C146.962 487.575 147.274 485.31 147.605 483.051L147.229 482.996C147.562 480.723 147.915 478.456 148.286 476.195L148.661 476.256C149.033 473.991 149.425 471.732 149.835 469.48L149.461 469.411C149.871 467.157 150.301 464.909 150.749 462.668L151.122 462.742C151.573 460.491 152.042 458.246 152.531 456.009L152.159 455.928C152.649 453.684 153.157 451.447 153.685 449.217L154.055 449.305C154.581 447.077 155.127 444.857 155.691 442.644L155.323 442.55C155.89 440.322 156.477 438.102 157.082 435.89L157.449 435.99C158.054 433.778 158.678 431.574 159.32 429.377L158.955 429.27C159.598 427.072 160.259 424.881 160.938 422.698L161.302 422.811C161.984 420.618 162.685 418.433 163.405 416.256L163.044 416.137C163.764 413.958 164.502 411.788 165.259 409.626L165.617 409.751C166.374 407.59 167.148 405.437 167.941 403.292L167.584 403.16C168.381 401.005 169.195 398.859 170.028 396.722L170.382 396.86C171.213 394.724 172.063 392.598 172.93 390.481L172.578 390.337C173.448 388.214 174.335 386.101 175.239 383.997L175.589 384.148C176.495 382.04 177.419 379.942 178.36 377.854L178.014 377.697C178.956 375.607 179.916 373.526 180.893 371.455L181.237 371.617C182.215 369.544 183.211 367.481 184.223 365.428L183.882 365.26C184.897 363.201 185.93 361.153 186.979 359.114L187.317 359.289C188.366 357.252 189.431 355.226 190.514 353.211L190.179 353.031C191.265 351.009 192.367 348.998 193.487 346.997L193.818 347.183C194.938 345.182 196.074 343.193 197.226 341.214L196.898 341.022C198.051 339.042 199.222 337.072 200.408 335.113L200.733 335.31C201.921 333.349 203.126 331.399 204.347 329.46L204.025 329.257C205.247 327.316 206.485 325.387 207.74 323.468L208.058 323.677C209.312 321.76 210.582 319.854 211.867 317.961L211.553 317.747C212.841 315.849 214.146 313.962 215.467 312.087L215.778 312.306C217.097 310.433 218.432 308.572 219.783 306.723L219.475 306.498C220.828 304.647 222.196 302.807 223.58 300.98L223.883 301.209C225.266 299.382 226.665 297.568 228.079 295.765L227.78 295.531C229.195 293.727 230.625 291.935 232.071 290.156L232.366 290.396C233.811 288.618 235.271 286.853 236.746 285.101L236.455 284.856C237.931 283.101 239.423 281.359 240.929 279.631L241.216 279.88C242.721 278.153 244.24 276.44 245.774 274.739L245.492 274.484C247.028 272.782 248.578 271.092 250.143 269.416L250.421 269.676C251.984 268.001 253.562 266.34 255.153 264.693L254.88 264.429C256.473 262.78 258.081 261.145 259.702 259.523L259.971 259.792C261.59 258.173 263.224 256.567 264.871 254.975L264.607 254.702C266.256 253.108 267.918 251.529 269.595 249.965L269.854 250.242C271.528 248.679 273.216 247.13 274.917 245.596L274.663 245.314C276.365 243.778 278.08 242.257 279.809 240.751L280.059 241.038C281.786 239.533 283.526 238.043 285.279 236.567L285.034 236.276C286.788 234.8 288.555 233.339 290.335 231.893L290.574 232.188C292.351 230.744 294.141 229.314 295.944 227.9L295.709 227.601C297.513 226.186 299.329 224.786 301.158 223.401L301.388 223.704C303.213 222.322 305.051 220.955 306.901 219.604L306.677 219.297C308.528 217.945 310.391 216.609 312.265 215.288L312.484 215.599C314.357 214.28 316.242 212.977 318.139 211.689L317.925 211.374C319.821 210.088 321.728 208.817 323.647 207.562L323.855 207.88C325.771 206.627 327.699 205.389 329.638 204.168L329.436 203.847C331.376 202.625 333.328 201.419 335.291 200.23L335.488 200.555C337.445 199.37 339.413 198.201 341.392 197.048L341.201 196.719C343.181 195.566 345.173 194.429 347.175 193.308L347.361 193.64C349.36 192.522 351.369 191.42 353.389 190.336L353.209 190.001C355.227 188.917 357.255 187.851 359.293 186.801L359.467 187.139C361.503 186.091 363.55 185.059 365.606 184.045L365.438 183.704C367.493 182.69 369.558 181.694 371.633 180.715L371.795 181.059C373.864 180.083 375.943 179.124 378.032 178.182L377.876 177.836C379.966 176.893 382.066 175.968 384.176 175.061L384.326 175.411C386.428 174.507 388.539 173.621 390.659 172.752L390.515 172.4C392.634 171.532 394.763 170.682 396.9 169.849L397.038 170.204C399.173 169.372 401.318 168.558 403.471 167.763L403.339 167.406C405.485 166.613 407.64 165.838 409.804 165.08L409.93 165.439C412.09 164.684 414.258 163.946 416.434 163.227L416.315 162.866C418.494 162.145 420.681 161.444 422.876 160.76L422.989 161.123C425.17 160.445 427.359 159.784 429.555 159.142L429.449 158.777C431.647 158.134 433.854 157.51 436.068 156.904L436.169 157.271C438.379 156.666 440.597 156.08 442.822 155.513L442.728 155.144C444.943 154.58 447.166 154.034 449.395 153.507L449.483 153.877C451.71 153.35 453.945 152.842 456.187 152.352L456.106 151.981C458.346 151.492 460.592 151.022 462.846 150.571L462.921 150.944C465.16 150.496 467.405 150.067 469.658 149.657L469.59 149.283C471.844 148.872 474.105 148.481 476.373 148.108L476.435 148.483C478.693 148.112 480.958 147.76 483.23 147.427L483.174 147.051C485.435 146.72 487.703 146.407 489.976 146.114L490.025 146.491C492.296 146.198 494.573 145.925 496.856 145.67L496.814 145.292C499.089 145.039 501.371 144.804 503.658 144.589L503.694 144.967C505.966 144.754 508.245 144.559 510.528 144.383L510.499 144.004C512.785 143.829 515.076 143.672 517.372 143.536L517.395 143.915C519.677 143.779 521.965 143.662 524.258 143.565L524.242 143.185C526.524 143.088 528.811 143.01 531.103 142.952L531.113 143.332C533.403 143.274 535.697 143.235 537.997 143.215L537.993 142.835C539.144 142.825 540.296 142.82 541.449 142.82V143.2C542.601 143.2 543.752 143.205 544.901 143.215L544.905 142.835C547.206 142.854 549.503 142.893 551.795 142.952L551.785 143.332C554.075 143.39 556.36 143.468 558.64 143.565L558.656 143.185C560.951 143.282 563.241 143.399 565.526 143.536L565.503 143.915C567.797 144.052 570.086 144.208 572.37 144.383L572.399 144.004C574.685 144.18 576.965 144.375 579.24 144.589L579.205 144.967C581.49 145.182 583.769 145.417 586.042 145.67L586.085 145.292C588.37 145.547 590.649 145.821 592.922 146.114L592.874 146.491C595.145 146.784 597.41 147.096 599.669 147.427L599.724 147.051C601.997 147.384 604.265 147.737 606.525 148.108L606.464 148.483C608.729 148.855 610.988 149.247 613.241 149.657L613.309 149.283C615.563 149.693 617.811 150.123 620.052 150.571L619.978 150.944C622.229 151.395 624.474 151.864 626.711 152.353L626.792 151.981C629.036 152.471 631.273 152.979 633.503 153.507L633.415 153.877C635.643 154.403 637.863 154.949 640.076 155.513L640.17 155.145C642.398 155.712 644.618 156.299 646.83 156.904L646.73 157.271C648.942 157.876 651.146 158.5 653.343 159.142L653.45 158.777C655.648 159.42 657.839 160.081 660.022 160.761L659.909 161.124C662.102 161.806 664.287 162.507 666.464 163.227L666.583 162.866C668.762 163.586 670.932 164.324 673.094 165.081L672.969 165.44C675.13 166.196 677.283 166.97 679.428 167.763L679.56 167.406C681.715 168.203 683.861 169.017 685.998 169.85L685.86 170.204C687.996 171.035 690.122 171.885 692.239 172.752L692.383 172.4C694.506 173.27 696.619 174.157 698.723 175.061L698.573 175.411C700.68 176.317 702.778 177.241 704.867 178.182L705.023 177.836C707.113 178.778 709.194 179.738 711.265 180.715L711.103 181.059C713.176 182.037 715.239 183.033 717.292 184.045L717.46 183.704C719.519 184.719 721.567 185.752 723.606 186.801L723.432 187.139C725.468 188.188 727.494 189.253 729.51 190.336L729.689 190.001C731.711 191.087 733.722 192.189 735.723 193.309L735.537 193.64C737.538 194.76 739.527 195.896 741.506 197.048L741.698 196.72C743.678 197.873 745.648 199.044 747.607 200.23L747.41 200.555C749.371 201.743 751.321 202.948 753.26 204.169L753.463 203.847C755.404 205.069 757.333 206.308 759.252 207.562L759.043 207.88C760.96 209.134 762.866 210.404 764.759 211.689L764.973 211.375C766.871 212.663 768.758 213.968 770.633 215.289L770.414 215.6C772.287 216.919 774.148 218.254 775.997 219.605L776.222 219.297C778.073 220.65 779.913 222.018 781.74 223.402L781.511 223.705C783.338 225.088 785.153 226.487 786.955 227.901L787.19 227.602C788.994 229.017 790.785 230.447 792.564 231.893L792.324 232.188C794.102 233.633 795.867 235.093 797.62 236.568L797.864 236.277C799.619 237.753 801.361 239.245 803.089 240.751L802.84 241.038C804.567 242.543 806.28 244.062 807.981 245.596L808.236 245.314C809.938 246.85 811.628 248.4 813.304 249.965L813.044 250.243C814.719 251.806 816.38 253.384 818.027 254.975L818.291 254.702C819.94 256.295 821.575 257.903 823.197 259.524L822.928 259.793C824.547 261.412 826.153 263.046 827.745 264.693L828.018 264.429C829.612 266.078 831.191 267.74 832.755 269.417L832.478 269.676C834.041 271.35 835.59 273.038 837.124 274.739L837.406 274.485C838.942 276.187 840.463 277.902 841.969 279.631L841.682 279.881C843.187 281.608 844.677 283.348 846.153 285.101L846.444 284.856C847.92 286.61 849.381 288.377 850.827 290.157L850.532 290.396C851.976 292.173 853.406 293.963 854.82 295.766L855.119 295.531C856.534 297.335 857.934 299.151 859.319 300.98L859.016 301.21C860.398 303.035 861.765 304.873 863.116 306.723L863.423 306.499C864.775 308.35 866.111 310.213 867.432 312.087L867.121 312.306C868.44 314.179 869.744 316.064 871.031 317.961L871.346 317.747C872.633 319.643 873.903 321.55 875.158 323.469L874.84 323.677C876.093 325.593 877.331 327.521 878.552 329.46L878.873 329.258C880.095 331.198 881.301 333.15 882.49 335.113L882.165 335.31C883.35 337.267 884.52 339.235 885.672 341.214L886.001 341.023C887.154 343.003 888.291 344.995 889.412 346.997L889.08 347.183C890.198 349.182 891.3 351.191 892.384 353.211L892.719 353.031C893.803 355.049 894.869 357.077 895.919 359.115L895.581 359.289C896.629 361.325 897.661 363.372 898.675 365.428L899.016 365.26C900.03 367.315 901.026 369.38 902.005 371.455L901.661 371.617C902.637 373.687 903.596 375.765 904.538 377.854L904.884 377.698C905.827 379.788 906.752 381.888 907.659 383.998L907.309 384.148C908.213 386.25 909.099 388.361 909.968 390.481L910.32 390.337C911.188 392.456 912.038 394.585 912.871 396.722L912.516 396.86C913.348 398.995 914.162 401.14 914.957 403.293L915.314 403.161C916.107 405.307 916.882 407.462 917.64 409.626L917.281 409.752C918.036 411.912 918.774 414.08 919.493 416.256L919.854 416.137C920.575 418.316 921.276 420.503 921.96 422.698L921.597 422.811C922.276 424.992 922.936 427.181 923.578 429.378L923.943 429.271C924.586 431.47 925.21 433.676 925.816 435.89L925.449 435.991C926.054 438.201 926.64 440.419 927.207 442.644L927.576 442.55C928.14 444.765 928.686 446.988 929.214 449.217L928.844 449.305C929.37 451.533 929.878 453.767 930.368 456.009L930.739 455.928C931.228 458.168 931.698 460.414 932.149 462.668L931.776 462.743C932.224 464.982 932.653 467.227 933.063 469.48L933.437 469.412C933.848 471.666 934.24 473.927 934.612 476.195L934.237 476.257C934.608 478.515 934.96 480.78 935.293 483.052L935.669 482.996C936 485.257 936.313 487.525 936.606 489.798L936.229 489.847C936.522 492.118 936.795 494.395 937.05 496.678L937.428 496.636C937.682 498.911 937.916 501.193 938.131 503.48L937.753 503.516C937.966 505.788 938.161 508.067 938.337 510.35L938.716 510.321C938.891 512.607 939.048 514.898 939.185 517.194L938.805 517.217C938.941 519.499 939.058 521.787 939.155 524.08L939.535 524.064C939.632 526.346 939.71 528.633 939.768 530.925L939.388 530.935C939.447 533.225 939.486 535.519 939.505 537.819L939.885 537.815C939.895 538.966 939.9 540.118 939.9 541.271H939.52C939.52 542.423 939.515 543.574 939.505 544.723L939.885 544.727C939.866 547.028 939.827 549.325 939.768 551.617L939.388 551.607C939.33 553.897 939.252 556.182 939.155 558.462L939.535 558.478C939.438 560.773 939.321 563.063 939.185 565.348L938.805 565.325C938.668 567.62 938.512 569.909 938.337 572.192L938.716 572.221C938.54 574.507 938.345 576.787 938.131 579.062L937.753 579.027C937.538 581.312 937.303 583.591 937.05 585.864L937.428 585.907C937.173 588.192 936.899 590.471 936.606 592.744L936.229 592.696C935.936 594.967 935.624 597.232 935.293 599.491L935.669 599.546C935.336 601.819 934.983 604.087 934.612 606.347L934.237 606.286C933.865 608.551 933.473 610.81 933.063 613.063L933.437 613.131C933.027 615.385 932.597 617.633 932.149 619.874L931.776 619.8C931.325 622.051 930.856 624.296 930.367 626.533L930.739 626.614C930.249 628.858 929.741 631.095 929.213 633.325L928.843 633.237C928.317 635.465 927.771 637.685 927.207 639.898L927.575 639.992C927.008 642.22 926.421 644.44 925.816 646.652L925.449 646.552C924.844 648.764 924.22 650.968 923.578 653.165L923.943 653.272C923.3 655.471 922.639 657.661 921.96 659.844L921.596 659.732C920.914 661.924 920.213 664.109 919.493 666.286L919.854 666.405C919.134 668.584 918.396 670.754 917.639 672.916L917.281 672.791C916.524 674.952 915.75 677.105 914.957 679.25L915.314 679.382C914.517 681.537 913.703 683.683 912.87 685.82L912.516 685.682C911.685 687.818 910.835 689.944 909.968 692.061L910.32 692.206C909.45 694.328 908.563 696.441 907.659 698.545L907.309 698.395C906.403 700.502 905.479 702.6 904.538 704.689L904.884 704.845C903.942 706.935 902.982 709.016 902.005 711.087L901.661 710.925C900.683 712.998 899.688 715.061 898.675 717.114L899.016 717.282C898.001 719.341 896.968 721.389 895.919 723.428L895.581 723.254C894.532 725.29 893.467 727.316 892.384 729.332L892.719 729.511C891.633 731.533 890.531 733.544 889.411 735.545L889.08 735.359C887.96 737.36 886.824 739.349 885.672 741.328L886 741.52C884.847 743.5 883.677 745.47 882.49 747.429L882.165 747.232C880.977 749.193 879.772 751.143 878.551 753.082L878.873 753.285C877.651 755.226 876.413 757.155 875.158 759.074L874.84 758.865C873.586 760.782 872.316 762.688 871.031 764.581L871.345 764.795C870.057 766.693 868.752 768.58 867.431 770.455L867.12 770.236C865.801 772.109 864.466 773.97 863.116 775.819L863.423 776.044C862.07 777.895 860.702 779.735 859.319 781.562L859.015 781.333C857.632 783.16 856.233 784.975 854.819 786.777L855.118 787.012C853.703 788.816 852.273 790.607 850.827 792.386L850.532 792.146C849.087 793.924 847.627 795.689 846.152 797.442L846.443 797.686C844.967 799.441 843.475 801.183 841.969 802.911L841.682 802.662C840.177 804.389 838.658 806.102 837.124 807.803L837.406 808.058C835.87 809.76 834.32 811.45 832.755 813.126L832.477 812.866C830.914 814.541 829.336 816.202 827.745 817.849L828.018 818.113C826.425 819.762 824.817 821.397 823.196 823.019L822.927 822.75C821.308 824.369 819.674 825.975 818.027 827.567L818.291 827.84C816.642 829.434 814.98 831.013 813.304 832.578L813.044 832.3C811.37 833.863 809.682 835.412 807.981 836.946L808.235 837.229C806.533 838.764 804.818 840.285 803.089 841.791L802.839 841.504C801.112 843.009 799.372 844.499 797.619 845.975L797.864 846.266C796.11 847.742 794.343 849.203 792.563 850.649L792.324 850.354C790.547 851.798 788.757 853.228 786.954 854.642L787.189 854.941C785.385 856.356 783.569 857.756 781.74 859.141L781.51 858.838C779.685 860.22 777.847 861.587 775.997 862.938L776.221 863.245C774.37 864.597 772.507 865.933 770.633 867.254L770.414 866.943C768.541 868.262 766.656 869.566 764.759 870.853L764.973 871.168C763.077 872.455 761.17 873.725 759.251 874.98L759.043 874.662C757.127 875.915 755.199 877.153 753.26 878.374L753.462 878.695C751.522 879.917 749.57 881.123 747.607 882.312L747.41 881.987C745.453 883.172 743.485 884.342 741.506 885.494L741.697 885.823C739.717 886.976 737.725 888.113 735.723 889.234L735.537 888.902C733.538 890.02 731.529 891.122 729.509 892.206L729.689 892.541C727.671 893.625 725.643 894.691 723.605 895.741L723.431 895.403C721.395 896.451 719.348 897.483 717.292 898.497L717.46 898.838C715.405 899.852 713.34 900.848 711.265 901.827L711.103 901.483C709.034 902.459 706.955 903.418 704.866 904.36L705.022 904.706C702.932 905.649 700.832 906.574 698.722 907.481L698.572 907.131C696.47 908.035 694.359 908.922 692.239 909.79L692.383 910.142C690.264 911.01 688.135 911.86 685.998 912.693L685.86 912.338C683.725 913.17 681.58 913.984 679.427 914.779L679.559 915.136C677.413 915.929 675.258 916.704 673.094 917.462L672.968 917.103C670.809 917.858 668.64 918.596 666.464 919.315L666.583 919.677C664.404 920.397 662.217 921.098 660.022 921.782L659.909 921.419C657.728 922.098 655.539 922.758 653.343 923.4L653.449 923.765C651.251 924.408 649.044 925.032 646.83 925.638L646.729 925.271C644.519 925.876 642.301 926.462 640.076 927.029L640.17 927.398C637.955 927.962 635.732 928.508 633.503 929.036L633.415 928.666C631.188 929.192 628.953 929.7 626.711 930.19L626.792 930.561C624.552 931.05 622.306 931.52 620.052 931.971L619.977 931.598C617.738 932.046 615.493 932.475 613.24 932.885L613.308 933.259C611.054 933.67 608.793 934.062 606.525 934.434L606.464 934.059C604.205 934.43 601.94 934.782 599.669 935.115L599.724 935.491C597.463 935.822 595.195 936.135 592.922 936.428L592.873 936.051C590.602 936.344 588.325 936.617 586.042 936.872L586.084 937.25C583.809 937.504 581.527 937.738 579.24 937.953L579.204 937.575C576.932 937.789 574.654 937.983 572.37 938.159L572.399 938.538C570.113 938.713 567.822 938.87 565.526 939.007L565.503 938.627C563.221 938.763 560.933 938.88 558.64 938.977L558.656 939.357C556.374 939.454 554.087 939.532 551.795 939.59L551.785 939.21C549.495 939.269 547.201 939.308 544.901 939.327L544.905 939.707C543.754 939.717 542.602 939.722 541.449 939.722V939.342Z" stroke="#524FA1" stroke-width="0.76048" stroke-dasharray="6.84"/>
<path opacity="0.2" d="M541.449 795.432C540.557 795.432 539.665 795.427 538.775 795.418L538.771 795.798C536.988 795.78 535.209 795.743 533.435 795.688L533.447 795.308C531.675 795.253 529.907 795.18 528.144 795.09L528.124 795.469C526.34 795.377 524.562 795.267 522.788 795.138L522.815 794.759C521.044 794.631 519.278 794.484 517.517 794.32L517.482 794.698C515.708 794.533 513.939 794.349 512.176 794.147L512.219 793.769C510.452 793.567 508.691 793.346 506.935 793.108L506.884 793.485C505.122 793.246 503.367 792.989 501.617 792.714L501.676 792.338C499.917 792.062 498.164 791.767 496.417 791.455L496.35 791.829C494.601 791.516 492.858 791.186 491.121 790.837L491.196 790.464C489.451 790.115 487.712 789.747 485.981 789.361L485.898 789.732C484.161 789.346 482.432 788.942 480.708 788.52L480.799 788.15C479.073 787.728 477.355 787.288 475.643 786.83L475.545 787.198C473.825 786.738 472.112 786.26 470.406 785.766L470.512 785.4C468.808 784.906 467.111 784.395 465.422 783.866L465.309 784.229C463.608 783.696 461.916 783.147 460.231 782.58L460.352 782.219C458.67 781.654 456.996 781.07 455.329 780.47L455.201 780.828C453.526 780.225 451.859 779.605 450.201 778.968L450.337 778.613C448.679 777.976 447.03 777.322 445.389 776.652L445.245 777.004C443.599 776.331 441.961 775.642 440.332 774.936L440.483 774.587C438.853 773.881 437.232 773.158 435.619 772.419L435.461 772.764C433.845 772.023 432.239 771.266 430.642 770.493L430.808 770.151C429.208 769.376 427.618 768.585 426.038 767.778L425.865 768.117C424.282 767.308 422.708 766.484 421.145 765.644L421.325 765.309C419.76 764.468 418.205 763.612 416.66 762.739L416.473 763.07C414.925 762.196 413.387 761.306 411.859 760.401L412.053 760.074C410.525 759.168 409.009 758.248 407.502 757.312L407.301 757.635C405.791 756.696 404.291 755.742 402.802 754.773L403.009 754.455C401.522 753.487 400.045 752.504 398.579 751.506L398.365 751.82C396.895 750.819 395.436 749.803 393.988 748.772L394.209 748.462C392.763 747.433 391.329 746.389 389.906 745.331L389.679 745.636C388.252 744.575 386.837 743.499 385.434 742.409L385.667 742.108C384.265 741.02 382.875 739.916 381.497 738.799L381.258 739.095C379.877 737.975 378.508 736.841 377.152 735.694L377.397 735.404C376.042 734.257 374.699 733.097 373.369 731.923L373.117 732.208C371.784 731.032 370.464 729.843 369.156 728.64L369.414 728.36C368.108 727.158 366.814 725.943 365.534 724.715L365.27 724.989C363.988 723.759 362.718 722.515 361.462 721.259L361.73 720.99C360.476 719.735 359.234 718.467 358.006 717.187L357.731 717.45C356.501 716.167 355.284 714.872 354.08 713.564L354.36 713.306C353.159 712.001 351.971 710.682 350.797 709.352L350.512 709.603C349.336 708.271 348.174 706.926 347.026 705.569L347.317 705.323C346.171 703.968 345.039 702.602 343.921 701.223L343.626 701.462C342.507 700.082 341.402 698.69 340.312 697.287L340.612 697.053C339.523 695.652 338.449 694.239 337.389 692.814L337.084 693.041C336.024 691.616 334.979 690.18 333.948 688.732L334.258 688.511C333.229 687.066 332.214 685.609 331.215 684.141L330.9 684.355C329.901 682.887 328.916 681.408 327.947 679.919L328.266 679.711C327.298 678.224 326.346 676.726 325.409 675.218L325.086 675.419C324.148 673.91 323.226 672.391 322.32 670.861L322.647 670.668C321.743 669.142 320.854 667.606 319.981 666.06L319.65 666.247C318.776 664.7 317.918 663.143 317.076 661.576L317.411 661.396C316.572 659.834 315.749 658.263 314.942 656.683L314.604 656.856C313.795 655.273 313.003 653.68 312.227 652.078L312.57 651.912C311.797 650.318 311.041 648.714 310.302 647.101L309.956 647.26C309.216 645.645 308.491 644.021 307.784 642.388L308.133 642.237C307.428 640.611 306.74 638.975 306.068 637.332L305.716 637.475C305.045 635.832 304.39 634.18 303.752 632.52L304.107 632.383C303.471 630.727 302.852 629.063 302.25 627.391L301.892 627.52C301.291 625.851 300.707 624.174 300.14 622.489L300.501 622.368C299.935 620.686 299.386 618.996 298.854 617.298L298.492 617.412C297.962 615.72 297.45 614.021 296.955 612.314L297.32 612.208C296.826 610.505 296.349 608.795 295.89 607.077L295.523 607.175C295.064 605.461 294.624 603.74 294.201 602.012L294.57 601.922C294.149 600.201 293.745 598.474 293.359 596.74L292.988 596.822C292.602 595.088 292.233 593.347 291.883 591.6L292.256 591.525C291.908 589.791 291.578 588.05 291.266 586.303L290.891 586.37C290.578 584.621 290.283 582.865 290.007 581.104L290.382 581.044C290.108 579.297 289.851 577.544 289.612 575.785L289.235 575.837C288.997 574.078 288.776 572.314 288.573 570.544L288.951 570.501C288.749 568.741 288.566 566.975 288.4 565.204L288.022 565.239C287.857 563.475 287.71 561.707 287.582 559.933L287.961 559.905C287.833 558.134 287.723 556.358 287.631 554.577L287.251 554.596C287.16 552.831 287.087 551.06 287.032 549.285L287.412 549.274C287.357 547.502 287.321 545.726 287.302 543.945L286.922 543.949C286.913 543.058 286.908 542.165 286.908 541.271H287.288C287.288 540.379 287.293 539.487 287.302 538.597L286.922 538.593C286.94 536.81 286.977 535.031 287.032 533.257L287.412 533.269C287.467 531.497 287.54 529.729 287.631 527.966L287.251 527.946C287.343 526.162 287.453 524.384 287.582 522.61L287.961 522.637C288.089 520.866 288.236 519.1 288.4 517.339L288.022 517.304C288.187 515.53 288.371 513.761 288.573 511.998L288.951 512.041C289.153 510.274 289.374 508.513 289.612 506.757L289.235 506.706C289.474 504.944 289.732 503.189 290.007 501.439L290.382 501.498C290.659 499.739 290.953 497.986 291.265 496.239L290.891 496.172C291.204 494.423 291.535 492.68 291.883 490.943L292.256 491.018C292.606 489.273 292.973 487.534 293.359 485.803L292.988 485.72C293.374 483.984 293.779 482.254 294.201 480.53L294.57 480.621C294.992 478.895 295.432 477.177 295.89 475.465L295.523 475.367C295.982 473.647 296.46 471.934 296.955 470.228L297.32 470.334C297.814 468.63 298.326 466.933 298.854 465.244L298.492 465.131C299.024 463.43 299.574 461.738 300.14 460.053L300.501 460.174C301.067 458.492 301.65 456.818 302.25 455.151L301.892 455.023C302.495 453.348 303.115 451.681 303.752 450.023L304.107 450.159C304.744 448.501 305.398 446.852 306.068 445.211L305.716 445.067C306.389 443.421 307.078 441.783 307.784 440.154L308.133 440.305C308.839 438.675 309.562 437.054 310.302 435.441L309.956 435.283C310.697 433.667 311.454 432.061 312.227 430.464L312.57 430.63C313.344 429.031 314.135 427.44 314.942 425.86L314.604 425.687C315.412 424.104 316.236 422.53 317.076 420.967L317.411 421.147C318.252 419.582 319.109 418.027 319.981 416.482L319.65 416.295C320.524 414.747 321.414 413.209 322.32 411.681L322.647 411.875C323.552 410.347 324.473 408.831 325.408 407.324L325.086 407.123C326.024 405.613 326.978 404.113 327.947 402.624L328.266 402.831C329.234 401.344 330.217 399.867 331.215 398.401L330.9 398.187C331.901 396.717 332.917 395.258 333.948 393.81L334.258 394.031C335.287 392.585 336.331 391.151 337.389 389.728L337.084 389.501C338.146 388.074 339.221 386.659 340.312 385.256L340.612 385.489C341.701 384.087 342.804 382.697 343.921 381.319L343.626 381.08C344.745 379.699 345.879 378.33 347.026 376.974L347.317 377.219C348.463 375.864 349.623 374.521 350.797 373.191L350.512 372.939C351.688 371.606 352.877 370.286 354.08 368.979L354.36 369.236C355.562 367.93 356.777 366.636 358.005 365.356L357.731 365.092C358.961 363.81 360.205 362.54 361.461 361.284L361.73 361.552C362.985 360.298 364.253 359.056 365.534 357.828L365.27 357.553C366.553 356.323 367.848 355.106 369.156 353.902L369.414 354.182C370.72 352.981 372.038 351.793 373.369 350.619L373.117 350.334C374.45 349.158 375.795 347.996 377.152 346.848L377.397 347.139C378.752 345.993 380.119 344.861 381.497 343.743L381.258 343.448C382.638 342.329 384.03 341.224 385.434 340.134L385.667 340.434C387.068 339.345 388.481 338.271 389.906 337.211L389.679 336.906C391.104 335.846 392.541 334.801 393.988 333.77L394.209 334.08C395.655 333.051 397.111 332.036 398.579 331.037L398.365 330.722C399.833 329.723 401.312 328.738 402.802 327.769L403.009 328.088C404.496 327.12 405.994 326.168 407.502 325.231L407.301 324.908C408.81 323.97 410.329 323.048 411.859 322.142L412.053 322.469C413.578 321.565 415.114 320.676 416.66 319.803L416.473 319.472C418.02 318.598 419.577 317.74 421.145 316.898L421.325 317.233C422.886 316.394 424.457 315.571 426.038 314.764L425.865 314.426C427.448 313.617 429.04 312.825 430.642 312.05L430.808 312.392C432.402 311.619 434.006 310.863 435.619 310.124L435.461 309.778C437.075 309.038 438.699 308.313 440.332 307.606L440.483 307.955C442.11 307.25 443.745 306.562 445.389 305.89L445.245 305.538C446.888 304.867 448.54 304.212 450.201 303.574L450.337 303.929C451.993 303.293 453.657 302.674 455.329 302.072L455.201 301.714C456.869 301.113 458.546 300.529 460.231 299.962L460.352 300.323C462.034 299.757 463.724 299.208 465.422 298.676L465.309 298.314C467 297.784 468.699 297.272 470.406 296.777L470.512 297.142C472.215 296.648 473.925 296.171 475.643 295.712L475.545 295.345C477.259 294.886 478.98 294.446 480.708 294.023L480.799 294.392C482.519 293.971 484.247 293.567 485.981 293.181L485.898 292.81C487.632 292.424 489.373 292.055 491.121 291.705L491.195 292.078C492.93 291.73 494.67 291.4 496.417 291.088L496.35 290.713C498.099 290.4 499.855 290.106 501.617 289.829L501.676 290.204C503.423 289.93 505.176 289.673 506.935 289.434L506.884 289.057C508.642 288.819 510.406 288.598 512.176 288.395L512.219 288.773C513.98 288.571 515.745 288.388 517.517 288.222L517.481 287.844C519.245 287.679 521.014 287.532 522.788 287.404L522.815 287.783C524.586 287.655 526.362 287.545 528.143 287.453L528.124 287.073C529.89 286.982 531.66 286.909 533.435 286.854L533.447 287.234C535.218 287.179 536.994 287.143 538.775 287.124L538.771 286.744C539.663 286.735 540.555 286.73 541.449 286.73V287.11C542.342 287.11 543.233 287.115 544.123 287.124L544.127 286.744C545.91 286.762 547.689 286.799 549.463 286.854L549.451 287.234C551.224 287.289 552.991 287.362 554.754 287.453L554.774 287.073C556.558 287.165 558.337 287.275 560.11 287.404L560.083 287.783C561.854 287.911 563.62 288.058 565.381 288.222L565.417 287.844C567.191 288.009 568.959 288.193 570.722 288.395L570.679 288.773C572.446 288.975 574.207 289.196 575.963 289.434L576.014 289.057C577.776 289.296 579.532 289.554 581.281 289.829L581.222 290.204C582.981 290.481 584.734 290.775 586.481 291.087L586.548 290.713C588.297 291.026 590.041 291.357 591.777 291.705L591.703 292.078C593.447 292.428 595.186 292.796 596.917 293.181L597 292.81C598.737 293.196 600.467 293.601 602.19 294.023L602.099 294.392C603.825 294.814 605.543 295.254 607.255 295.712L607.353 295.345C609.073 295.804 610.786 296.282 612.492 296.777L612.386 297.142C614.09 297.636 615.787 298.148 617.476 298.676L617.589 298.314C619.29 298.846 620.982 299.396 622.667 299.962L622.546 300.323C624.228 300.889 625.902 301.472 627.569 302.072L627.698 301.714C629.372 302.317 631.039 302.937 632.698 303.574L632.561 303.929C634.219 304.566 635.869 305.22 637.51 305.89L637.653 305.538C639.3 306.211 640.937 306.9 642.566 307.606L642.415 307.955C644.045 308.661 645.667 309.384 647.279 310.124L647.437 309.778C649.053 310.519 650.659 311.276 652.256 312.049L652.09 312.392C653.69 313.166 655.28 313.957 656.861 314.764L657.033 314.426C658.616 315.234 660.19 316.058 661.754 316.898L661.574 317.233C663.138 318.074 664.693 318.931 666.238 319.803L666.425 319.472C667.973 320.346 669.512 321.236 671.039 322.142L670.845 322.469C672.373 323.374 673.89 324.295 675.396 325.231L675.597 324.908C677.107 325.846 678.607 326.8 680.096 327.769L679.889 328.088C681.376 329.056 682.853 330.039 684.319 331.037L684.533 330.722C686.003 331.723 687.462 332.739 688.91 333.77L688.689 334.08C690.135 335.109 691.569 336.153 692.992 337.211L693.219 336.906C694.646 337.968 696.061 339.043 697.465 340.134L697.231 340.434C698.633 341.523 700.023 342.626 701.401 343.743L701.64 343.448C703.021 344.567 704.39 345.701 705.747 346.848L705.501 347.139C706.856 348.285 708.199 349.445 709.53 350.619L709.781 350.334C711.114 351.51 712.434 352.699 713.742 353.902L713.484 354.182C714.79 355.384 716.084 356.599 717.365 357.827L717.628 357.553C718.91 358.783 720.18 360.027 721.437 361.283L721.168 361.552C722.423 362.807 723.664 364.075 724.893 365.356L725.167 365.092C726.397 366.375 727.614 367.67 728.818 368.978L728.538 369.236C729.739 370.542 730.927 371.86 732.101 373.191L732.386 372.939C733.562 374.272 734.724 375.617 735.872 376.974L735.581 377.219C736.727 378.574 737.859 379.941 738.977 381.319L739.272 381.08C740.391 382.46 741.496 383.852 742.587 385.256L742.286 385.489C743.375 386.89 744.449 388.303 745.509 389.728L745.814 389.501C746.874 390.926 747.919 392.363 748.95 393.81L748.64 394.031C749.67 395.477 750.684 396.933 751.683 398.401L751.998 398.187C752.997 399.655 753.982 401.134 754.951 402.624L754.632 402.831C755.6 404.318 756.553 405.816 757.49 407.324L757.813 407.123C758.75 408.632 759.672 410.151 760.579 411.681L760.251 411.875C761.156 413.4 762.044 414.936 762.917 416.482L763.248 416.295C764.122 417.842 764.98 419.4 765.822 420.967L765.487 421.147C766.326 422.708 767.149 424.279 767.956 425.86L768.295 425.687C769.103 427.27 769.895 428.862 770.671 430.464L770.329 430.63C771.101 432.224 771.857 433.828 772.596 435.441L772.942 435.283C773.683 436.897 774.407 438.521 775.114 440.154L774.765 440.305C775.47 441.932 776.158 443.567 776.83 445.211L777.182 445.067C777.853 446.71 778.508 448.362 779.146 450.023L778.791 450.159C779.427 451.815 780.046 453.479 780.648 455.151L781.006 455.023C781.607 456.691 782.191 458.368 782.758 460.053L782.397 460.174C782.963 461.856 783.512 463.547 784.044 465.244L784.407 465.131C784.936 466.822 785.449 468.521 785.944 470.228L785.578 470.334C786.072 472.037 786.549 473.747 787.008 475.465L787.376 475.367C787.834 477.081 788.275 478.802 788.698 480.53L788.328 480.621C788.75 482.341 789.153 484.069 789.539 485.803L789.91 485.72C790.296 487.454 790.665 489.195 791.015 490.943L790.642 491.017C790.99 492.752 791.32 494.492 791.633 496.239L792.007 496.172C792.32 497.922 792.615 499.677 792.892 501.439L792.516 501.498C792.79 503.245 793.047 504.998 793.286 506.757L793.663 506.706C793.902 508.464 794.122 510.228 794.325 511.998L793.947 512.041C794.149 513.802 794.332 515.567 794.498 517.339L794.876 517.303C795.041 519.067 795.188 520.836 795.316 522.61L794.937 522.637C795.065 524.408 795.176 526.184 795.267 527.966L795.647 527.946C795.738 529.712 795.811 531.482 795.866 533.257L795.486 533.269C795.541 535.04 795.578 536.816 795.596 538.597L795.976 538.593C795.985 539.485 795.99 540.377 795.99 541.271H795.61C795.61 542.164 795.605 543.055 795.596 543.945L795.976 543.949C795.958 545.732 795.921 547.511 795.866 549.285L795.486 549.273C795.431 551.046 795.358 552.813 795.267 554.576L795.647 554.596C795.555 556.38 795.445 558.159 795.316 559.933L794.937 559.905C794.809 561.676 794.662 563.442 794.498 565.203L794.876 565.239C794.711 567.013 794.527 568.781 794.325 570.544L793.947 570.501C793.745 572.268 793.524 574.029 793.286 575.785L793.663 575.836C793.424 577.598 793.167 579.354 792.892 581.103L792.516 581.044C792.24 582.803 791.945 584.556 791.633 586.303L792.007 586.37C791.694 588.119 791.364 589.863 791.015 591.599L790.642 591.525C790.293 593.269 789.925 595.008 789.539 596.739L789.91 596.822C789.524 598.559 789.12 600.289 788.698 602.012L788.328 601.921C787.906 603.647 787.466 605.365 787.008 607.077L787.376 607.175C786.916 608.895 786.438 610.608 785.944 612.314L785.578 612.208C785.084 613.912 784.573 615.609 784.044 617.298L784.407 617.411C783.874 619.112 783.325 620.804 782.758 622.489L782.397 622.368C781.831 624.05 781.248 625.725 780.648 627.391L781.006 627.52C780.403 629.194 779.783 630.861 779.146 632.52L778.791 632.383C778.154 634.041 777.5 635.691 776.83 637.332L777.182 637.475C776.509 639.122 775.82 640.759 775.114 642.388L774.765 642.237C774.059 643.867 773.336 645.489 772.596 647.101L772.942 647.259C772.201 648.875 771.444 650.481 770.671 652.078L770.329 651.912C769.554 653.512 768.763 655.102 767.956 656.683L768.295 656.855C767.486 658.439 766.662 660.012 765.822 661.576L765.487 661.396C764.646 662.96 763.79 664.515 762.917 666.06L763.248 666.247C762.374 667.795 761.484 669.334 760.579 670.861L760.251 670.668C759.346 672.195 758.426 673.712 757.49 675.218L757.813 675.419C756.874 676.929 755.92 678.429 754.951 679.918L754.633 679.711C753.665 681.199 752.682 682.675 751.684 684.141L751.998 684.355C750.997 685.825 749.981 687.284 748.95 688.732L748.64 688.511C747.611 689.957 746.567 691.391 745.509 692.814L745.814 693.041C744.753 694.468 743.677 695.883 742.587 697.287L742.286 697.053C741.198 698.455 740.094 699.845 738.977 701.223L739.273 701.462C738.153 702.843 737.019 704.212 735.872 705.569L735.582 705.323C734.435 706.678 733.275 708.021 732.101 709.352L732.386 709.603C731.21 710.936 730.021 712.256 728.818 713.564L728.538 713.306C727.336 714.612 726.121 715.906 724.893 717.187L725.167 717.45C723.937 718.732 722.693 720.002 721.437 721.259L721.168 720.99C719.913 722.245 718.645 723.486 717.365 724.715L717.628 724.989C716.345 726.219 715.05 727.436 713.742 728.64L713.484 728.36C712.179 729.561 710.86 730.749 709.53 731.923L709.781 732.208C708.449 733.384 707.104 734.546 705.747 735.694L705.501 735.404C704.146 736.549 702.78 737.681 701.401 738.799L701.64 739.095C700.26 740.213 698.868 741.318 697.465 742.409L697.231 742.108C695.83 743.197 694.417 744.271 692.992 745.331L693.219 745.636C691.794 746.696 690.358 747.741 688.91 748.772L688.689 748.462C687.244 749.492 685.787 750.506 684.319 751.505L684.533 751.82C683.065 752.819 681.586 753.804 680.097 754.773L679.889 754.454C678.402 755.422 676.904 756.375 675.396 757.312L675.597 757.635C674.088 758.572 672.569 759.494 671.039 760.401L670.846 760.073C669.32 760.978 667.784 761.866 666.238 762.739L666.425 763.07C664.878 763.944 663.321 764.802 661.754 765.644L661.574 765.309C660.012 766.148 658.441 766.971 656.861 767.778L657.034 768.117C655.451 768.925 653.858 769.717 652.256 770.493L652.09 770.151C650.496 770.923 648.892 771.679 647.279 772.418L647.438 772.764C645.823 773.505 644.199 774.229 642.566 774.936L642.415 774.587C640.789 775.292 639.153 775.98 637.51 776.652L637.653 777.004C636.01 777.675 634.358 778.33 632.698 778.968L632.561 778.613C630.905 779.249 629.241 779.868 627.569 780.47L627.698 780.828C626.029 781.429 624.352 782.013 622.667 782.58L622.546 782.219C620.864 782.785 619.174 783.334 617.476 783.866L617.59 784.229C615.898 784.758 614.199 785.271 612.492 785.766L612.386 785.4C610.683 785.894 608.973 786.371 607.255 786.83L607.353 787.198C605.639 787.656 603.918 788.097 602.19 788.52L602.1 788.15C600.379 788.572 598.652 788.975 596.918 789.361L597 789.732C595.266 790.118 593.525 790.487 591.778 790.837L591.703 790.464C589.969 790.812 588.228 791.142 586.481 791.455L586.548 791.829C584.799 792.142 583.043 792.437 581.281 792.714L581.222 792.338C579.475 792.613 577.722 792.869 575.963 793.108L576.015 793.485C574.256 793.724 572.492 793.944 570.722 794.147L570.679 793.769C568.919 793.971 567.153 794.154 565.382 794.32L565.417 794.698C563.653 794.863 561.885 795.01 560.111 795.138L560.083 794.759C558.312 794.887 556.536 794.998 554.755 795.09L554.774 795.469C553.009 795.56 551.238 795.633 549.463 795.688L549.452 795.308C547.68 795.363 545.904 795.4 544.123 795.418L544.127 795.798C543.236 795.807 542.343 795.812 541.449 795.812V795.432Z" stroke="#292929" stroke-width="0.76048" stroke-dasharray="5.32"/>
</g>
<defs>
<clipPath id="clip0_1834_2268">
<rect width="1083" height="513" fill="white"/>
</clipPath>
</defs>
</svg>
