<svg width="73" height="72" viewBox="0 0 73 72" fill="none" xmlns="http://www.w3.org/2000/svg">
<path d="M36.831 71.955C56.7009 71.955 72.8085 55.8473 72.8085 35.9775C72.8085 16.1077 56.7009 0 36.831 0C16.9612 0 0.853516 16.1077 0.853516 35.9775C0.853516 55.8473 16.9612 71.955 36.831 71.955Z" fill="white"/>
<circle cx="36.8306" cy="35.9775" r="17.9888" fill="#473AE9"/>
<path d="M41.6778 39.2785L38.0441 35.9775H35.6066L31.9728 39.2785C30.9565 40.1959 30.6237 41.608 31.1184 42.8852C31.6131 44.1534 32.8183 44.9719 34.1765 44.9719H39.4742C40.8413 44.9719 42.0376 44.1534 42.5322 42.8852C43.0269 41.608 42.6941 40.1959 41.6778 39.2785ZM38.4668 41.5001H35.1928C34.8511 41.5001 34.5812 41.2213 34.5812 40.8885C34.5812 40.5557 34.86 40.2769 35.1928 40.2769H38.4668C38.8086 40.2769 39.0784 40.5557 39.0784 40.8885C39.0784 41.2213 38.7996 41.5001 38.4668 41.5001Z" fill="white"/>
<path d="M42.5431 29.0699C42.0484 27.8016 40.8431 26.9832 39.485 26.9832H34.1783C32.8201 26.9832 31.6149 27.8016 31.1202 29.0699C30.6345 30.3471 30.9673 31.7592 31.9837 32.6766L35.6174 35.9775H38.0549L41.6886 32.6766C42.696 31.7592 43.0288 30.3471 42.5431 29.0699ZM38.4686 31.6872H35.1947C34.8529 31.6872 34.583 31.4084 34.583 31.0756C34.583 30.7428 34.8619 30.464 35.1947 30.464H38.4686C38.8104 30.464 39.0802 30.7428 39.0802 31.0756C39.0802 31.4084 38.8014 31.6872 38.4686 31.6872Z" fill="white"/>
</svg>
