<svg width="72" height="72" viewBox="0 0 72 72" fill="none" xmlns="http://www.w3.org/2000/svg">
<path d="M35.9775 71.955C55.8473 71.955 71.955 55.8473 71.955 35.9775C71.955 16.1077 55.8473 0 35.9775 0C16.1077 0 0 16.1077 0 35.9775C0 55.8473 16.1077 71.955 35.9775 71.955Z" fill="white"/>
<circle cx="35.977" cy="35.9775" r="17.9888" fill="#30CF83"/>
<path d="M41.2935 34.8263H38.5142V28.3504C38.5142 26.8393 37.6957 26.5335 36.6974 27.6668L35.9778 28.4853L29.8886 35.4109C29.0521 36.3553 29.4029 37.1289 30.6621 37.1289H33.4414V43.6048C33.4414 45.1159 34.2599 45.4217 35.2583 44.2884L35.9778 43.4699L42.067 36.5442C42.9035 35.5998 42.5527 34.8263 41.2935 34.8263Z" fill="white"/>
</svg>
