<svg width="30" height="30" viewBox="0 0 30 30" fill="none" xmlns="http://www.w3.org/2000/svg">
<path fill-rule="evenodd" clip-rule="evenodd" d="M20.5231 15.0473C22.4763 16.4332 23.4554 18.3957 23.4372 20.8773C23.4332 24.3437 20.7886 26.8218 16.6798 27.411V30C24.1734 29.1597 30 22.7645 30 15C30 7.23548 24.1734 0.840261 16.6798 0V2.64665C18.6888 2.85104 20.7233 3.50954 22.2098 4.47494L19.9549 7.97348C18.8175 7.23867 16.986 6.74283 15.3941 6.74283C13.2082 6.74283 10.6548 7.44313 10.6548 9.41139C10.6548 11.1785 11.7248 11.7685 15.4133 12.8887C17.1839 13.4236 19.0146 13.9802 20.5231 15.0473ZM12.5201 0.111719V2.87574C8.82248 3.69061 6.49317 6.11161 6.49317 9.41139C6.49317 11.7224 7.4518 13.5551 9.33691 14.8478C10.7676 15.8325 12.5116 16.3622 14.1974 16.8742L14.2085 16.8776C17.8265 17.9731 19.2957 18.6407 19.2789 20.8514L19.2788 20.8677C19.2788 22.7233 16.8242 23.3829 14.7213 23.3829C12.7347 23.3829 10.5745 22.5108 9.35002 21.214L6.32812 24.0776C7.87885 25.7207 10.1318 26.8823 12.52 27.3376V29.8883C5.41589 28.699 0 22.4859 0 15C0 7.51409 5.41594 1.30099 12.5201 0.111719Z" fill="#8E00C5"/>
</svg>
