<svg width="640" height="474" viewBox="0 0 640 474" fill="none" xmlns="http://www.w3.org/2000/svg">
<g filter="url(#filter0_d_2490_11342)">
<g clip-path="url(#clip0_2490_11342)">
<rect x="21.9999" y="16" width="592" height="426" rx="20" fill="#292929"/>
<path d="M21.9999 36C21.9999 24.9543 30.9542 16 41.9999 16H595C606.046 16 615 24.9543 615 36V49H21.9999V36Z" fill="#292929"/>
<ellipse cx="65.9142" cy="42.3319" rx="6.27374" ry="6.28111" fill="#30CF83"/>
<ellipse cx="87.2424" cy="42.3319" rx="6.27374" ry="6.28111" fill="#FFA427"/>
<ellipse cx="108.578" cy="42.3319" rx="6.27374" ry="6.28111" fill="#FF6E63"/>
<path d="M107.305 108.953V107.461L100.586 111.422V112.578L107.305 116.539V115.047L101.93 112.07V111.93L107.305 108.953ZM110.75 110.812C110.75 112.016 111.508 112.789 113.039 113.141L114.297 113.43C115.375 113.672 115.789 114.031 115.789 114.703C115.789 115.516 115.055 116.039 113.898 116.039C112.805 116.039 112.055 115.586 111.859 114.805H110.508C110.656 116.258 111.93 117.156 113.851 117.156C115.859 117.156 117.164 116.141 117.164 114.578C117.164 113.352 116.414 112.633 114.766 112.258L113.57 111.984C112.508 111.75 112.07 111.383 112.07 110.734C112.07 109.961 112.766 109.461 113.844 109.461C114.836 109.461 115.547 109.914 115.703 110.656H116.984C116.828 109.242 115.633 108.359 113.867 108.359C112 108.359 110.75 109.344 110.75 110.812ZM127.258 111.164C127.039 109.422 125.758 108.359 123.883 108.359C121.578 108.359 120.234 109.773 120.234 112.203V113.312C120.234 115.742 121.578 117.156 123.883 117.156C125.758 117.156 127.047 116.102 127.258 114.375H125.945C125.781 115.344 124.953 115.961 123.859 115.961C122.383 115.961 121.562 114.961 121.562 113.141V112.375C121.562 110.555 122.383 109.547 123.859 109.547C124.953 109.547 125.781 110.172 125.945 111.164H127.258ZM133.281 113.203C133.281 111.047 134.391 109.75 136.266 109.75C136.726 109.75 137.273 109.844 137.664 109.984V108.492C137.383 108.375 136.922 108.305 136.437 108.305C134.805 108.305 133.75 109.117 133.437 110.688H133.266V108.523H130.101V109.586H131.984V115.938H130.273V117H135.906V115.938H133.281V113.203ZM143.656 106.445C144.281 106.445 144.758 105.977 144.758 105.352C144.758 104.734 144.281 104.266 143.656 104.266C143.031 104.266 142.555 104.734 142.555 105.352C142.555 105.977 143.031 106.445 143.656 106.445ZM147.211 117V115.898H144.406V108.523H140.211V109.625H143.094V115.898H140.187V117H147.211ZM153.93 108.383C152.719 108.383 151.836 108.883 151.391 109.82H151.25V108.523H149.937V119.859H151.289V115.688H151.437C151.805 116.617 152.703 117.141 153.93 117.141C155.891 117.141 157.172 115.727 157.172 113.555V111.977C157.172 109.797 155.891 108.383 153.93 108.383ZM153.547 109.602C154.945 109.602 155.836 110.602 155.836 112.164V113.383C155.836 114.945 154.945 115.953 153.547 115.953C152.148 115.953 151.258 114.953 151.258 113.383V112.164C151.258 110.602 152.148 109.602 153.547 109.602ZM161.844 106.25V108.547H159.586V109.68H161.844V114.477C161.844 116.242 162.82 117.039 164.922 117.039C165.328 117.039 166.359 117 166.57 116.961V115.836C166.344 115.859 165.492 115.883 165.016 115.883C163.82 115.883 163.172 115.383 163.172 114.461V109.68H166.594V108.547H163.156V106.25H161.844ZM179.984 110.812C179.984 112.016 180.742 112.789 182.273 113.141L183.531 113.43C184.609 113.672 185.023 114.031 185.023 114.703C185.023 115.516 184.289 116.039 183.133 116.039C182.039 116.039 181.289 115.586 181.094 114.805H179.742C179.891 116.258 181.164 117.156 183.086 117.156C185.094 117.156 186.398 116.141 186.398 114.578C186.398 113.352 185.648 112.633 184 112.258L182.805 111.984C181.742 111.75 181.305 111.383 181.305 110.734C181.305 109.961 182 109.461 183.078 109.461C184.07 109.461 184.781 109.914 184.937 110.656H186.219C186.062 109.242 184.867 108.359 183.101 108.359C181.234 108.359 179.984 109.344 179.984 110.812ZM192.625 113.203C192.625 111.047 193.734 109.75 195.609 109.75C196.07 109.75 196.617 109.844 197.008 109.984V108.492C196.726 108.375 196.266 108.305 195.781 108.305C194.148 108.305 193.094 109.117 192.781 110.688H192.609V108.523H189.445V109.586H191.328V115.938H189.617V117H195.25V115.938H192.625V113.203ZM206.383 111.164C206.164 109.422 204.883 108.359 203.008 108.359C200.703 108.359 199.359 109.773 199.359 112.203V113.312C199.359 115.742 200.703 117.156 203.008 117.156C204.883 117.156 206.172 116.102 206.383 114.375H205.07C204.906 115.344 204.078 115.961 202.984 115.961C201.508 115.961 200.687 114.961 200.687 113.141V112.375C200.687 110.555 201.508 109.547 202.984 109.547C204.078 109.547 204.906 110.172 205.07 111.164H206.383ZM308.289 129.953L313.656 132.93V133.07L308.289 136.047V137.539L315.008 133.578V132.422L308.289 128.461V129.953ZM324.898 129.953V128.461L318.18 132.422V133.578L324.898 137.539V136.047L319.523 133.07V132.93L324.898 129.953ZM329.328 139.07L334.828 125.656H333.523L328.031 139.07H329.328ZM338.234 131.812C338.234 133.016 338.992 133.789 340.523 134.141L341.781 134.43C342.859 134.672 343.273 135.031 343.273 135.703C343.273 136.516 342.539 137.039 341.383 137.039C340.289 137.039 339.539 136.586 339.344 135.805H337.992C338.141 137.258 339.414 138.156 341.336 138.156C343.344 138.156 344.648 137.141 344.648 135.578C344.648 134.352 343.898 133.633 342.25 133.258L341.055 132.984C339.992 132.75 339.555 132.383 339.555 131.734C339.555 130.961 340.25 130.461 341.328 130.461C342.32 130.461 343.031 130.914 343.187 131.656H344.469C344.312 130.242 343.117 129.359 341.351 129.359C339.484 129.359 338.234 130.344 338.234 131.812ZM354.742 132.164C354.523 130.422 353.242 129.359 351.367 129.359C349.062 129.359 347.719 130.773 347.719 133.203V134.312C347.719 136.742 349.062 138.156 351.367 138.156C353.242 138.156 354.531 137.102 354.742 135.375H353.43C353.266 136.344 352.437 136.961 351.344 136.961C349.867 136.961 349.047 135.961 349.047 134.141V133.375C349.047 131.555 349.867 130.547 351.344 130.547C352.437 130.547 353.266 131.172 353.43 132.164H354.742ZM360.766 134.203C360.766 132.047 361.875 130.75 363.75 130.75C364.211 130.75 364.758 130.844 365.148 130.984V129.492C364.867 129.375 364.406 129.305 363.922 129.305C362.289 129.305 361.234 130.117 360.922 131.688H360.75V129.523H357.586V130.586H359.469V136.938H357.758V138H363.391V136.938H360.766V134.203ZM371.141 127.445C371.766 127.445 372.242 126.977 372.242 126.352C372.242 125.734 371.766 125.266 371.141 125.266C370.516 125.266 370.039 125.734 370.039 126.352C370.039 126.977 370.516 127.445 371.141 127.445ZM374.695 138V136.898H371.891V129.523H367.695V130.625H370.578V136.898H367.672V138H374.695ZM381.414 129.383C380.203 129.383 379.32 129.883 378.875 130.82H378.734V129.523H377.422V140.859H378.773V136.688H378.922C379.289 137.617 380.187 138.141 381.414 138.141C383.375 138.141 384.656 136.727 384.656 134.555V132.977C384.656 130.797 383.375 129.383 381.414 129.383ZM381.031 130.602C382.43 130.602 383.32 131.602 383.32 133.164V134.383C383.32 135.945 382.43 136.953 381.031 136.953C379.633 136.953 378.742 135.953 378.742 134.383V133.164C378.742 131.602 379.633 130.602 381.031 130.602ZM389.328 127.25V129.547H387.07V130.68H389.328V135.477C389.328 137.242 390.305 138.039 392.406 138.039C392.812 138.039 393.844 138 394.055 137.961V136.836C393.828 136.859 392.976 136.883 392.5 136.883C391.305 136.883 390.656 136.383 390.656 135.461V130.68H394.078V129.547H390.641V127.25H389.328ZM397.305 129.953L402.672 132.93V133.07L397.305 136.047V137.539L404.023 133.578V132.422L397.305 128.461V129.953ZM107.476 174.164C107.258 172.422 105.976 171.359 104.101 171.359C101.797 171.359 100.453 172.773 100.453 175.203V176.312C100.453 178.742 101.797 180.156 104.101 180.156C105.976 180.156 107.266 179.102 107.476 177.375H106.164C106 178.344 105.172 178.961 104.078 178.961C102.601 178.961 101.781 177.961 101.781 176.141V175.375C101.781 173.555 102.601 172.547 104.078 172.547C105.172 172.547 106 173.172 106.164 174.164H107.476ZM113.836 180.156C116.078 180.156 117.508 178.695 117.508 176.406V175.125C117.508 172.836 116.078 171.375 113.836 171.375C111.594 171.375 110.164 172.836 110.164 175.125V176.406C110.164 178.695 111.594 180.156 113.836 180.156ZM113.836 172.547C115.289 172.547 116.195 173.578 116.195 175.242V176.281C116.195 177.953 115.289 178.977 113.836 178.977C112.383 178.977 111.476 177.953 111.476 176.281V175.242C111.476 173.578 112.383 172.547 113.836 172.547ZM120.258 180H121.586V175.008C121.586 173.562 122.523 172.586 123.922 172.586C125.242 172.586 125.867 173.305 125.867 174.836V180H127.195V174.5C127.195 172.469 126.195 171.367 124.351 171.367C123.062 171.367 122.094 171.961 121.641 173.016H121.531V171.523H120.258V180ZM130.531 173.812C130.531 175.016 131.289 175.789 132.82 176.141L134.078 176.43C135.156 176.672 135.57 177.031 135.57 177.703C135.57 178.516 134.836 179.039 133.68 179.039C132.586 179.039 131.836 178.586 131.641 177.805H130.289C130.437 179.258 131.711 180.156 133.633 180.156C135.641 180.156 136.945 179.141 136.945 177.578C136.945 176.352 136.195 175.633 134.547 175.258L133.351 174.984C132.289 174.75 131.851 174.383 131.851 173.734C131.851 172.961 132.547 172.461 133.625 172.461C134.617 172.461 135.328 172.914 135.484 173.656H136.766C136.609 172.242 135.414 171.359 133.648 171.359C131.781 171.359 130.531 172.344 130.531 173.812ZM142.062 169.25V171.547H139.805V172.68H142.062V177.477C142.062 179.242 143.039 180.039 145.141 180.039C145.547 180.039 146.578 180 146.789 179.961V178.836C146.562 178.859 145.711 178.883 145.234 178.883C144.039 178.883 143.391 178.383 143.391 177.461V172.68H146.812V171.547H143.375V169.25H142.062ZM166.82 174.164C166.601 172.422 165.32 171.359 163.445 171.359C161.141 171.359 159.797 172.773 159.797 175.203V176.312C159.797 178.742 161.141 180.156 163.445 180.156C165.32 180.156 166.609 179.102 166.82 177.375H165.508C165.344 178.344 164.516 178.961 163.422 178.961C161.945 178.961 161.125 177.961 161.125 176.141V175.375C161.125 173.555 161.945 172.547 163.422 172.547C164.516 172.547 165.344 173.172 165.508 174.164H166.82ZM173.18 180.156C175.422 180.156 176.851 178.695 176.851 176.406V175.125C176.851 172.836 175.422 171.375 173.18 171.375C170.937 171.375 169.508 172.836 169.508 175.125V176.406C169.508 178.695 170.937 180.156 173.18 180.156ZM173.18 172.547C174.633 172.547 175.539 173.578 175.539 175.242V176.281C175.539 177.953 174.633 178.977 173.18 178.977C171.726 178.977 170.82 177.953 170.82 176.281V175.242C170.82 173.578 171.726 172.547 173.18 172.547ZM179.601 180H180.93V175.008C180.93 173.562 181.867 172.586 183.266 172.586C184.586 172.586 185.211 173.305 185.211 174.836V180H186.539V174.5C186.539 172.469 185.539 171.367 183.695 171.367C182.406 171.367 181.437 171.961 180.984 173.016H180.875V171.523H179.601V180ZM191.711 180H193.039V172.68H196.766V171.547H193.023V170.672C193.023 169.82 193.648 169.383 194.828 169.383C195.305 169.383 196.398 169.414 196.766 169.453V168.367C196.484 168.328 195.305 168.289 194.812 168.289C192.726 168.289 191.711 169.055 191.711 170.695V171.547H189.437V172.68H191.711V180ZM203 169.445C203.625 169.445 204.101 168.977 204.101 168.352C204.101 167.734 203.625 167.266 203 167.266C202.375 167.266 201.898 167.734 201.898 168.352C201.898 168.977 202.375 169.445 203 169.445ZM206.555 180V178.898H203.75V171.523H199.555V172.625H202.437V178.898H199.531V180H206.555ZM212.492 183.18C214.789 183.18 216.148 181.992 216.148 180V171.523H214.836V172.836H214.687C214.32 171.922 213.391 171.383 212.164 171.383C210.18 171.383 208.883 172.789 208.883 174.969V176.492C208.883 178.664 210.172 180.078 212.133 180.078C213.367 180.078 214.305 179.539 214.68 178.648H214.82V179.969C214.82 181.328 214 182.078 212.516 182.078C211.383 182.078 210.531 181.617 210.359 180.914H209.047C209.219 182.32 210.531 183.18 212.492 183.18ZM210.219 176.305V175.141C210.219 173.586 211.125 172.578 212.531 172.578C213.93 172.578 214.828 173.578 214.828 175.141V176.305C214.828 177.867 213.93 178.875 212.531 178.875C211.125 178.875 210.219 177.859 210.219 176.305ZM236.656 173.867V172.578H228.391V173.867H236.656ZM236.656 177.43V176.141H228.391V177.43H236.656ZM255.351 181.07V180H254.5C253.328 180 253.101 179.727 253.101 178.367V176.281C253.101 175.188 252.281 174.461 250.695 174.43V174.305C252.281 174.266 253.101 173.539 253.101 172.445V170.359C253.101 169 253.328 168.727 254.5 168.727H255.351V167.656H254.289C252.391 167.656 251.789 168.258 251.789 170.188V171.938C251.789 173.148 251.086 173.844 249.258 173.656V175.07C251.086 174.883 251.789 175.586 251.789 176.789V178.539C251.789 180.469 252.391 181.07 254.289 181.07H255.351ZM100.898 286.07H101.961C103.859 286.07 104.461 285.469 104.461 283.539V281.789C104.461 280.586 105.164 279.883 106.992 280.07V278.656C105.164 278.844 104.461 278.148 104.461 276.938V275.188C104.461 273.258 103.859 272.656 101.961 272.656H100.898V273.727H101.75C102.922 273.727 103.148 274 103.148 275.359V277.445C103.148 278.539 103.969 279.266 105.555 279.305V279.43C103.969 279.461 103.148 280.188 103.148 281.281V283.367C103.148 284.727 102.922 285 101.75 285H100.898V286.07ZM113.836 279.047C114.609 279.047 115.25 278.391 115.25 277.602C115.25 276.812 114.609 276.156 113.836 276.156C113.062 276.156 112.422 276.812 112.422 277.602C112.422 278.391 113.062 279.047 113.836 279.047ZM113.156 287.602L114.625 282.516H112.867L111.898 287.602H113.156ZM107.476 300.164C107.258 298.422 105.976 297.359 104.101 297.359C101.797 297.359 100.453 298.773 100.453 301.203V302.312C100.453 304.742 101.797 306.156 104.101 306.156C105.976 306.156 107.266 305.102 107.476 303.375H106.164C106 304.344 105.172 304.961 104.078 304.961C102.601 304.961 101.781 303.961 101.781 302.141V301.375C101.781 299.555 102.601 298.547 104.078 298.547C105.172 298.547 106 299.172 106.164 300.164H107.476ZM113.836 306.156C116.078 306.156 117.508 304.695 117.508 302.406V301.125C117.508 298.836 116.078 297.375 113.836 297.375C111.594 297.375 110.164 298.836 110.164 301.125V302.406C110.164 304.695 111.594 306.156 113.836 306.156ZM113.836 298.547C115.289 298.547 116.195 299.578 116.195 301.242V302.281C116.195 303.953 115.289 304.977 113.836 304.977C112.383 304.977 111.476 303.953 111.476 302.281V301.242C111.476 299.578 112.383 298.547 113.836 298.547ZM120.258 306H121.586V301.008C121.586 299.562 122.523 298.586 123.922 298.586C125.242 298.586 125.867 299.305 125.867 300.836V306H127.195V300.5C127.195 298.469 126.195 297.367 124.351 297.367C123.062 297.367 122.094 297.961 121.641 299.016H121.531V297.523H120.258V306ZM130.531 299.812C130.531 301.016 131.289 301.789 132.82 302.141L134.078 302.43C135.156 302.672 135.57 303.031 135.57 303.703C135.57 304.516 134.836 305.039 133.68 305.039C132.586 305.039 131.836 304.586 131.641 303.805H130.289C130.437 305.258 131.711 306.156 133.633 306.156C135.641 306.156 136.945 305.141 136.945 303.578C136.945 302.352 136.195 301.633 134.547 301.258L133.351 300.984C132.289 300.75 131.851 300.383 131.851 299.734C131.851 298.961 132.547 298.461 133.625 298.461C134.617 298.461 135.328 298.914 135.484 299.656H136.766C136.609 298.242 135.414 297.359 133.648 297.359C131.781 297.359 130.531 298.344 130.531 299.812ZM142.062 295.25V297.547H139.805V298.68H142.062V303.477C142.062 305.242 143.039 306.039 145.141 306.039C145.547 306.039 146.578 306 146.789 305.961V304.836C146.562 304.859 145.711 304.883 145.234 304.883C144.039 304.883 143.391 304.383 143.391 303.461V298.68H146.812V297.547H143.375V295.25H142.062ZM163.82 297.383C162.609 297.383 161.726 297.883 161.281 298.82H161.141V297.523H159.828V308.859H161.18V304.688H161.328C161.695 305.617 162.594 306.141 163.82 306.141C165.781 306.141 167.062 304.727 167.062 302.555V300.977C167.062 298.797 165.781 297.383 163.82 297.383ZM163.437 298.602C164.836 298.602 165.726 299.602 165.726 301.164V302.383C165.726 303.945 164.836 304.953 163.437 304.953C162.039 304.953 161.148 303.953 161.148 302.383V301.164C161.148 299.602 162.039 298.602 163.437 298.602ZM169.703 306H171.031V301.016C171.031 299.57 171.976 298.594 173.375 298.594C174.703 298.594 175.328 299.32 175.328 300.844V306H176.656V300.508C176.656 298.484 175.656 297.375 173.812 297.375C172.516 297.375 171.539 297.969 171.094 299.023H170.984V294.195H169.703V306ZM180.695 309.016C182.266 309.016 182.976 308.398 183.719 306.312L186.914 297.523H185.5L183.133 304.617H183.031L180.656 297.523H179.211L182.328 306.055L182.18 306.516C181.828 307.5 181.391 307.859 180.594 307.859C180.469 307.859 180.226 307.852 180.125 307.828V308.992C180.242 309.008 180.5 309.016 180.695 309.016ZM196.664 306V304.898H193.867V294.195H189.664V295.297H192.539V304.898H189.641V306H196.664ZM206.555 306V304.898H203.758V294.195H199.555V295.297H202.43V304.898H199.531V306H206.555ZM212.742 306.156C214.984 306.156 216.414 304.695 216.414 302.406V301.125C216.414 298.836 214.984 297.375 212.742 297.375C210.5 297.375 209.07 298.836 209.07 301.125V302.406C209.07 304.695 210.5 306.156 212.742 306.156ZM212.742 298.547C214.195 298.547 215.101 299.578 215.101 301.242V302.281C215.101 303.953 214.195 304.977 212.742 304.977C211.289 304.977 210.383 303.953 210.383 302.281V301.242C210.383 299.578 211.289 298.547 212.742 298.547ZM222.891 304.93C221.062 304.93 220.109 303.703 220.109 301.367V299.359C220.109 297.023 221.062 295.797 222.883 295.797C224.328 295.797 225.336 296.82 225.383 298.344H226.781C226.734 295.938 225.266 294.492 222.891 294.492C220.242 294.492 218.703 296.281 218.703 299.359V301.367C218.703 304.445 220.242 306.234 222.891 306.234C225.195 306.234 226.773 304.758 226.773 302.578H225.383C225.344 304.031 224.391 304.93 222.891 304.93ZM232.523 306.156C234.766 306.156 236.195 304.695 236.195 302.406V301.125C236.195 298.836 234.766 297.375 232.523 297.375C230.281 297.375 228.851 298.836 228.851 301.125V302.406C228.851 304.695 230.281 306.156 232.523 306.156ZM232.523 298.547C233.976 298.547 234.883 299.578 234.883 301.242V302.281C234.883 303.953 233.976 304.977 232.523 304.977C231.07 304.977 230.164 303.953 230.164 302.281V301.242C230.164 299.578 231.07 298.547 232.523 298.547ZM238.945 306H240.273V301.008C240.273 299.562 241.211 298.586 242.609 298.586C243.93 298.586 244.555 299.305 244.555 300.836V306H245.883V300.5C245.883 298.469 244.883 297.367 243.039 297.367C241.75 297.367 240.781 297.961 240.328 299.016H240.219V297.523H238.945V306ZM248.836 306H250.164V301.008C250.164 299.562 251.101 298.586 252.5 298.586C253.82 298.586 254.445 299.305 254.445 300.836V306H255.773V300.5C255.773 298.469 254.773 297.367 252.93 297.367C251.641 297.367 250.672 297.961 250.219 299.016H250.109V297.523H248.836V306ZM264.484 303.812C264.25 304.555 263.461 305.008 262.391 305.008C260.945 305.008 260.023 304.008 260.023 302.453V302.109H265.797V301.281C265.797 298.828 264.5 297.367 262.297 297.367C260.141 297.367 258.711 298.836 258.711 301.07V302.344C258.711 304.758 260.062 306.156 262.391 306.156C264.172 306.156 265.516 305.211 265.773 303.812H264.484ZM262.289 298.508C263.656 298.508 264.484 299.484 264.484 301.102H260.023C260.023 299.477 260.875 298.508 262.289 298.508ZM275.617 300.164C275.398 298.422 274.117 297.359 272.242 297.359C269.937 297.359 268.594 298.773 268.594 301.203V302.312C268.594 304.742 269.937 306.156 272.242 306.156C274.117 306.156 275.406 305.102 275.617 303.375H274.305C274.141 304.344 273.312 304.961 272.219 304.961C270.742 304.961 269.922 303.961 269.922 302.141V301.375C269.922 299.555 270.742 298.547 272.219 298.547C273.312 298.547 274.141 299.172 274.305 300.164H275.617ZM280.531 295.25V297.547H278.273V298.68H280.531V303.477C280.531 305.242 281.508 306.039 283.609 306.039C284.016 306.039 285.047 306 285.258 305.961V304.836C285.031 304.859 284.18 304.883 283.703 304.883C282.508 304.883 281.859 304.383 281.859 303.461V298.68H285.281V297.547H281.844V295.25H280.531ZM420.445 321.047C421.219 321.047 421.859 320.391 421.859 319.602C421.859 318.812 421.219 318.156 420.445 318.156C419.672 318.156 419.031 318.812 419.031 319.602C419.031 320.391 419.672 321.047 420.445 321.047ZM419.766 329.602L421.234 324.516H419.476L418.508 329.602H419.766ZM301.758 363.047C302.531 363.047 303.172 362.391 303.172 361.602C303.172 360.812 302.531 360.156 301.758 360.156C300.984 360.156 300.344 360.812 300.344 361.602C300.344 362.391 300.984 363.047 301.758 363.047ZM301.078 371.602L302.547 366.516H300.789L299.82 371.602H301.078Z" fill="#E7AAFF"/>
<path d="M216.875 110.867V109.578H208.609V110.867H216.875ZM216.875 114.43V113.141H208.609V114.43H216.875ZM221.82 110.758V105.727H220.391V110.758H221.82ZM224.875 110.758V105.727H223.437V110.758H224.875ZM229.047 117H230.375V112.016C230.375 110.57 231.32 109.594 232.719 109.594C234.047 109.594 234.672 110.32 234.672 111.844V117H236V111.508C236 109.484 235 108.375 233.156 108.375C231.859 108.375 230.883 108.969 230.437 110.023H230.328V105.195H229.047V117ZM240.969 106.25V108.547H238.711V109.68H240.969V114.477C240.969 116.242 241.945 117.039 244.047 117.039C244.453 117.039 245.484 117 245.695 116.961V115.836C245.469 115.859 244.617 115.883 244.141 115.883C242.945 115.883 242.297 115.383 242.297 114.461V109.68H245.719V108.547H242.281V106.25H240.969ZM250.859 106.25V108.547H248.601V109.68H250.859V114.477C250.859 116.242 251.836 117.039 253.937 117.039C254.344 117.039 255.375 117 255.586 116.961V115.836C255.359 115.859 254.508 115.883 254.031 115.883C252.836 115.883 252.187 115.383 252.187 114.461V109.68H255.609V108.547H252.172V106.25H250.859ZM262.726 108.383C261.516 108.383 260.633 108.883 260.187 109.82H260.047V108.523H258.734V119.859H260.086V115.688H260.234C260.601 116.617 261.5 117.141 262.726 117.141C264.687 117.141 265.969 115.727 265.969 113.555V111.977C265.969 109.797 264.687 108.383 262.726 108.383ZM262.344 109.602C263.742 109.602 264.633 110.602 264.633 112.164V113.383C264.633 114.945 263.742 115.953 262.344 115.953C260.945 115.953 260.055 114.953 260.055 113.383V112.164C260.055 110.602 260.945 109.602 262.344 109.602ZM269 110.812C269 112.016 269.758 112.789 271.289 113.141L272.547 113.43C273.625 113.672 274.039 114.031 274.039 114.703C274.039 115.516 273.305 116.039 272.148 116.039C271.055 116.039 270.305 115.586 270.109 114.805H268.758C268.906 116.258 270.18 117.156 272.101 117.156C274.109 117.156 275.414 116.141 275.414 114.578C275.414 113.352 274.664 112.633 273.016 112.258L271.82 111.984C270.758 111.75 270.32 111.383 270.32 110.734C270.32 109.961 271.016 109.461 272.094 109.461C273.086 109.461 273.797 109.914 273.953 110.656H275.234C275.078 109.242 273.883 108.359 272.117 108.359C270.25 108.359 269 109.344 269 110.812ZM281.976 111.047C282.75 111.047 283.391 110.391 283.391 109.602C283.391 108.812 282.75 108.156 281.976 108.156C281.203 108.156 280.562 108.812 280.562 109.602C280.562 110.391 281.203 111.047 281.976 111.047ZM281.976 117.047C282.75 117.047 283.391 116.398 283.391 115.602C283.391 114.812 282.75 114.164 281.976 114.164C281.203 114.164 280.562 114.812 280.562 115.602C280.562 116.398 281.203 117.047 281.976 117.047ZM289.766 118.07L295.266 104.656H293.961L288.469 118.07H289.766ZM299.656 118.07L305.156 104.656H303.851L298.359 118.07H299.656ZM315.18 111.164C314.961 109.422 313.68 108.359 311.805 108.359C309.5 108.359 308.156 109.773 308.156 112.203V113.312C308.156 115.742 309.5 117.156 311.805 117.156C313.68 117.156 314.969 116.102 315.18 114.375H313.867C313.703 115.344 312.875 115.961 311.781 115.961C310.305 115.961 309.484 114.961 309.484 113.141V112.375C309.484 110.555 310.305 109.547 311.781 109.547C312.875 109.547 313.703 110.172 313.867 111.164H315.18ZM321.008 117.141C322.219 117.141 323.109 116.641 323.547 115.703H323.695V117H325V105.195H323.648V109.836H323.508C323.141 108.906 322.234 108.383 321.008 108.383C319.047 108.383 317.766 109.797 317.766 111.969V113.547C317.766 115.727 319.047 117.141 321.008 117.141ZM321.398 115.93C320 115.93 319.101 114.922 319.101 113.359V112.141C319.101 110.578 320 109.578 321.398 109.578C322.789 109.578 323.687 110.578 323.687 112.141V113.359C323.687 114.93 322.789 115.93 321.398 115.93ZM327.961 117H329.289V112.008C329.289 110.562 330.226 109.586 331.625 109.586C332.945 109.586 333.57 110.305 333.57 111.836V117H334.898V111.5C334.898 109.469 333.898 108.367 332.055 108.367C330.766 108.367 329.797 108.961 329.344 110.016H329.234V108.523H327.961V117ZM341.32 117.047C342.094 117.047 342.734 116.398 342.734 115.602C342.734 114.812 342.094 114.164 341.32 114.164C340.547 114.164 339.906 114.812 339.906 115.602C339.906 116.398 340.547 117.047 341.32 117.047ZM350.961 120.18C353.258 120.18 354.617 118.992 354.617 117V108.523H353.305V109.836H353.156C352.789 108.922 351.859 108.383 350.633 108.383C348.648 108.383 347.351 109.789 347.351 111.969V113.492C347.351 115.664 348.641 117.078 350.601 117.078C351.836 117.078 352.773 116.539 353.148 115.648H353.289V116.969C353.289 118.328 352.469 119.078 350.984 119.078C349.851 119.078 349 118.617 348.828 117.914H347.516C347.687 119.32 349 120.18 350.961 120.18ZM348.687 113.305V112.141C348.687 110.586 349.594 109.578 351 109.578C352.398 109.578 353.297 110.578 353.297 112.141V113.305C353.297 114.867 352.398 115.875 351 115.875C349.594 115.875 348.687 114.859 348.687 113.305ZM363.391 114.812C363.156 115.555 362.367 116.008 361.297 116.008C359.851 116.008 358.93 115.008 358.93 113.453V113.109H364.703V112.281C364.703 109.828 363.406 108.367 361.203 108.367C359.047 108.367 357.617 109.836 357.617 112.07V113.344C357.617 115.758 358.969 117.156 361.297 117.156C363.078 117.156 364.422 116.211 364.68 114.812H363.391ZM361.195 109.508C362.562 109.508 363.391 110.484 363.391 112.102H358.93C358.93 110.477 359.781 109.508 361.195 109.508ZM369.547 106.25V108.547H367.289V109.68H369.547V114.477C369.547 116.242 370.523 117.039 372.625 117.039C373.031 117.039 374.062 117 374.273 116.961V115.836C374.047 115.859 373.195 115.883 372.719 115.883C371.523 115.883 370.875 115.383 370.875 114.461V109.68H374.297V108.547H370.859V106.25H369.547ZM381.414 108.383C380.203 108.383 379.32 108.883 378.875 109.82H378.734V108.523H377.422V119.859H378.773V115.688H378.922C379.289 116.617 380.187 117.141 381.414 117.141C383.375 117.141 384.656 115.727 384.656 113.555V111.977C384.656 109.797 383.375 108.383 381.414 108.383ZM381.031 109.602C382.43 109.602 383.32 110.602 383.32 112.164V113.383C383.32 114.945 382.43 115.953 381.031 115.953C379.633 115.953 378.742 114.953 378.742 113.383V112.164C378.742 110.602 379.633 109.602 381.031 109.602ZM387.297 117H388.625V112.016C388.625 110.57 389.57 109.594 390.969 109.594C392.297 109.594 392.922 110.32 392.922 111.844V117H394.25V111.508C394.25 109.484 393.25 108.375 391.406 108.375C390.109 108.375 389.133 108.969 388.687 110.023H388.578V105.195H387.297V117ZM398.289 120.016C399.859 120.016 400.57 119.398 401.312 117.312L404.508 108.523H403.094L400.726 115.617H400.625L398.25 108.523H396.805L399.922 117.055L399.773 117.516C399.422 118.5 398.984 118.859 398.187 118.859C398.062 118.859 397.82 118.852 397.719 118.828V119.992C397.836 120.008 398.094 120.016 398.289 120.016ZM414.258 117V115.898H411.461V105.195H407.258V106.297H410.133V115.898H407.234V117H414.258ZM424.148 117V115.898H421.351V105.195H417.148V106.297H420.023V115.898H417.125V117H424.148ZM430.336 117.156C432.578 117.156 434.008 115.695 434.008 113.406V112.125C434.008 109.836 432.578 108.375 430.336 108.375C428.094 108.375 426.664 109.836 426.664 112.125V113.406C426.664 115.695 428.094 117.156 430.336 117.156ZM430.336 109.547C431.789 109.547 432.695 110.578 432.695 112.242V113.281C432.695 114.953 431.789 115.977 430.336 115.977C428.883 115.977 427.976 114.953 427.976 113.281V112.242C427.976 110.578 428.883 109.547 430.336 109.547ZM440.226 117.047C441 117.047 441.641 116.398 441.641 115.602C441.641 114.812 441 114.164 440.226 114.164C439.453 114.164 438.812 114.812 438.812 115.602C438.812 116.398 439.453 117.047 440.226 117.047ZM453.648 111.164C453.43 109.422 452.148 108.359 450.273 108.359C447.969 108.359 446.625 109.773 446.625 112.203V113.312C446.625 115.742 447.969 117.156 450.273 117.156C452.148 117.156 453.437 116.102 453.648 114.375H452.336C452.172 115.344 451.344 115.961 450.25 115.961C448.773 115.961 447.953 114.961 447.953 113.141V112.375C447.953 110.555 448.773 109.547 450.25 109.547C451.344 109.547 452.172 110.172 452.336 111.164H453.648ZM460.008 117.156C462.25 117.156 463.68 115.695 463.68 113.406V112.125C463.68 109.836 462.25 108.375 460.008 108.375C457.766 108.375 456.336 109.836 456.336 112.125V113.406C456.336 115.695 457.766 117.156 460.008 117.156ZM460.008 109.547C461.461 109.547 462.367 110.578 462.367 112.242V113.281C462.367 114.953 461.461 115.977 460.008 115.977C458.555 115.977 457.648 114.953 457.648 113.281V112.242C457.648 110.578 458.555 109.547 460.008 109.547ZM473.984 110.758C473.984 109.188 473.367 108.367 472.187 108.367C471.336 108.367 470.656 108.883 470.437 109.695H470.297C470.117 108.859 469.555 108.367 468.758 108.367C467.961 108.367 467.351 108.867 467.141 109.719H467V108.523H465.812V117H467.008V111.281C467.008 110.227 467.476 109.578 468.226 109.578C468.945 109.578 469.32 110.117 469.32 111.141V117H470.508V111.281C470.508 110.227 470.961 109.578 471.703 109.578C472.414 109.578 472.789 110.117 472.789 111.148V117H473.984V110.758ZM477.687 118.07L483.187 104.656H481.883L476.391 118.07H477.687ZM493.211 111.164C492.992 109.422 491.711 108.359 489.836 108.359C487.531 108.359 486.187 109.773 486.187 112.203V113.312C486.187 115.742 487.531 117.156 489.836 117.156C491.711 117.156 493 116.102 493.211 114.375H491.898C491.734 115.344 490.906 115.961 489.812 115.961C488.336 115.961 487.516 114.961 487.516 113.141V112.375C487.516 110.555 488.336 109.547 489.812 109.547C490.906 109.547 491.734 110.172 491.898 111.164H493.211ZM499.57 117.156C501.812 117.156 503.242 115.695 503.242 113.406V112.125C503.242 109.836 501.812 108.375 499.57 108.375C497.328 108.375 495.898 109.836 495.898 112.125V113.406C495.898 115.695 497.328 117.156 499.57 117.156ZM499.57 109.547C501.023 109.547 501.93 110.578 501.93 112.242V113.281C501.93 114.953 501.023 115.977 499.57 115.977C498.117 115.977 497.211 114.953 497.211 113.281V112.242C497.211 110.578 498.117 109.547 499.57 109.547ZM505.992 117H507.32V112.008C507.32 110.562 508.258 109.586 509.656 109.586C510.976 109.586 511.601 110.305 511.601 111.836V117H512.93V111.5C512.93 109.469 511.93 108.367 510.086 108.367C508.797 108.367 507.828 108.961 507.375 110.016H507.266V108.523H505.992V117ZM515.883 117H517.211V112.008C517.211 110.562 518.148 109.586 519.547 109.586C520.867 109.586 521.492 110.305 521.492 111.836V117H522.82V111.5C522.82 109.469 521.82 108.367 519.976 108.367C518.687 108.367 517.719 108.961 517.266 110.016H517.156V108.523H515.883V117ZM531.531 114.812C531.297 115.555 530.508 116.008 529.437 116.008C527.992 116.008 527.07 115.008 527.07 113.453V113.109H532.844V112.281C532.844 109.828 531.547 108.367 529.344 108.367C527.187 108.367 525.758 109.836 525.758 112.07V113.344C525.758 115.758 527.109 117.156 529.437 117.156C531.219 117.156 532.562 116.211 532.82 114.812H531.531ZM529.336 109.508C530.703 109.508 531.531 110.484 531.531 112.102H527.07C527.07 110.477 527.922 109.508 529.336 109.508ZM542.664 111.164C542.445 109.422 541.164 108.359 539.289 108.359C536.984 108.359 535.641 109.773 535.641 112.203V113.312C535.641 115.742 536.984 117.156 539.289 117.156C541.164 117.156 542.453 116.102 542.664 114.375H541.351C541.187 115.344 540.359 115.961 539.266 115.961C537.789 115.961 536.969 114.961 536.969 113.141V112.375C536.969 110.555 537.789 109.547 539.266 109.547C540.359 109.547 541.187 110.172 541.351 111.164H542.664ZM547.578 106.25V108.547H545.32V109.68H547.578V114.477C547.578 116.242 548.555 117.039 550.656 117.039C551.062 117.039 552.094 117 552.305 116.961V115.836C552.078 115.859 551.226 115.883 550.75 115.883C549.555 115.883 548.906 115.383 548.906 114.461V109.68H552.328V108.547H548.891V106.25H547.578ZM556.812 118.07L562.312 104.656H561.008L555.516 118.07H556.812ZM100.117 129.523L103.219 138H104.68L107.773 129.523H106.359L104.008 136.578H103.906L101.539 129.523H100.117ZM110.242 129.898V129.945H111.57V129.898C111.57 128.57 112.43 127.703 113.726 127.703C115.039 127.703 115.891 128.5 115.891 129.711C115.891 130.602 115.547 131.203 114.117 132.805L110.305 137.047V138H117.437V136.75H112.273V136.617L114.93 133.727C116.726 131.766 117.258 130.828 117.258 129.656C117.258 127.773 115.836 126.492 113.766 126.492C111.711 126.492 110.242 127.914 110.242 129.898ZM121.625 139.07L127.125 125.656H125.82L120.328 139.07H121.625ZM134.148 129.383C132.937 129.383 132.055 129.883 131.609 130.82H131.469V129.523H130.156V140.859H131.508V136.688H131.656C132.023 137.617 132.922 138.141 134.148 138.141C136.109 138.141 137.391 136.727 137.391 134.555V132.977C137.391 130.797 136.109 129.383 134.148 129.383ZM133.766 130.602C135.164 130.602 136.055 131.602 136.055 133.164V134.383C136.055 135.945 135.164 136.953 133.766 136.953C132.367 136.953 131.476 135.953 131.476 134.383V133.164C131.476 131.602 132.367 130.602 133.766 130.602ZM140.031 138H141.359V133.016C141.359 131.57 142.305 130.594 143.703 130.594C145.031 130.594 145.656 131.32 145.656 132.844V138H146.984V132.508C146.984 130.484 145.984 129.375 144.141 129.375C142.844 129.375 141.867 129.969 141.422 131.023H141.312V126.195H140.031V138ZM151.023 141.016C152.594 141.016 153.305 140.398 154.047 138.312L157.242 129.523H155.828L153.461 136.617H153.359L150.984 129.523H149.539L152.656 138.055L152.508 138.516C152.156 139.5 151.719 139.859 150.922 139.859C150.797 139.859 150.555 139.852 150.453 139.828V140.992C150.57 141.008 150.828 141.016 151.023 141.016ZM166.992 138V136.898H164.195V126.195H159.992V127.297H162.867V136.898H159.969V138H166.992ZM176.883 138V136.898H174.086V126.195H169.883V127.297H172.758V136.898H169.859V138H176.883ZM183.07 138.156C185.312 138.156 186.742 136.695 186.742 134.406V133.125C186.742 130.836 185.312 129.375 183.07 129.375C180.828 129.375 179.398 130.836 179.398 133.125V134.406C179.398 136.695 180.828 138.156 183.07 138.156ZM183.07 130.547C184.523 130.547 185.43 131.578 185.43 133.242V134.281C185.43 135.953 184.523 136.977 183.07 136.977C181.617 136.977 180.711 135.953 180.711 134.281V133.242C180.711 131.578 181.617 130.547 183.07 130.547ZM197.094 133.617V132.383H188.828V133.617H197.094ZM206.383 132.164C206.164 130.422 204.883 129.359 203.008 129.359C200.703 129.359 199.359 130.773 199.359 133.203V134.312C199.359 136.742 200.703 138.156 203.008 138.156C204.883 138.156 206.172 137.102 206.383 135.375H205.07C204.906 136.344 204.078 136.961 202.984 136.961C201.508 136.961 200.687 135.961 200.687 134.141V133.375C200.687 131.555 201.508 130.547 202.984 130.547C204.078 130.547 204.906 131.172 205.07 132.164H206.383ZM212.742 138.156C214.984 138.156 216.414 136.695 216.414 134.406V133.125C216.414 130.836 214.984 129.375 212.742 129.375C210.5 129.375 209.07 130.836 209.07 133.125V134.406C209.07 136.695 210.5 138.156 212.742 138.156ZM212.742 130.547C214.195 130.547 215.101 131.578 215.101 133.242V134.281C215.101 135.953 214.195 136.977 212.742 136.977C211.289 136.977 210.383 135.953 210.383 134.281V133.242C210.383 131.578 211.289 130.547 212.742 130.547ZM219.164 138H220.492V133.008C220.492 131.562 221.43 130.586 222.828 130.586C224.148 130.586 224.773 131.305 224.773 132.836V138H226.101V132.5C226.101 130.469 225.101 129.367 223.258 129.367C221.969 129.367 221 129.961 220.547 131.016H220.437V129.523H219.164V138ZM229.055 138H230.383V133.008C230.383 131.562 231.32 130.586 232.719 130.586C234.039 130.586 234.664 131.305 234.664 132.836V138H235.992V132.5C235.992 130.469 234.992 129.367 233.148 129.367C231.859 129.367 230.891 129.961 230.437 131.016H230.328V129.523H229.055V138ZM244.703 135.812C244.469 136.555 243.68 137.008 242.609 137.008C241.164 137.008 240.242 136.008 240.242 134.453V134.109H246.016V133.281C246.016 130.828 244.719 129.367 242.516 129.367C240.359 129.367 238.93 130.836 238.93 133.07V134.344C238.93 136.758 240.281 138.156 242.609 138.156C244.391 138.156 245.734 137.211 245.992 135.812H244.703ZM242.508 130.508C243.875 130.508 244.703 131.484 244.703 133.102H240.242C240.242 131.477 241.094 130.508 242.508 130.508ZM255.836 132.164C255.617 130.422 254.336 129.359 252.461 129.359C250.156 129.359 248.812 130.773 248.812 133.203V134.312C248.812 136.742 250.156 138.156 252.461 138.156C254.336 138.156 255.625 137.102 255.836 135.375H254.523C254.359 136.344 253.531 136.961 252.437 136.961C250.961 136.961 250.141 135.961 250.141 134.141V133.375C250.141 131.555 250.961 130.547 252.437 130.547C253.531 130.547 254.359 131.172 254.523 132.164H255.836ZM260.75 127.25V129.547H258.492V130.68H260.75V135.477C260.75 137.242 261.726 138.039 263.828 138.039C264.234 138.039 265.266 138 265.476 137.961V136.836C265.25 136.859 264.398 136.883 263.922 136.883C262.726 136.883 262.078 136.383 262.078 135.461V130.68H265.5V129.547H262.062V127.25H260.75ZM272.086 138.047C272.859 138.047 273.5 137.398 273.5 136.602C273.5 135.812 272.859 135.164 272.086 135.164C271.312 135.164 270.672 135.812 270.672 136.602C270.672 137.398 271.312 138.047 272.086 138.047ZM283.094 127.445C283.719 127.445 284.195 126.977 284.195 126.352C284.195 125.734 283.719 125.266 283.094 125.266C282.469 125.266 281.992 125.734 281.992 126.352C281.992 126.977 282.469 127.445 283.094 127.445ZM283.859 129.523H278.68V130.625H282.555V137.797C282.555 139.008 282.078 139.383 280.5 139.383C279.984 139.383 278.891 139.359 278.484 139.32V140.508C279.047 140.555 279.953 140.57 280.539 140.57C282.898 140.57 283.859 139.828 283.859 137.953V129.523ZM288.781 131.812C288.781 133.016 289.539 133.789 291.07 134.141L292.328 134.43C293.406 134.672 293.82 135.031 293.82 135.703C293.82 136.516 293.086 137.039 291.93 137.039C290.836 137.039 290.086 136.586 289.891 135.805H288.539C288.687 137.258 289.961 138.156 291.883 138.156C293.891 138.156 295.195 137.141 295.195 135.578C295.195 134.352 294.445 133.633 292.797 133.258L291.601 132.984C290.539 132.75 290.101 132.383 290.101 131.734C290.101 130.961 290.797 130.461 291.875 130.461C292.867 130.461 293.578 130.914 293.734 131.656H295.016C294.859 130.242 293.664 129.359 291.898 129.359C290.031 129.359 288.781 130.344 288.781 131.812ZM300.945 131.758V126.727H299.516V131.758H300.945ZM304 131.758V126.727H302.562V131.758H304ZM127.258 195.164C127.039 193.422 125.758 192.359 123.883 192.359C121.578 192.359 120.234 193.773 120.234 196.203V197.312C120.234 199.742 121.578 201.156 123.883 201.156C125.758 201.156 127.047 200.102 127.258 198.375H125.945C125.781 199.344 124.953 199.961 123.859 199.961C122.383 199.961 121.562 198.961 121.562 197.141V196.375C121.562 194.555 122.383 193.547 123.859 193.547C124.953 193.547 125.781 194.172 125.945 195.164H127.258ZM137.32 201V199.898H134.523V189.195H130.32V190.297H133.195V199.898H130.297V201H137.32ZM143.656 190.445C144.281 190.445 144.758 189.977 144.758 189.352C144.758 188.734 144.281 188.266 143.656 188.266C143.031 188.266 142.555 188.734 142.555 189.352C142.555 189.977 143.031 190.445 143.656 190.445ZM147.211 201V199.898H144.406V192.523H140.211V193.625H143.094V199.898H140.187V201H147.211ZM155.687 198.812C155.453 199.555 154.664 200.008 153.594 200.008C152.148 200.008 151.226 199.008 151.226 197.453V197.109H157V196.281C157 193.828 155.703 192.367 153.5 192.367C151.344 192.367 149.914 193.836 149.914 196.07V197.344C149.914 199.758 151.266 201.156 153.594 201.156C155.375 201.156 156.719 200.211 156.976 198.812H155.687ZM153.492 193.508C154.859 193.508 155.687 194.484 155.687 196.102H151.226C151.226 194.477 152.078 193.508 153.492 193.508ZM159.82 201H161.148V196.008C161.148 194.562 162.086 193.586 163.484 193.586C164.805 193.586 165.43 194.305 165.43 195.836V201H166.758V195.5C166.758 193.469 165.758 192.367 163.914 192.367C162.625 192.367 161.656 192.961 161.203 194.016H161.094V192.523H159.82V201ZM171.734 190.25V192.547H169.476V193.68H171.734V198.477C171.734 200.242 172.711 201.039 174.812 201.039C175.219 201.039 176.25 201 176.461 200.961V199.836C176.234 199.859 175.383 199.883 174.906 199.883C173.711 199.883 173.062 199.383 173.062 198.461V193.68H176.484V192.547H173.047V190.25H171.734ZM179.375 189.727V201H182.531C185.726 201 187.336 199.109 187.336 195.344C187.336 191.609 185.726 189.727 182.531 189.727H179.375ZM180.758 190.992H182.406C184.789 190.992 185.93 192.398 185.93 195.352C185.93 198.336 184.797 199.734 182.406 199.734H180.758V190.992ZM193.109 190.445C193.734 190.445 194.211 189.977 194.211 189.352C194.211 188.734 193.734 188.266 193.109 188.266C192.484 188.266 192.008 188.734 192.008 189.352C192.008 189.977 192.484 190.445 193.109 190.445ZM196.664 201V199.898H193.859V192.523H189.664V193.625H192.547V199.898H189.641V201H196.664ZM199.766 194.812C199.766 196.016 200.523 196.789 202.055 197.141L203.312 197.43C204.391 197.672 204.805 198.031 204.805 198.703C204.805 199.516 204.07 200.039 202.914 200.039C201.82 200.039 201.07 199.586 200.875 198.805H199.523C199.672 200.258 200.945 201.156 202.867 201.156C204.875 201.156 206.18 200.141 206.18 198.578C206.18 197.352 205.43 196.633 203.781 196.258L202.586 195.984C201.523 195.75 201.086 195.383 201.086 194.734C201.086 193.961 201.781 193.461 202.859 193.461C203.851 193.461 204.562 193.914 204.719 194.656H206C205.844 193.242 204.648 192.359 202.883 192.359C201.016 192.359 199.766 193.344 199.766 194.812ZM213.273 192.383C212.062 192.383 211.18 192.883 210.734 193.82H210.594V192.523H209.281V203.859H210.633V199.688H210.781C211.148 200.617 212.047 201.141 213.273 201.141C215.234 201.141 216.516 199.727 216.516 197.555V195.977C216.516 193.797 215.234 192.383 213.273 192.383ZM212.891 193.602C214.289 193.602 215.18 194.602 215.18 196.164V197.383C215.18 198.945 214.289 199.953 212.891 199.953C211.492 199.953 210.601 198.953 210.601 197.383V196.164C210.601 194.602 211.492 193.602 212.891 193.602ZM226.336 201V199.898H223.539V189.195H219.336V190.297H222.211V199.898H219.312V201H226.336ZM231.664 201.148C232.898 201.148 233.82 200.641 234.226 199.734H234.359V201.008H235.625V195.203C235.625 193.438 234.484 192.422 232.492 192.422C230.758 192.422 229.445 193.352 229.289 194.711H230.594C230.812 193.984 231.5 193.57 232.476 193.57C233.656 193.57 234.305 194.156 234.305 195.219V195.984L231.976 196.102C230.047 196.203 228.969 197.094 228.969 198.594C228.969 200.133 230.047 201.148 231.664 201.148ZM232.047 199.984C230.976 199.984 230.312 199.438 230.312 198.547C230.312 197.664 230.937 197.156 232.125 197.102L234.305 197V198C234.305 199.133 233.328 199.984 232.047 199.984ZM240.039 204.016C241.609 204.016 242.32 203.398 243.062 201.312L246.258 192.523H244.844L242.476 199.617H242.375L240 192.523H238.555L241.672 201.055L241.523 201.516C241.172 202.5 240.734 202.859 239.937 202.859C239.812 202.859 239.57 202.852 239.469 202.828V203.992C239.586 204.008 239.844 204.016 240.039 204.016ZM249.797 201V192.203H249.906L254.75 201H256.055V189.727H254.812V198.5H254.703L249.875 189.727H248.555V201H249.797ZM261.336 201.148C262.57 201.148 263.492 200.641 263.898 199.734H264.031V201.008H265.297V195.203C265.297 193.438 264.156 192.422 262.164 192.422C260.43 192.422 259.117 193.352 258.961 194.711H260.266C260.484 193.984 261.172 193.57 262.148 193.57C263.328 193.57 263.976 194.156 263.976 195.219V195.984L261.648 196.102C259.719 196.203 258.641 197.094 258.641 198.594C258.641 200.133 259.719 201.148 261.336 201.148ZM261.719 199.984C260.648 199.984 259.984 199.438 259.984 198.547C259.984 197.664 260.609 197.156 261.797 197.102L263.976 197V198C263.976 199.133 263 199.984 261.719 199.984ZM276.172 194.758C276.172 193.188 275.555 192.367 274.375 192.367C273.523 192.367 272.844 192.883 272.625 193.695H272.484C272.305 192.859 271.742 192.367 270.945 192.367C270.148 192.367 269.539 192.867 269.328 193.719H269.187V192.523H268V201H269.195V195.281C269.195 194.227 269.664 193.578 270.414 193.578C271.133 193.578 271.508 194.117 271.508 195.141V201H272.695V195.281C272.695 194.227 273.148 193.578 273.891 193.578C274.601 193.578 274.976 194.117 274.976 195.148V201H276.172V194.758ZM284.266 198.812C284.031 199.555 283.242 200.008 282.172 200.008C280.726 200.008 279.805 199.008 279.805 197.453V197.109H285.578V196.281C285.578 193.828 284.281 192.367 282.078 192.367C279.922 192.367 278.492 193.836 278.492 196.07V197.344C278.492 199.758 279.844 201.156 282.172 201.156C283.953 201.156 285.297 200.211 285.555 198.812H284.266ZM282.07 193.508C283.437 193.508 284.266 194.484 284.266 196.102H279.805C279.805 194.477 280.656 193.508 282.07 193.508ZM291.156 203.594L292.625 198.516H290.867L289.898 203.594H291.156ZM126.016 219.812C125.781 220.555 124.992 221.008 123.922 221.008C122.476 221.008 121.555 220.008 121.555 218.453V218.109H127.328V217.281C127.328 214.828 126.031 213.367 123.828 213.367C121.672 213.367 120.242 214.836 120.242 217.07V218.344C120.242 220.758 121.594 222.156 123.922 222.156C125.703 222.156 127.047 221.211 127.305 219.812H126.016ZM123.82 214.508C125.187 214.508 126.016 215.484 126.016 217.102H121.555C121.555 215.477 122.406 214.508 123.82 214.508ZM130.148 222H131.476V217.008C131.476 215.562 132.414 214.586 133.812 214.586C135.133 214.586 135.758 215.305 135.758 216.836V222H137.086V216.5C137.086 214.469 136.086 213.367 134.242 213.367C132.953 213.367 131.984 213.961 131.531 215.016H131.422V213.523H130.148V222ZM139.68 213.523L142.781 222H144.242L147.336 213.523H145.922L143.57 220.578H143.469L141.101 213.523H139.68ZM153.547 211.445C154.172 211.445 154.648 210.977 154.648 210.352C154.648 209.734 154.172 209.266 153.547 209.266C152.922 209.266 152.445 209.734 152.445 210.352C152.445 210.977 152.922 211.445 153.547 211.445ZM157.101 222V220.898H154.297V213.523H150.101V214.625H152.984V220.898H150.078V222H157.101ZM162.953 218.203C162.953 216.047 164.062 214.75 165.937 214.75C166.398 214.75 166.945 214.844 167.336 214.984V213.492C167.055 213.375 166.594 213.305 166.109 213.305C164.476 213.305 163.422 214.117 163.109 215.688H162.937V213.523H159.773V214.586H161.656V220.938H159.945V222H165.578V220.938H162.953V218.203ZM173.18 222.156C175.422 222.156 176.851 220.695 176.851 218.406V217.125C176.851 214.836 175.422 213.375 173.18 213.375C170.937 213.375 169.508 214.836 169.508 217.125V218.406C169.508 220.695 170.937 222.156 173.18 222.156ZM173.18 214.547C174.633 214.547 175.539 215.578 175.539 217.242V218.281C175.539 219.953 174.633 220.977 173.18 220.977C171.726 220.977 170.82 219.953 170.82 218.281V217.242C170.82 215.578 171.726 214.547 173.18 214.547ZM179.601 222H180.93V217.008C180.93 215.562 181.867 214.586 183.266 214.586C184.586 214.586 185.211 215.305 185.211 216.836V222H186.539V216.5C186.539 214.469 185.539 213.367 183.695 213.367C182.406 213.367 181.437 213.961 180.984 215.016H180.875V213.523H179.601V222ZM197.047 215.758C197.047 214.188 196.43 213.367 195.25 213.367C194.398 213.367 193.719 213.883 193.5 214.695H193.359C193.18 213.859 192.617 213.367 191.82 213.367C191.023 213.367 190.414 213.867 190.203 214.719H190.062V213.523H188.875V222H190.07V216.281C190.07 215.227 190.539 214.578 191.289 214.578C192.008 214.578 192.383 215.117 192.383 216.141V222H193.57V216.281C193.57 215.227 194.023 214.578 194.766 214.578C195.476 214.578 195.851 215.117 195.851 216.148V222H197.047V215.758ZM205.141 219.812C204.906 220.555 204.117 221.008 203.047 221.008C201.601 221.008 200.68 220.008 200.68 218.453V218.109H206.453V217.281C206.453 214.828 205.156 213.367 202.953 213.367C200.797 213.367 199.367 214.836 199.367 217.07V218.344C199.367 220.758 200.719 222.156 203.047 222.156C204.828 222.156 206.172 221.211 206.43 219.812H205.141ZM202.945 214.508C204.312 214.508 205.141 215.484 205.141 217.102H200.68C200.68 215.477 201.531 214.508 202.945 214.508ZM209.273 222H210.601V217.008C210.601 215.562 211.539 214.586 212.937 214.586C214.258 214.586 214.883 215.305 214.883 216.836V222H216.211V216.5C216.211 214.469 215.211 213.367 213.367 213.367C212.078 213.367 211.109 213.961 210.656 215.016H210.547V213.523H209.273V222ZM221.187 211.25V213.547H218.93V214.68H221.187V219.477C221.187 221.242 222.164 222.039 224.266 222.039C224.672 222.039 225.703 222 225.914 221.961V220.836C225.687 220.859 224.836 220.883 224.359 220.883C223.164 220.883 222.516 220.383 222.516 219.461V214.68H225.937V213.547H222.5V211.25H221.187ZM231.812 224.594L233.281 219.516H231.523L230.555 224.594H231.812ZM127.195 234.523H125.867V239.516C125.867 240.961 124.93 241.938 123.531 241.938C122.211 241.938 121.586 241.219 121.586 239.688V234.523H120.258V240.023C120.258 242.055 121.258 243.156 123.101 243.156C124.391 243.156 125.359 242.562 125.812 241.508H125.922V243H127.195V234.523ZM130.531 236.812C130.531 238.016 131.289 238.789 132.82 239.141L134.078 239.43C135.156 239.672 135.57 240.031 135.57 240.703C135.57 241.516 134.836 242.039 133.68 242.039C132.586 242.039 131.836 241.586 131.641 240.805H130.289C130.437 242.258 131.711 243.156 133.633 243.156C135.641 243.156 136.945 242.141 136.945 240.578C136.945 239.352 136.195 238.633 134.547 238.258L133.351 237.984C132.289 237.75 131.851 237.383 131.851 236.734C131.851 235.961 132.547 235.461 133.625 235.461C134.617 235.461 135.328 235.914 135.484 236.656H136.766C136.609 235.242 135.414 234.359 133.648 234.359C131.781 234.359 130.531 235.344 130.531 236.812ZM145.797 240.812C145.562 241.555 144.773 242.008 143.703 242.008C142.258 242.008 141.336 241.008 141.336 239.453V239.109H147.109V238.281C147.109 235.828 145.812 234.367 143.609 234.367C141.453 234.367 140.023 235.836 140.023 238.07V239.344C140.023 241.758 141.375 243.156 143.703 243.156C145.484 243.156 146.828 242.211 147.086 240.812H145.797ZM143.601 235.508C144.969 235.508 145.797 236.484 145.797 238.102H141.336C141.336 236.477 142.187 235.508 143.601 235.508ZM153.062 239.203C153.062 237.047 154.172 235.75 156.047 235.75C156.508 235.75 157.055 235.844 157.445 235.984V234.492C157.164 234.375 156.703 234.305 156.219 234.305C154.586 234.305 153.531 235.117 153.219 236.688H153.047V234.523H149.883V235.586H151.766V241.938H150.055V243H155.687V241.938H153.062V239.203ZM166.258 243V241.773H163.976V232.953H166.258V231.727H160.32V232.953H162.601V241.773H160.32V243H166.258ZM172.648 243.141C173.859 243.141 174.75 242.641 175.187 241.703H175.336V243H176.641V231.195H175.289V235.836H175.148C174.781 234.906 173.875 234.383 172.648 234.383C170.687 234.383 169.406 235.797 169.406 237.969V239.547C169.406 241.727 170.687 243.141 172.648 243.141ZM173.039 241.93C171.641 241.93 170.742 240.922 170.742 239.359V238.141C170.742 236.578 171.641 235.578 173.039 235.578C174.43 235.578 175.328 236.578 175.328 238.141V239.359C175.328 240.93 174.43 241.93 173.039 241.93ZM182.359 245.594L183.828 240.516H182.07L181.101 245.594H182.359ZM122.281 253.25V255.547H120.023V256.68H122.281V261.477C122.281 263.242 123.258 264.039 125.359 264.039C125.766 264.039 126.797 264 127.008 263.961V262.836C126.781 262.859 125.93 262.883 125.453 262.883C124.258 262.883 123.609 262.383 123.609 261.461V256.68H127.031V255.547H123.594V253.25H122.281ZM133.617 264.156C135.859 264.156 137.289 262.695 137.289 260.406V259.125C137.289 256.836 135.859 255.375 133.617 255.375C131.375 255.375 129.945 256.836 129.945 259.125V260.406C129.945 262.695 131.375 264.156 133.617 264.156ZM133.617 256.547C135.07 256.547 135.976 257.578 135.976 259.242V260.281C135.976 261.953 135.07 262.977 133.617 262.977C132.164 262.977 131.258 261.953 131.258 260.281V259.242C131.258 257.578 132.164 256.547 133.617 256.547ZM142.094 259.328H141.992V252.195H140.664V264H141.992V260.914L143.164 259.789L146.055 264H147.633L144.109 258.883L147.398 255.523H145.789L142.094 259.328ZM155.687 261.812C155.453 262.555 154.664 263.008 153.594 263.008C152.148 263.008 151.226 262.008 151.226 260.453V260.109H157V259.281C157 256.828 155.703 255.367 153.5 255.367C151.344 255.367 149.914 256.836 149.914 259.07V260.344C149.914 262.758 151.266 264.156 153.594 264.156C155.375 264.156 156.719 263.211 156.976 261.812H155.687ZM153.492 256.508C154.859 256.508 155.687 257.484 155.687 259.102H151.226C151.226 257.477 152.078 256.508 153.492 256.508ZM159.82 264H161.148V259.008C161.148 257.562 162.086 256.586 163.484 256.586C164.805 256.586 165.43 257.305 165.43 258.836V264H166.758V258.5C166.758 256.469 165.758 255.367 163.914 255.367C162.625 255.367 161.656 255.961 161.203 257.016H161.094V255.523H159.82V264ZM305.891 299.867V298.578H297.625V299.867H305.891ZM305.891 303.43V302.141H297.625V303.43H305.891ZM100.547 315.727V327H101.93V322.953H104.266C106.469 322.953 107.914 321.523 107.914 319.344C107.914 317.156 106.484 315.727 104.297 315.727H100.547ZM101.93 316.953H103.953C105.594 316.953 106.516 317.805 106.516 319.344C106.516 320.875 105.594 321.727 103.953 321.727H101.93V316.953ZM110.359 327H111.687V322.016C111.687 320.57 112.633 319.594 114.031 319.594C115.359 319.594 115.984 320.32 115.984 321.844V327H117.312V321.508C117.312 319.484 116.312 318.375 114.469 318.375C113.172 318.375 112.195 318.969 111.75 320.023H111.641V315.195H110.359V327ZM121.351 330.016C122.922 330.016 123.633 329.398 124.375 327.312L127.57 318.523H126.156L123.789 325.617H123.687L121.312 318.523H119.867L122.984 327.055L122.836 327.516C122.484 328.5 122.047 328.859 121.25 328.859C121.125 328.859 120.883 328.852 120.781 328.828V329.992C120.898 330.008 121.156 330.016 121.351 330.016ZM137.32 327V325.898H134.523V315.195H130.32V316.297H133.195V325.898H130.297V327H137.32ZM147.211 327V325.898H144.414V315.195H140.211V316.297H143.086V325.898H140.187V327H147.211ZM153.398 327.156C155.641 327.156 157.07 325.695 157.07 323.406V322.125C157.07 319.836 155.641 318.375 153.398 318.375C151.156 318.375 149.726 319.836 149.726 322.125V323.406C149.726 325.695 151.156 327.156 153.398 327.156ZM153.398 319.547C154.851 319.547 155.758 320.578 155.758 322.242V323.281C155.758 324.953 154.851 325.977 153.398 325.977C151.945 325.977 151.039 324.953 151.039 323.281V322.242C151.039 320.578 151.945 319.547 153.398 319.547ZM163.547 325.93C161.719 325.93 160.766 324.703 160.766 322.367V320.359C160.766 318.023 161.719 316.797 163.539 316.797C164.984 316.797 165.992 317.82 166.039 319.344H167.437C167.391 316.938 165.922 315.492 163.547 315.492C160.898 315.492 159.359 317.281 159.359 320.359V322.367C159.359 325.445 160.898 327.234 163.547 327.234C165.851 327.234 167.43 325.758 167.43 323.578H166.039C166 325.031 165.047 325.93 163.547 325.93ZM173.18 327.156C175.422 327.156 176.851 325.695 176.851 323.406V322.125C176.851 319.836 175.422 318.375 173.18 318.375C170.937 318.375 169.508 319.836 169.508 322.125V323.406C169.508 325.695 170.937 327.156 173.18 327.156ZM173.18 319.547C174.633 319.547 175.539 320.578 175.539 322.242V323.281C175.539 324.953 174.633 325.977 173.18 325.977C171.726 325.977 170.82 324.953 170.82 323.281V322.242C170.82 320.578 171.726 319.547 173.18 319.547ZM179.601 327H180.93V322.008C180.93 320.562 181.867 319.586 183.266 319.586C184.586 319.586 185.211 320.305 185.211 321.836V327H186.539V321.5C186.539 319.469 185.539 318.367 183.695 318.367C182.406 318.367 181.437 318.961 180.984 320.016H180.875V318.523H179.601V327ZM189.492 327H190.82V322.008C190.82 320.562 191.758 319.586 193.156 319.586C194.476 319.586 195.101 320.305 195.101 321.836V327H196.43V321.5C196.43 319.469 195.43 318.367 193.586 318.367C192.297 318.367 191.328 318.961 190.875 320.016H190.766V318.523H189.492V327ZM205.141 324.812C204.906 325.555 204.117 326.008 203.047 326.008C201.601 326.008 200.68 325.008 200.68 323.453V323.109H206.453V322.281C206.453 319.828 205.156 318.367 202.953 318.367C200.797 318.367 199.367 319.836 199.367 322.07V323.344C199.367 325.758 200.719 327.156 203.047 327.156C204.828 327.156 206.172 326.211 206.43 324.812H205.141ZM202.945 319.508C204.312 319.508 205.141 320.484 205.141 322.102H200.68C200.68 320.477 201.531 319.508 202.945 319.508ZM216.273 321.164C216.055 319.422 214.773 318.359 212.898 318.359C210.594 318.359 209.25 319.773 209.25 322.203V323.312C209.25 325.742 210.594 327.156 212.898 327.156C214.773 327.156 216.062 326.102 216.273 324.375H214.961C214.797 325.344 213.969 325.961 212.875 325.961C211.398 325.961 210.578 324.961 210.578 323.141V322.375C210.578 320.555 211.398 319.547 212.875 319.547C213.969 319.547 214.797 320.172 214.961 321.164H216.273ZM221.187 316.25V318.547H218.93V319.68H221.187V324.477C221.187 326.242 222.164 327.039 224.266 327.039C224.672 327.039 225.703 327 225.914 326.961V325.836C225.687 325.859 224.836 325.883 224.359 325.883C223.164 325.883 222.516 325.383 222.516 324.461V319.68H225.937V318.547H222.5V316.25H221.187ZM232.523 327.047C233.297 327.047 233.937 326.398 233.937 325.602C233.937 324.812 233.297 324.164 232.523 324.164C231.75 324.164 231.109 324.812 231.109 325.602C231.109 326.398 231.75 327.047 232.523 327.047ZM242.562 316.445C243.187 316.445 243.664 315.977 243.664 315.352C243.664 314.734 243.187 314.266 242.562 314.266C241.937 314.266 241.461 314.734 241.461 315.352C241.461 315.977 241.937 316.445 242.562 316.445ZM246.117 327V325.898H243.312V318.523H239.117V319.625H242V325.898H239.094V327H246.117ZM248.836 327H250.164V322.008C250.164 320.562 251.101 319.586 252.5 319.586C253.82 319.586 254.445 320.305 254.445 321.836V327H255.773V321.5C255.773 319.469 254.773 318.367 252.93 318.367C251.641 318.367 250.672 318.961 250.219 320.016H250.109V318.523H248.836V327ZM262.344 316.445C262.969 316.445 263.445 315.977 263.445 315.352C263.445 314.734 262.969 314.266 262.344 314.266C261.719 314.266 261.242 314.734 261.242 315.352C261.242 315.977 261.719 316.445 262.344 316.445ZM265.898 327V325.898H263.094V318.523H258.898V319.625H261.781V325.898H258.875V327H265.898ZM270.641 316.25V318.547H268.383V319.68H270.641V324.477C270.641 326.242 271.617 327.039 273.719 327.039C274.125 327.039 275.156 327 275.367 326.961V325.836C275.141 325.859 274.289 325.883 273.812 325.883C272.617 325.883 271.969 325.383 271.969 324.461V319.68H275.391V318.547H271.953V316.25H270.641ZM282.125 316.445C282.75 316.445 283.226 315.977 283.226 315.352C283.226 314.734 282.75 314.266 282.125 314.266C281.5 314.266 281.023 314.734 281.023 315.352C281.023 315.977 281.5 316.445 282.125 316.445ZM285.68 327V325.898H282.875V318.523H278.68V319.625H281.562V325.898H278.656V327H285.68ZM291.008 327.148C292.242 327.148 293.164 326.641 293.57 325.734H293.703V327.008H294.969V321.203C294.969 319.438 293.828 318.422 291.836 318.422C290.101 318.422 288.789 319.352 288.633 320.711H289.937C290.156 319.984 290.844 319.57 291.82 319.57C293 319.57 293.648 320.156 293.648 321.219V321.984L291.32 322.102C289.391 322.203 288.312 323.094 288.312 324.594C288.312 326.133 289.391 327.148 291.008 327.148ZM291.391 325.984C290.32 325.984 289.656 325.438 289.656 324.547C289.656 323.664 290.281 323.156 291.469 323.102L293.648 323V324C293.648 325.133 292.672 325.984 291.391 325.984ZM305.461 327V325.898H302.664V315.195H298.461V316.297H301.336V325.898H298.437V327H305.461ZM311.797 316.445C312.422 316.445 312.898 315.977 312.898 315.352C312.898 314.734 312.422 314.266 311.797 314.266C311.172 314.266 310.695 314.734 310.695 315.352C310.695 315.977 311.172 316.445 311.797 316.445ZM315.351 327V325.898H312.547V318.523H308.351V319.625H311.234V325.898H308.328V327H315.351ZM318.242 327H324.836V325.859H319.906V325.758L324.805 319.516V318.523H318.266V319.664H323.219V319.766L318.242 326.062V327ZM333.719 324.812C333.484 325.555 332.695 326.008 331.625 326.008C330.18 326.008 329.258 325.008 329.258 323.453V323.109H335.031V322.281C335.031 319.828 333.734 318.367 331.531 318.367C329.375 318.367 327.945 319.836 327.945 322.07V323.344C327.945 325.758 329.297 327.156 331.625 327.156C333.406 327.156 334.75 326.211 335.008 324.812H333.719ZM331.523 319.508C332.891 319.508 333.719 320.484 333.719 322.102H329.258C329.258 320.477 330.109 319.508 331.523 319.508ZM339.617 321.359C339.617 324.016 340.414 326.312 341.969 328.078H343.289C341.672 325.805 340.992 323.812 340.992 321.359C340.992 318.906 341.672 316.914 343.289 314.641H341.969C340.414 316.406 339.617 318.711 339.617 321.359ZM354.742 321.164C354.523 319.422 353.242 318.359 351.367 318.359C349.062 318.359 347.719 319.773 347.719 322.203V323.312C347.719 325.742 349.062 327.156 351.367 327.156C353.242 327.156 354.531 326.102 354.742 324.375H353.43C353.266 325.344 352.437 325.961 351.344 325.961C349.867 325.961 349.047 324.961 349.047 323.141V322.375C349.047 320.555 349.867 319.547 351.344 319.547C352.437 319.547 353.266 320.172 353.43 321.164H354.742ZM361.101 327.156C363.344 327.156 364.773 325.695 364.773 323.406V322.125C364.773 319.836 363.344 318.375 361.101 318.375C358.859 318.375 357.43 319.836 357.43 322.125V323.406C357.43 325.695 358.859 327.156 361.101 327.156ZM361.101 319.547C362.555 319.547 363.461 320.578 363.461 322.242V323.281C363.461 324.953 362.555 325.977 361.101 325.977C359.648 325.977 358.742 324.953 358.742 323.281V322.242C358.742 320.578 359.648 319.547 361.101 319.547ZM367.523 327H368.851V322.008C368.851 320.562 369.789 319.586 371.187 319.586C372.508 319.586 373.133 320.305 373.133 321.836V327H374.461V321.5C374.461 319.469 373.461 318.367 371.617 318.367C370.328 318.367 369.359 318.961 368.906 320.016H368.797V318.523H367.523V327ZM379.633 327H380.961V319.68H384.687V318.547H380.945V317.672C380.945 316.82 381.57 316.383 382.75 316.383C383.226 316.383 384.32 316.414 384.687 316.453V315.367C384.406 315.328 383.226 315.289 382.734 315.289C380.648 315.289 379.633 316.055 379.633 317.695V318.547H377.359V319.68H379.633V327ZM390.922 316.445C391.547 316.445 392.023 315.977 392.023 315.352C392.023 314.734 391.547 314.266 390.922 314.266C390.297 314.266 389.82 314.734 389.82 315.352C389.82 315.977 390.297 316.445 390.922 316.445ZM394.476 327V325.898H391.672V318.523H387.476V319.625H390.359V325.898H387.453V327H394.476ZM400.414 330.18C402.711 330.18 404.07 328.992 404.07 327V318.523H402.758V319.836H402.609C402.242 318.922 401.312 318.383 400.086 318.383C398.101 318.383 396.805 319.789 396.805 321.969V323.492C396.805 325.664 398.094 327.078 400.055 327.078C401.289 327.078 402.226 326.539 402.601 325.648H402.742V326.969C402.742 328.328 401.922 329.078 400.437 329.078C399.305 329.078 398.453 328.617 398.281 327.914H396.969C397.141 329.32 398.453 330.18 400.414 330.18ZM398.141 323.305V322.141C398.141 320.586 399.047 319.578 400.453 319.578C401.851 319.578 402.75 320.578 402.75 322.141V323.305C402.75 324.867 401.851 325.875 400.453 325.875C399.047 325.875 398.141 324.859 398.141 323.305ZM412.258 321.359C412.258 318.711 411.461 316.406 409.906 314.641H408.586C410.203 316.914 410.883 318.906 410.883 321.359C410.883 323.812 410.203 325.805 408.586 328.078H409.906C411.461 326.312 412.258 324.016 412.258 321.359ZM104.476 360.383C103.266 360.383 102.383 360.883 101.937 361.82H101.797V360.523H100.484V371.859H101.836V367.688H101.984C102.351 368.617 103.25 369.141 104.476 369.141C106.437 369.141 107.719 367.727 107.719 365.555V363.977C107.719 361.797 106.437 360.383 104.476 360.383ZM104.094 361.602C105.492 361.602 106.383 362.602 106.383 364.164V365.383C106.383 366.945 105.492 367.953 104.094 367.953C102.695 367.953 101.805 366.953 101.805 365.383V364.164C101.805 362.602 102.695 361.602 104.094 361.602ZM110.359 369H111.687V364.016C111.687 362.57 112.633 361.594 114.031 361.594C115.359 361.594 115.984 362.32 115.984 363.844V369H117.312V363.508C117.312 361.484 116.312 360.375 114.469 360.375C113.172 360.375 112.195 360.969 111.75 362.023H111.641V357.195H110.359V369ZM121.351 372.016C122.922 372.016 123.633 371.398 124.375 369.312L127.57 360.523H126.156L123.789 367.617H123.687L121.312 360.523H119.867L122.984 369.055L122.836 369.516C122.484 370.5 122.047 370.859 121.25 370.859C121.125 370.859 120.883 370.852 120.781 370.828V371.992C120.898 372.008 121.156 372.016 121.351 372.016ZM137.32 369V367.898H134.523V357.195H130.32V358.297H133.195V367.898H130.297V369H137.32ZM147.211 369V367.898H144.414V357.195H140.211V358.297H143.086V367.898H140.187V369H147.211ZM153.398 369.156C155.641 369.156 157.07 367.695 157.07 365.406V364.125C157.07 361.836 155.641 360.375 153.398 360.375C151.156 360.375 149.726 361.836 149.726 364.125V365.406C149.726 367.695 151.156 369.156 153.398 369.156ZM153.398 361.547C154.851 361.547 155.758 362.578 155.758 364.242V365.281C155.758 366.953 154.851 367.977 153.398 367.977C151.945 367.977 151.039 366.953 151.039 365.281V364.242C151.039 362.578 151.945 361.547 153.398 361.547ZM163.547 367.93C161.719 367.93 160.766 366.703 160.766 364.367V362.359C160.766 360.023 161.719 358.797 163.539 358.797C164.984 358.797 165.992 359.82 166.039 361.344H167.437C167.391 358.938 165.922 357.492 163.547 357.492C160.898 357.492 159.359 359.281 159.359 362.359V364.367C159.359 367.445 160.898 369.234 163.547 369.234C165.851 369.234 167.43 367.758 167.43 365.578H166.039C166 367.031 165.047 367.93 163.547 367.93ZM173.18 369.156C175.422 369.156 176.851 367.695 176.851 365.406V364.125C176.851 361.836 175.422 360.375 173.18 360.375C170.937 360.375 169.508 361.836 169.508 364.125V365.406C169.508 367.695 170.937 369.156 173.18 369.156ZM173.18 361.547C174.633 361.547 175.539 362.578 175.539 364.242V365.281C175.539 366.953 174.633 367.977 173.18 367.977C171.726 367.977 170.82 366.953 170.82 365.281V364.242C170.82 362.578 171.726 361.547 173.18 361.547ZM179.601 369H180.93V364.008C180.93 362.562 181.867 361.586 183.266 361.586C184.586 361.586 185.211 362.305 185.211 363.836V369H186.539V363.5C186.539 361.469 185.539 360.367 183.695 360.367C182.406 360.367 181.437 360.961 180.984 362.016H180.875V360.523H179.601V369ZM189.492 369H190.82V364.008C190.82 362.562 191.758 361.586 193.156 361.586C194.476 361.586 195.101 362.305 195.101 363.836V369H196.43V363.5C196.43 361.469 195.43 360.367 193.586 360.367C192.297 360.367 191.328 360.961 190.875 362.016H190.766V360.523H189.492V369ZM205.141 366.812C204.906 367.555 204.117 368.008 203.047 368.008C201.601 368.008 200.68 367.008 200.68 365.453V365.109H206.453V364.281C206.453 361.828 205.156 360.367 202.953 360.367C200.797 360.367 199.367 361.836 199.367 364.07V365.344C199.367 367.758 200.719 369.156 203.047 369.156C204.828 369.156 206.172 368.211 206.43 366.812H205.141ZM202.945 361.508C204.312 361.508 205.141 362.484 205.141 364.102H200.68C200.68 362.477 201.531 361.508 202.945 361.508ZM216.273 363.164C216.055 361.422 214.773 360.359 212.898 360.359C210.594 360.359 209.25 361.773 209.25 364.203V365.312C209.25 367.742 210.594 369.156 212.898 369.156C214.773 369.156 216.062 368.102 216.273 366.375H214.961C214.797 367.344 213.969 367.961 212.875 367.961C211.398 367.961 210.578 366.961 210.578 365.141V364.375C210.578 362.555 211.398 361.547 212.875 361.547C213.969 361.547 214.797 362.172 214.961 363.164H216.273ZM221.187 358.25V360.547H218.93V361.68H221.187V366.477C221.187 368.242 222.164 369.039 224.266 369.039C224.672 369.039 225.703 369 225.914 368.961V367.836C225.687 367.859 224.836 367.883 224.359 367.883C223.164 367.883 222.516 367.383 222.516 366.461V361.68H225.937V360.547H222.5V358.25H221.187ZM232.523 369.047C233.297 369.047 233.937 368.398 233.937 367.602C233.937 366.812 233.297 366.164 232.523 366.164C231.75 366.164 231.109 366.812 231.109 367.602C231.109 368.398 231.75 369.047 232.523 369.047ZM242.414 369.156C244.656 369.156 246.086 367.695 246.086 365.406V364.125C246.086 361.836 244.656 360.375 242.414 360.375C240.172 360.375 238.742 361.836 238.742 364.125V365.406C238.742 367.695 240.172 369.156 242.414 369.156ZM242.414 361.547C243.867 361.547 244.773 362.578 244.773 364.242V365.281C244.773 366.953 243.867 367.977 242.414 367.977C240.961 367.977 240.055 366.953 240.055 365.281V364.242C240.055 362.578 240.961 361.547 242.414 361.547ZM252.836 360.383C251.625 360.383 250.742 360.883 250.297 361.82H250.156V360.523H248.844V371.859H250.195V367.688H250.344C250.711 368.617 251.609 369.141 252.836 369.141C254.797 369.141 256.078 367.727 256.078 365.555V363.977C256.078 361.797 254.797 360.383 252.836 360.383ZM252.453 361.602C253.851 361.602 254.742 362.602 254.742 364.164V365.383C254.742 366.945 253.851 367.953 252.453 367.953C251.055 367.953 250.164 366.953 250.164 365.383V364.164C250.164 362.602 251.055 361.602 252.453 361.602ZM264.484 366.812C264.25 367.555 263.461 368.008 262.391 368.008C260.945 368.008 260.023 367.008 260.023 365.453V365.109H265.797V364.281C265.797 361.828 264.5 360.367 262.297 360.367C260.141 360.367 258.711 361.836 258.711 364.07V365.344C258.711 367.758 260.062 369.156 262.391 369.156C264.172 369.156 265.516 368.211 265.773 366.812H264.484ZM262.289 361.508C263.656 361.508 264.484 362.484 264.484 364.102H260.023C260.023 362.477 260.875 361.508 262.289 361.508ZM268.617 369H269.945V364.008C269.945 362.562 270.883 361.586 272.281 361.586C273.601 361.586 274.226 362.305 274.226 363.836V369H275.555V363.5C275.555 361.469 274.555 360.367 272.711 360.367C271.422 360.367 270.453 360.961 270 362.016H269.891V360.523H268.617V369ZM280.273 363.359C280.273 366.016 281.07 368.312 282.625 370.078H283.945C282.328 367.805 281.648 365.812 281.648 363.359C281.648 360.906 282.328 358.914 283.945 356.641H282.625C281.07 358.406 280.273 360.711 280.273 363.359ZM293.57 363.359C293.57 360.711 292.773 358.406 291.219 356.641H289.898C291.516 358.914 292.195 360.906 292.195 363.359C292.195 365.812 291.516 367.805 289.898 370.078H291.219C292.773 368.312 293.57 366.016 293.57 363.359Z" fill="#86FAC2"/>
<g opacity="0.4">
<path d="M68.0311 116.789H71.203V118H63.3436V116.789H66.6718V108.289H66.5468L63.3202 110.375V108.906L66.6796 106.727H68.0311V116.789Z" fill="white"/>
<path d="M63.3514 132.898C63.3514 131.904 63.6822 131.089 64.3436 130.453C65.0051 129.812 65.8488 129.492 66.8749 129.492C67.9113 129.492 68.7525 129.784 69.3983 130.367C70.0441 130.951 70.3671 131.714 70.3671 132.656C70.3671 133.245 70.203 133.826 69.8749 134.398C69.5468 134.971 68.9348 135.747 68.0389 136.727L65.3827 139.617V139.75H70.5468V141H63.4139V140.047L67.2264 135.805C67.94 135.003 68.4139 134.398 68.6483 133.992C68.8827 133.586 68.9999 133.159 68.9999 132.711C68.9999 132.107 68.802 131.622 68.4061 131.258C68.0155 130.888 67.4921 130.703 66.8358 130.703C66.1848 130.703 65.6613 130.904 65.2655 131.305C64.8749 131.706 64.6796 132.237 64.6796 132.898V132.945H63.3514V132.898Z" fill="white"/>
<path d="M65.5702 158.773V157.617H66.7968C67.427 157.617 67.9426 157.43 68.3436 157.055C68.7447 156.68 68.9452 156.198 68.9452 155.609C68.9452 155.036 68.7499 154.576 68.3593 154.227C67.9738 153.878 67.4634 153.703 66.828 153.703C66.1926 153.703 65.677 153.878 65.2811 154.227C64.8853 154.576 64.6613 155.052 64.6093 155.656H63.2889C63.3566 154.677 63.7108 153.906 64.3514 153.344C64.9973 152.776 65.841 152.492 66.8827 152.492C67.8931 152.492 68.7212 152.766 69.3671 153.312C70.0129 153.859 70.3358 154.56 70.3358 155.414C70.3358 156.091 70.1665 156.661 69.828 157.125C69.4895 157.583 69.0181 157.888 68.4139 158.039V158.164C69.1639 158.263 69.7499 158.56 70.1718 159.055C70.5936 159.549 70.8046 160.182 70.8046 160.953C70.8046 161.911 70.4426 162.698 69.7186 163.312C68.9947 163.927 68.0702 164.234 66.9452 164.234C65.8306 164.234 64.9191 163.94 64.2108 163.352C63.5025 162.763 63.1223 161.982 63.0702 161.008H64.3749C64.4374 161.607 64.6978 162.089 65.1561 162.453C65.6197 162.812 66.203 162.992 66.9061 162.992C67.677 162.992 68.2863 162.807 68.7343 162.438C69.1874 162.062 69.4139 161.557 69.4139 160.922C69.4139 160.266 69.1822 159.745 68.7186 159.359C68.2603 158.969 67.6405 158.773 66.8593 158.773H65.5702Z" fill="white"/>
<path d="M68.2655 187V184.617H63.1249V183.5L66.953 175.727H68.3593L64.5858 183.32V183.422H68.2811V180.203H69.5311V183.406H71.2499V184.617H69.5233V187H68.2655Z" fill="white"/>
<path d="M66.8514 210.227C65.7994 210.227 64.9322 209.93 64.2499 209.336C63.5728 208.742 63.2056 207.961 63.1483 206.992H64.4764C64.5389 207.581 64.7968 208.06 65.2499 208.43C65.7082 208.799 66.2681 208.984 66.9296 208.984C67.6535 208.984 68.2369 208.75 68.6796 208.281C69.1275 207.812 69.3514 207.195 69.3514 206.43C69.3514 205.654 69.1275 205.029 68.6796 204.555C68.2369 204.076 67.6535 203.836 66.9296 203.836C66.4244 203.836 65.9712 203.945 65.5702 204.164C65.1744 204.383 64.8645 204.693 64.6405 205.094H63.3358L63.9061 198.727H70.0702V199.969H64.9921L64.6796 203.648H64.8046C65.3671 202.966 66.1509 202.625 67.1561 202.625C68.1978 202.625 69.0468 202.977 69.703 203.68C70.3645 204.383 70.6952 205.289 70.6952 206.398C70.6952 207.539 70.341 208.464 69.6327 209.172C68.9244 209.875 67.9973 210.227 66.8514 210.227Z" fill="white"/>
<path d="M70.8124 229.383C70.8124 230.503 70.4504 231.424 69.7264 232.148C69.0025 232.872 68.0832 233.234 66.9686 233.234C65.8593 233.234 64.9452 232.872 64.2264 232.148C63.5077 231.424 63.1483 230.503 63.1483 229.383C63.1483 228.721 63.2681 228.073 63.5077 227.438C63.7473 226.797 64.1353 226.083 64.6718 225.297C64.7134 225.229 65.1431 224.62 65.9608 223.469C66.7785 222.318 67.19 221.737 67.1952 221.727H68.7811L65.703 225.953C65.5051 226.234 65.3827 226.427 65.3358 226.531L65.453 226.594C65.6197 226.37 65.8827 226.182 66.2421 226.031C66.6014 225.88 66.9608 225.805 67.3202 225.805C68.3254 225.805 69.1587 226.146 69.8202 226.828C70.4816 227.505 70.8124 228.357 70.8124 229.383ZM65.1952 231.273C65.6744 231.763 66.2681 232.008 66.9764 232.008C67.6848 232.008 68.2785 231.763 68.7577 231.273C69.2369 230.784 69.4764 230.177 69.4764 229.453C69.4764 228.724 69.2369 228.115 68.7577 227.625C68.2785 227.135 67.6848 226.891 66.9764 226.891C66.2681 226.891 65.6744 227.135 65.1952 227.625C64.7212 228.115 64.4843 228.724 64.4843 229.453C64.4843 230.177 64.7212 230.784 65.1952 231.273Z" fill="white"/>
<path d="M64.2421 256L69.3593 246.062V245.961H63.2421V244.727H70.7655V246L65.7108 256H64.2421Z" fill="white"/>
<path d="M65.4061 271.992C65.8072 272.341 66.3332 272.516 66.9843 272.516C67.6353 272.516 68.1587 272.341 68.5546 271.992C68.9504 271.638 69.1483 271.172 69.1483 270.594C69.1483 270.021 68.9504 269.56 68.5546 269.211C68.1587 268.857 67.6353 268.68 66.9843 268.68C66.3332 268.68 65.8072 268.857 65.4061 269.211C65.0103 269.56 64.8124 270.021 64.8124 270.594C64.8124 271.172 65.0103 271.638 65.4061 271.992ZM65.1171 277.453C65.5962 277.854 66.2186 278.055 66.9843 278.055C67.7499 278.055 68.3723 277.854 68.8514 277.453C69.3306 277.047 69.5702 276.521 69.5702 275.875C69.5702 275.229 69.3306 274.706 68.8514 274.305C68.3723 273.898 67.7499 273.695 66.9843 273.695C66.2186 273.695 65.5962 273.898 65.1171 274.305C64.6379 274.706 64.3983 275.229 64.3983 275.875C64.3983 276.521 64.6379 277.047 65.1171 277.453ZM69.8436 278.344C69.1093 278.948 68.1561 279.25 66.9843 279.25C65.8124 279.25 64.8566 278.948 64.1171 278.344C63.3775 277.734 63.0077 276.948 63.0077 275.984C63.0077 275.286 63.216 274.674 63.6327 274.148C64.0546 273.622 64.6119 273.276 65.3046 273.109V272.984C64.7369 272.828 64.2863 272.526 63.953 272.078C63.6249 271.625 63.4608 271.091 63.4608 270.477C63.4608 269.596 63.7915 268.878 64.453 268.32C65.1145 267.758 65.9582 267.477 66.9843 267.477C68.0103 267.477 68.8514 267.758 69.5077 268.32C70.1691 268.878 70.4999 269.596 70.4999 270.477C70.4999 271.091 70.3358 271.622 70.0077 272.07C69.6796 272.518 69.229 272.823 68.6561 272.984V273.109C69.3384 273.255 69.8905 273.594 70.3124 274.125C70.7395 274.651 70.953 275.271 70.953 275.984C70.953 276.948 70.5832 277.734 69.8436 278.344Z" fill="white"/>
<path d="M63.0936 294.344C63.0936 293.224 63.453 292.302 64.1718 291.578C64.8957 290.854 65.815 290.492 66.9296 290.492C68.0441 290.492 68.9608 290.854 69.6796 291.578C70.3983 292.297 70.7577 293.219 70.7577 294.344C70.7577 294.984 70.6353 295.625 70.3905 296.266C70.1457 296.906 69.7473 297.628 69.1952 298.43C69.1535 298.503 68.7447 299.086 67.9686 300.18C67.1926 301.273 66.7603 301.88 66.6718 302H65.0936L68.1639 297.773C68.3306 297.549 68.4582 297.357 68.5468 297.195L68.4296 297.133C68.2629 297.357 68.0025 297.544 67.6483 297.695C67.2994 297.846 66.9452 297.922 66.5858 297.922C65.5806 297.922 64.7473 297.583 64.0858 296.906C63.4244 296.229 63.0936 295.375 63.0936 294.344ZM68.703 292.453C68.2238 291.964 67.6301 291.719 66.9218 291.719C66.2134 291.719 65.6197 291.964 65.1405 292.453C64.6665 292.943 64.4296 293.549 64.4296 294.273C64.4296 295.003 64.6665 295.612 65.1405 296.102C65.6197 296.591 66.2134 296.836 66.9218 296.836C67.6301 296.836 68.2238 296.591 68.703 296.102C69.1822 295.612 69.4218 295.003 69.4218 294.273C69.4218 293.549 69.1822 292.943 68.703 292.453Z" fill="white"/>
<path d="M68.0311 323.789H71.203V325H63.3436V323.789H66.6718V315.289H66.5468L63.3202 317.375V315.906L66.6796 313.727H68.0311V323.789ZM79.2186 318.109L74.6874 321.938C75.0572 323.339 75.7759 324.039 76.8436 324.039C77.6405 324.039 78.2447 323.643 78.6561 322.852C79.0676 322.055 79.2733 320.893 79.2733 319.367C79.2733 318.893 79.2551 318.474 79.2186 318.109ZM74.4608 320.609L78.9999 316.82C78.6353 315.404 77.9165 314.695 76.8436 314.695C76.0468 314.695 75.44 315.091 75.0233 315.883C74.6119 316.674 74.4061 317.836 74.4061 319.367C74.4061 319.836 74.4244 320.25 74.4608 320.609ZM74.0233 315C74.6796 313.984 75.6197 313.477 76.8436 313.477C78.0676 313.477 79.0077 313.984 79.6639 315C80.3202 316.016 80.6483 317.471 80.6483 319.367C80.6483 321.263 80.3202 322.719 79.6639 323.734C79.0077 324.75 78.0676 325.258 76.8436 325.258C75.6197 325.258 74.6796 324.753 74.0233 323.742C73.3671 322.727 73.0389 321.268 73.0389 319.367C73.0389 317.466 73.3671 316.01 74.0233 315Z" fill="white"/>
<path d="M68.0311 346.789H71.203V348H63.3436V346.789H66.6718V338.289H66.5468L63.3202 340.375V338.906L66.6796 336.727H68.0311V346.789ZM77.9218 346.789H81.0936V348H73.2343V346.789H76.5624V338.289H76.4374L73.2108 340.375V338.906L76.5702 336.727H77.9218V346.789Z" fill="white"/>
<path d="M68.0311 369.789H71.203V371H63.3436V369.789H66.6718V361.289H66.5468L63.3202 363.375V361.906L66.6796 359.727H68.0311V369.789ZM73.2421 362.898C73.2421 361.904 73.5728 361.089 74.2343 360.453C74.8957 359.812 75.7395 359.492 76.7655 359.492C77.802 359.492 78.6431 359.784 79.2889 360.367C79.9348 360.951 80.2577 361.714 80.2577 362.656C80.2577 363.245 80.0936 363.826 79.7655 364.398C79.4374 364.971 78.8254 365.747 77.9296 366.727L75.2733 369.617V369.75H80.4374V371H73.3046V370.047L77.1171 365.805C77.8306 365.003 78.3046 364.398 78.5389 363.992C78.7733 363.586 78.8905 363.159 78.8905 362.711C78.8905 362.107 78.6926 361.622 78.2968 361.258C77.9061 360.888 77.3827 360.703 76.7264 360.703C76.0754 360.703 75.552 360.904 75.1561 361.305C74.7655 361.706 74.5702 362.237 74.5702 362.898V362.945H73.2421V362.898Z" fill="white"/>
</g>
</g>
</g>
<defs>
<filter id="filter0_d_2490_11342" x="-0.00012207" y="0" width="640" height="474" filterUnits="userSpaceOnUse" color-interpolation-filters="sRGB">
<feFlood flood-opacity="0" result="BackgroundImageFix"/>
<feColorMatrix in="SourceAlpha" type="matrix" values="0 0 0 0 0 0 0 0 0 0 0 0 0 0 0 0 0 0 127 0" result="hardAlpha"/>
<feOffset dx="2" dy="8"/>
<feGaussianBlur stdDeviation="12"/>
<feComposite in2="hardAlpha" operator="out"/>
<feColorMatrix type="matrix" values="0 0 0 0 0.483333 0 0 0 0 0.483333 0 0 0 0 0.483333 0 0 0 0.16 0"/>
<feBlend mode="normal" in2="BackgroundImageFix" result="effect1_dropShadow_2490_11342"/>
<feBlend mode="normal" in="SourceGraphic" in2="effect1_dropShadow_2490_11342" result="shape"/>
</filter>
<clipPath id="clip0_2490_11342">
<rect x="21.9999" y="16" width="592" height="426" rx="20" fill="white"/>
</clipPath>
</defs>
</svg>
