<svg width="140" height="34" viewBox="0 0 140 34" fill="none" xmlns="http://www.w3.org/2000/svg">
<path d="M7.65724 2.70014C10.7794 2.70014 13.2065 3.3501 14.9385 4.65004C16.6705 5.94997 17.5365 7.87707 17.5365 10.4313C17.5365 13.0996 16.6819 15.1179 14.9726 16.4863C13.2862 17.8318 11.0187 18.5046 8.17001 18.5046H5.6062V26.4069H0V2.70014H7.65724ZM7.69143 14.468C9.01321 14.468 10.0159 14.1601 10.6996 13.5443C11.4061 12.9058 11.7593 11.8681 11.7593 10.4313C11.7593 7.94549 10.3692 6.70257 7.58888 6.70257H5.6062V14.468H7.69143Z" fill="white"/>
<path d="M30.3582 7.66041C31.9306 7.66041 33.1613 8.13934 34.0501 9.09719C34.9388 10.055 35.3832 11.4006 35.3832 13.1338V26.4069H29.9821V14.0575C29.9821 13.1452 29.834 12.5181 29.5378 12.176C29.2415 11.8111 28.8199 11.6286 28.2729 11.6286C27.1791 11.6286 26.1307 12.404 25.128 13.9548V26.4069H19.7269V1.0239L25.128 0.476562V10.1919C25.8801 9.34805 26.6777 8.72089 27.5209 8.31038C28.3641 7.87707 29.3099 7.66041 30.3582 7.66041Z" fill="white"/>
<path d="M49.2719 26.4411C48.5426 28.7901 47.3462 30.5917 45.6825 31.8461C44.0417 33.1232 41.8311 33.8416 39.0508 34.0012L38.4697 30.204C40.2017 29.976 41.4779 29.5883 42.2983 29.0409C43.1415 28.4936 43.8138 27.6156 44.3152 26.4069H42.4692L36.9314 8.24197H42.6743L45.9218 22.9518L49.477 8.24197H55.049L49.2719 26.4411Z" fill="white"/>
<path d="M84.9411 7.66041C87.7214 7.66041 89.8978 8.51564 91.4703 10.2261C93.0428 11.9137 93.829 14.2855 93.829 17.3415C93.829 19.28 93.4644 20.9791 92.7351 22.4386C92.0287 23.8754 91.0031 24.9929 89.6586 25.7911C88.3368 26.5893 86.7643 26.9884 84.9411 26.9884C82.1836 26.9884 80.0072 26.1446 78.412 24.4569C76.8395 22.7465 76.0533 20.3633 76.0533 17.3073C76.0533 15.3688 76.4065 13.6812 77.113 12.2444C77.8422 10.7848 78.8678 9.65593 80.1895 8.85772C81.5341 8.05952 83.118 7.66041 84.9411 7.66041ZM84.9411 11.6286C83.8472 11.6286 83.0268 12.0962 82.4799 13.0312C81.9329 13.9434 81.6595 15.3688 81.6595 17.3073C81.6595 19.2914 81.9215 20.7396 82.4457 21.6518C82.9926 22.5641 83.8245 23.0202 84.9411 23.0202C86.035 23.0202 86.8555 22.5641 87.4024 21.6518C87.9493 20.7168 88.2228 19.28 88.2228 17.3415C88.2228 15.3574 87.9493 13.9092 87.4024 12.997C86.8782 12.0848 86.0578 11.6286 84.9411 11.6286Z" fill="white"/>
<path d="M57.6016 0.78283L63.2989 0V27.082H57.6016V0.78283Z" fill="white"/>
<path d="M67.0977 0.78283L72.795 0V27.082H67.0977V0.78283Z" fill="white"/>
<path d="M98.2079 3.72646C97.6879 1.75967 139.999 3.69368 139.999 3.69368L120.224 29.6399C120.224 29.6399 111.572 19.9839 108.724 16.6309C105.875 13.278 98.7279 5.69325 98.2079 3.72646Z" fill="#473AE9"/>
<path d="M98.966 9.63261C98.2562 7.86885 139.998 3.69531 139.998 3.69531L120.223 29.6415C120.223 29.6415 110.92 21.2986 109.197 19.4833C107.473 17.668 99.6758 11.3964 98.966 9.63261Z" fill="#8E00C5"/>
<path d="M100.624 16.1476C99.5164 14.8349 139.996 3.69531 139.996 3.69531L120.221 29.6415C120.221 29.6415 112.126 24.9098 110.145 23.2843C108.164 21.6587 101.731 17.4602 100.624 16.1476Z" fill="#FF6E63"/>
<path d="M103.853 23.2634C102.929 21.8077 139.998 3.69531 139.998 3.69531L120.223 29.6415C120.223 29.6415 115.279 28.3317 112.29 27.0948C108.865 25.6774 104.776 24.7192 103.853 23.2634Z" fill="#FFA427"/>
</svg>
