<svg width="56" height="56" viewBox="0 0 56 56" fill="none" xmlns="http://www.w3.org/2000/svg">
<circle cx="28" cy="28" r="28" fill="#473AE9"/>
<path d="M15.8254 28.6079V27.3905C15.8254 27.0543 16.0979 26.7818 16.4341 26.7818H36.1193L30.7019 21.3766C30.5867 21.2623 30.5219 21.1067 30.5219 20.9444C30.5219 20.7821 30.5867 20.6265 30.7019 20.5122L31.5663 19.66C31.6806 19.5448 31.8362 19.48 31.9985 19.48C32.1608 19.48 32.3163 19.5448 32.4306 19.66L39.9054 27.1226C40.0767 27.2937 40.173 27.5258 40.1732 27.7679V28.2305C40.1704 28.472 40.0745 28.7032 39.9054 28.8757L32.4306 36.3383C32.3163 36.4535 32.1608 36.5183 31.9985 36.5183C31.8362 36.5183 31.6806 36.4535 31.5663 36.3383L30.7019 35.4739C30.5874 35.3617 30.5229 35.2082 30.5229 35.0479C30.5229 34.8875 30.5874 34.734 30.7019 34.6218L36.1193 29.2166H16.4341C16.0979 29.2166 15.8254 28.944 15.8254 28.6079Z" fill="white"/>
</svg>
